<mxfile host="app.diagrams.net" modified="2024-03-22T13:40:39.609Z" agent="Mozilla/5.0 (Windows NT 10.0; Win64; x64) AppleWebKit/537.36 (KHTML, like Gecko) Chrome/122.0.0.0 Safari/537.36" etag="ZIMdQXw2cK2QyreuzGOb" version="24.0.7" type="device">
  <diagram name="System Concept" id="sffKNt9oGoJLQNk2zkVU">
    <mxGraphModel dx="1292" dy="679" grid="1" gridSize="10" guides="1" tooltips="1" connect="1" arrows="1" fold="1" page="1" pageScale="1" pageWidth="827" pageHeight="1169" math="0" shadow="0">
      <root>
        <mxCell id="0" />
        <mxCell id="1" parent="0" />
        <mxCell id="rsaEBbKv7yQd2xddFUuZ-47" value="Backend Sync Service" style="rounded=0;whiteSpace=wrap;html=1;verticalAlign=top;align=left;" parent="1" vertex="1">
          <mxGeometry x="700" y="344.5" width="260" height="165.5" as="geometry" />
        </mxCell>
        <mxCell id="rsaEBbKv7yQd2xddFUuZ-29" value="Client Backend Application" style="rounded=0;whiteSpace=wrap;html=1;verticalAlign=bottom;" parent="1" vertex="1">
          <mxGeometry x="520" y="580" width="180" height="225.5" as="geometry" />
        </mxCell>
        <mxCell id="rsaEBbKv7yQd2xddFUuZ-13" value="MySQL InnoDB Cluster" style="rounded=0;whiteSpace=wrap;html=1;verticalAlign=bottom;" parent="1" vertex="1">
          <mxGeometry x="885" y="566" width="260" height="250" as="geometry" />
        </mxCell>
        <mxCell id="rsaEBbKv7yQd2xddFUuZ-9" style="rounded=0;orthogonalLoop=1;jettySize=auto;html=1;exitX=0.145;exitY=1;exitDx=0;exitDy=-4.35;exitPerimeter=0;endArrow=none;endFill=0;dashed=1;" parent="1" source="rsaEBbKv7yQd2xddFUuZ-3" target="rsaEBbKv7yQd2xddFUuZ-4" edge="1">
          <mxGeometry relative="1" as="geometry" />
        </mxCell>
        <mxCell id="rsaEBbKv7yQd2xddFUuZ-10" style="rounded=0;orthogonalLoop=1;jettySize=auto;html=1;exitX=0.855;exitY=1;exitDx=0;exitDy=-4.35;exitPerimeter=0;endArrow=none;endFill=0;dashed=1;" parent="1" source="rsaEBbKv7yQd2xddFUuZ-3" target="rsaEBbKv7yQd2xddFUuZ-6" edge="1">
          <mxGeometry relative="1" as="geometry" />
        </mxCell>
        <mxCell id="rsaEBbKv7yQd2xddFUuZ-3" value="Primary&lt;div&gt;R/W&lt;/div&gt;" style="shape=cylinder3;whiteSpace=wrap;html=1;boundedLbl=1;backgroundOutline=1;size=15;" parent="1" vertex="1">
          <mxGeometry x="985" y="581" width="60" height="80" as="geometry" />
        </mxCell>
        <mxCell id="rsaEBbKv7yQd2xddFUuZ-4" value="Slave&lt;div&gt;R/O&lt;/div&gt;" style="shape=cylinder3;whiteSpace=wrap;html=1;boundedLbl=1;backgroundOutline=1;size=15;" parent="1" vertex="1">
          <mxGeometry x="925" y="701" width="60" height="80" as="geometry" />
        </mxCell>
        <mxCell id="rsaEBbKv7yQd2xddFUuZ-5" value="MySQL&amp;nbsp;&lt;div&gt;Router&lt;/div&gt;" style="rounded=0;whiteSpace=wrap;html=1;rotation=0;" parent="1" vertex="1">
          <mxGeometry x="855" y="640" width="55" height="141" as="geometry" />
        </mxCell>
        <mxCell id="rsaEBbKv7yQd2xddFUuZ-6" value="Slave&lt;div&gt;R/O&lt;/div&gt;" style="shape=cylinder3;whiteSpace=wrap;html=1;boundedLbl=1;backgroundOutline=1;size=15;" parent="1" vertex="1">
          <mxGeometry x="1045" y="701" width="60" height="80" as="geometry" />
        </mxCell>
        <mxCell id="rsaEBbKv7yQd2xddFUuZ-11" style="rounded=0;orthogonalLoop=1;jettySize=auto;html=1;entryX=0;entryY=0.5;entryDx=0;entryDy=0;entryPerimeter=0;endArrow=none;endFill=0;dashed=1;" parent="1" source="rsaEBbKv7yQd2xddFUuZ-4" target="rsaEBbKv7yQd2xddFUuZ-6" edge="1">
          <mxGeometry relative="1" as="geometry" />
        </mxCell>
        <mxCell id="rsaEBbKv7yQd2xddFUuZ-25" style="rounded=0;orthogonalLoop=1;jettySize=auto;html=1;exitX=1.038;exitY=0.195;exitDx=0;exitDy=0;entryX=0.25;entryY=0;entryDx=0;entryDy=0;edgeStyle=orthogonalEdgeStyle;exitPerimeter=0;" parent="1" source="rsaEBbKv7yQd2xddFUuZ-16" target="rsaEBbKv7yQd2xddFUuZ-17" edge="1">
          <mxGeometry relative="1" as="geometry">
            <Array as="points">
              <mxPoint x="580" y="665" />
            </Array>
          </mxGeometry>
        </mxCell>
        <mxCell id="rsaEBbKv7yQd2xddFUuZ-16" value="API" style="rounded=0;whiteSpace=wrap;html=1;" parent="1" vertex="1">
          <mxGeometry x="500" y="638.5" width="36" height="134" as="geometry" />
        </mxCell>
        <mxCell id="rsaEBbKv7yQd2xddFUuZ-21" style="edgeStyle=orthogonalEdgeStyle;rounded=0;orthogonalLoop=1;jettySize=auto;html=1;" parent="1" source="rsaEBbKv7yQd2xddFUuZ-17" target="rsaEBbKv7yQd2xddFUuZ-18" edge="1">
          <mxGeometry relative="1" as="geometry" />
        </mxCell>
        <mxCell id="rsaEBbKv7yQd2xddFUuZ-17" value="Service" style="rounded=0;whiteSpace=wrap;html=1;" parent="1" vertex="1">
          <mxGeometry x="550" y="678.75" width="120" height="37.5" as="geometry" />
        </mxCell>
        <mxCell id="rsaEBbKv7yQd2xddFUuZ-19" value="data fetch" style="edgeStyle=orthogonalEdgeStyle;rounded=0;orthogonalLoop=1;jettySize=auto;html=1;entryX=0;entryY=0.75;entryDx=0;entryDy=0;exitX=1;exitY=0.25;exitDx=0;exitDy=0;" parent="1" source="rsaEBbKv7yQd2xddFUuZ-18" target="rsaEBbKv7yQd2xddFUuZ-5" edge="1">
          <mxGeometry x="-0.0297" y="-9" relative="1" as="geometry">
            <mxPoint as="offset" />
          </mxGeometry>
        </mxCell>
        <mxCell id="rsaEBbKv7yQd2xddFUuZ-22" style="edgeStyle=orthogonalEdgeStyle;rounded=0;orthogonalLoop=1;jettySize=auto;html=1;exitX=0.25;exitY=0;exitDx=0;exitDy=0;entryX=0.25;entryY=1;entryDx=0;entryDy=0;" parent="1" source="rsaEBbKv7yQd2xddFUuZ-18" target="rsaEBbKv7yQd2xddFUuZ-17" edge="1">
          <mxGeometry relative="1" as="geometry" />
        </mxCell>
        <mxCell id="rsaEBbKv7yQd2xddFUuZ-18" value="Repository" style="rounded=0;whiteSpace=wrap;html=1;" parent="1" vertex="1">
          <mxGeometry x="550" y="737.5" width="120" height="35" as="geometry" />
        </mxCell>
        <mxCell id="rsaEBbKv7yQd2xddFUuZ-24" value="" style="edgeStyle=orthogonalEdgeStyle;rounded=0;orthogonalLoop=1;jettySize=auto;html=1;entryX=1;entryY=0.75;entryDx=0;entryDy=0;exitX=0.009;exitY=0.876;exitDx=0;exitDy=0;exitPerimeter=0;" parent="1" source="rsaEBbKv7yQd2xddFUuZ-5" target="rsaEBbKv7yQd2xddFUuZ-18" edge="1">
          <mxGeometry x="-0.0279" y="12" relative="1" as="geometry">
            <mxPoint x="864" y="756.5" as="sourcePoint" />
            <mxPoint x="680" y="756.5" as="targetPoint" />
            <mxPoint as="offset" />
          </mxGeometry>
        </mxCell>
        <mxCell id="rsaEBbKv7yQd2xddFUuZ-26" style="rounded=0;orthogonalLoop=1;jettySize=auto;html=1;exitX=0.5;exitY=0;exitDx=0;exitDy=0;entryX=1.025;entryY=0.067;entryDx=0;entryDy=0;entryPerimeter=0;edgeStyle=orthogonalEdgeStyle;" parent="1" source="rsaEBbKv7yQd2xddFUuZ-17" target="rsaEBbKv7yQd2xddFUuZ-16" edge="1">
          <mxGeometry relative="1" as="geometry">
            <Array as="points">
              <mxPoint x="610" y="647.5" />
            </Array>
          </mxGeometry>
        </mxCell>
        <mxCell id="rsaEBbKv7yQd2xddFUuZ-27" value="Client&amp;nbsp;&lt;div&gt;Device&lt;/div&gt;" style="ellipse;shape=cloud;whiteSpace=wrap;html=1;" parent="1" vertex="1">
          <mxGeometry x="258" y="636.25" width="120" height="80" as="geometry" />
        </mxCell>
        <mxCell id="rsaEBbKv7yQd2xddFUuZ-54" value="upload" style="edgeStyle=orthogonalEdgeStyle;rounded=0;orthogonalLoop=1;jettySize=auto;html=1;" parent="1" source="rsaEBbKv7yQd2xddFUuZ-28" target="rsaEBbKv7yQd2xddFUuZ-15" edge="1">
          <mxGeometry relative="1" as="geometry" />
        </mxCell>
        <mxCell id="rsaEBbKv7yQd2xddFUuZ-28" value="CSV Producer&lt;div&gt;(aka. Fresh Delta)&lt;/div&gt;" style="ellipse;shape=cloud;whiteSpace=wrap;html=1;" parent="1" vertex="1">
          <mxGeometry x="228" y="372.53999999999996" width="150" height="100" as="geometry" />
        </mxCell>
        <mxCell id="rsaEBbKv7yQd2xddFUuZ-31" value="" style="rounded=0;orthogonalLoop=1;jettySize=auto;html=1;exitX=0.009;exitY=0.876;exitDx=0;exitDy=0;exitPerimeter=0;" parent="1" edge="1">
          <mxGeometry x="-0.0279" y="12" relative="1" as="geometry">
            <mxPoint x="495" y="678.35" as="sourcePoint" />
            <mxPoint x="380" y="678" as="targetPoint" />
            <mxPoint as="offset" />
          </mxGeometry>
        </mxCell>
        <mxCell id="rsaEBbKv7yQd2xddFUuZ-32" value="" style="shape=image;verticalLabelPosition=bottom;labelBackgroundColor=default;verticalAlign=top;aspect=fixed;imageAspect=0;image=data:image/png,iVBORw0KGgoAAAANSUhEUgAABOEAAAEmCAYAAAAk8IRAAAAgAElEQVR4AeydB5gkVbn+L+pFoiJBLklJIoIYEAMmEFAQc8KEV8wJUVQQ9ZoVZXOcnHPOs5N34s7MTs6zOznv5JzDfv//e5ZehnFnqJnp6q7qfut5+ulUXXXqd86pPuc9X/gv4UYCJEACJEACJEACJEACJEACJEACJEACJEACJKArgf/S9eg8OAmQAAmQAAmQAAmQAAmQAAmQAAmQAAmQAAmQgFCEYyMgARIgARIgARIgARIgARIgARIgARIgARIgAZ0JUITTGTAPTwIkQAIkQAIkQAIkQAIkQAIkQAIkQAIkQAIU4dgGSIAESIAESIAESIAESIAESIAESIAESIAESEBnAhThdAbMw5MACZAACZAACZAACZAACZAACZAACZAACZAARTi2ARIgARIgARIgARIgARIgARIgARIgARIgARLQmQBFOJ0B8/AkQAIkQAIkQAIkQAIkQAIkQAIkQAIkQAIkQBGObYAESIAESIAESIAESIAESIAESIAESIAESIAEdCZAEU5nwDw8CZAACZAACZAACZAACZAACZAACZAACZAACVCEYxsgARIgARIgARIgARIgARIgARIgARIgARIgAZ0JUITTGTAPTwIkQAIkQAIkQAIkQAIkQAIkQAIkQAIkQAIU4dgGSIAESIAESIAESIAESIAESIAESIAESIAESEBnAhThdAbMw5MACZAACZAACZAACZAACZAACZAACZAACZAARTi2ARIgARIgARIgARIgARIgARIgARIgARIgARLQmQBFOJ0B8/AkQAIkQAIkQAIkQAIkQAIkQAIkQAIkQAIkQBGObYAESIAESIAESIAESIAESIAESIAESIAESIAEdCZAEU5nwDw8CZAACZAACZAACZAACZAACZAACZAACZAACVCEYxsgARIgARIgARIgARIgARIgARIgARIgARIgAZ0JUITTGTAPTwIkQAIkQAIkQAIkQAIkQAIkQAIkQAIkQAIU4dgGSIAESIAESIAESIAESIAESIAESIAESIAESEBnAhThdAbMw5MACZAACZAACZAACZAACZAACZAACZAACZAARTi2ARIgARIgARIgARIgARIgARIgARIgARIgARLQmQBFOJ0B8/AkQAIkQAIkQAIkQAIkQAIkQAIkQAIkQAIkQBGObYAESIAESIAESIAESIAESIAESIAESIAESIAEdCZAEU5nwDw8CZAACZAACZAACZAACZAACZAACZAACZAACVCEYxsgARIgARIgARIgARIgARIgARIgARIgARIgAZ0JUITTGTAPTwIkQAIkQAIkQAIkQAIkQAIkQAIkQAIkQAIU4dgGSIAESIAESIAESIAESIAESIAESIAESIAESEBnAhThdAbMw5MACZAACZAACZAACZAACZAACZAACZAACZAARTi2ARIgARIgARIgARIgARIgARIgARIgARIgARLQmQBFOJ0B8/AkQAIkQAIkQAIkQAIkQAIkQAIkQAIkQAIkQBGObYAESIAESIAESIAESIAESIAESIAESIAESIAEdCZAEU5nwDw8CZAACZAACZAACZAACZAACZAACZAACZAACVCEc5A2cFpE5peXZXJxQYbnZuXUzLR0Tk5Iy8SYNIwOS+3IkFQO9UvZ4Ckp7u+VY6d6JK+vS3J7uyS3r0tyervkaE+nZPV0qEd2b6f6HN9jv/y+binq75WSgT4pHzwl1cODUjcyJCfHR6RtYkx6pidlYHZGxhbmZWZpUZZWVuT0aZSKGwmQAAmQAAmQAAmQAAmQAAmQAAmQAAmQAEU4B2kDiysrSnirGRlUIlp4c6O41FXIP8oL5ZcFmfK97CPytYx4+VRypNwXGyzvifCV20M85C3B7nJrkJvcGOgq1/odkjf6HlCPGwIOy1te/B77vSPcW+6NCZCPJ4bJ51Oi5fHMBPlJbqr8rjhHdlUeF78TtZLY0SyF/b3SOjGmxMDl0ysOQpeXQQIkQAIkQAIkQAIkQAIkQAIkQAIkQALbI0ARbnv8bPrr6aVF6Z6elPKhfknpbJXAk3Wyv6ZM/lySL0/lZ8gTWcnylbRY+XRypDyUECYfjg2SeyL95O1hXnJbiLvcFOQq1/sflqt9D8jl3vvkUs89connbrnYY7dc6L5LXuu+U/7bbYd6XOC+U32O77Hf6732yJU+++Uav4PypgAXuSXITd4W6invDPeWD0QHyP1xIfJIUrgS6L6RkSA/zEmRZ4uy5V/lheJeXylRrSeU1d2JsREZnZ+TheVlm7LjyUiABEiABEiABEiABEiABEiABEiABEjAngQowtmT/jrnhivn9OKi9M9OS/P4qFQOD0hBX7fEtzeLR0OV/Lm0QL6ffUQ+fSRK3hflr6zYXue152UimkVMs9fzhR675Gq/A3JHqKfcHxcsX02Pk6ePZcmuquMS2tQg6V1tcnygT7m0dk5NnBXm6MC6TqPgxyRAAiRAAiRAAiRAAiRAAiRAAiRAAqYmQBHOgNWHuG5N46MS3XpS/lpaoASsuyN8lQXa5T775DLvvco6bbUF2/luL1mx2Ut4W3ve8912CCzqLvLYpSzuIBS+wXufsqh7a4iHPBgfKj/LSxOX2grJ6+uWoblZgVstNxIgARIgARIgARIgARIgARIgARIgARJwNAIU4exco7B6Q0KD0oFTEtHSKDsqi+UXBZnytfR4+XhCmLwn0k+5kV7us1+5jK4Vusz6Hi6ucG19W4incpv9XEq0ilv3f8fzlPtqene7sgJEkocVJniwcyvl6UmABEiABEiABEiABEiABEiABEiABLZLgCLcdglu8vfLp0+Liu02NSk1w4MqKyliu/2pJF++khanEiBc5XvgbGw2s4psmy03rObgwnpjoIt8LD5EfpKXJvuqSyWps0W5rcItF5ZyCyvLclrotLrJZsfdSYAESIAESIAESIAESIAESIAESIAE7EyAIpyNK2BqcVFOjo+Kd2O1iuuGxAmwCEPiAyRBgBAFQWqzIpaj7I/kEHBfvdRzt1zhs19uDnZTGV3/WlYgaV1tMjQ3I7Ae5EYCJEACJEACJEACJEACJEACJEACJEACZiJAEc4GtdU/M62sufwaa+QPxbny9Yx4uS8uWBAXDVlKETfNUUQ0a17H+cjQ6rlbrg84LIiJh6yvP85Nld1VJZLU0SKtE2MytbhggxrkKUiABEiABEiABEiABEiABEiABEiABEhgewQowm2P3zl/jRhmEwvz0jE5LqWDpySkuUF+X5wrn0yKkJuDXFUWUwhM1hSsnOFYsJJDUgrEyfvO0WQ5UFMmRzpbpWZkUHqnp2Rmaemc9cEPSYAESIAESIAESIAESIAESIAESIAESMDeBCjCWbkGEK0MGT6rhgZU1s/PJEfJW4LdBZlBYdV1gfsuim/bcLdFFli47CKxwxteFOS+n5MiYc2NKpEDo8VZuUHzcCRAAiRAAiRAAiRAAiRAAiRAAiRAAlYhQBHOChiRKGBxZVlOjo1IdOsJ+WNJnnwjI0E+FBMoNwQcVoKRM1iq2eMa4c57W7C7PBAfIj/KSVXWcYX9vSrjrBWqlocgARIgARIgARIgARIgARIgARIgARIgAasQoAi3DYywuhqbn1MWWLl9XbK/plS+kRGvXE4v9dpDi7dtWLxtRdD7H7+Dcm90gDxbmC1hzQ1SNTwgp2amZZZuqtto5fwpCZAACZAACZAACZAACZCAsxFAiKWl0ysyt7wk04uLKtzS6PycDM3OKIOHvplp6Z6aVCGYEKu7aXxUGkeHpX50WGqGB6X6xQfmZBVD/VI2eOrsAyGbjg/0SVF/79lH8UCf+qxkoO/sfuWD/VI5NKDmdQhBVDcypM7RPD4q7ZPj0jU1IX0zUzI4NyMjc7Myubigyrt8+rScPk0fKWdrs2a5XopwW6wpdOrF5WV1o3i+vFA+HBuoEgggwylcThnzzfYZXpFV9iKP3cr19+1hXvJ4ZoJEt55UfwxbrGb+jARIgARIgARIgARIgARIgAScjsDCyrKML8xLz/Sk8viCGHbsVI9k9nRIQnuzCgfk01gjh2rLZUflcflLaYEyhvh5fob8ICdFvp2VrB6PZybK1zLi5QupMfK5lGj57JFoeTQ5Qh5KCJP74kLOPu6PC1GfPZoUqfbDvl9KjZWvZyTI/2Ylyfeyj8hP89Lk2aJs+XvZMdlbXSLejTUS3tyo4oTn9XVL9fCAEuZmlhYFIiI3EjAiAYpwW6iVoblZKTrVI7sqj8u3MhPlnkg/eaPvAbnIg/HetmLBpsdvkMDhliA3eSghVJ7KzxD8QTSODavVkS1UOX/ihAQmFxYkp7dT4tqbJKr1BB8mZJDe1a5WYmkN64QdmJdMAiRAAk5EYH55WWCVlNrVptt4JaWzVXpnppSVkROhdYhLXV5ZUXMgWK3Bkqy4v1cyutslpu2k+J+olcO1FUpE+2tpgfyuOFeeLsiSn+SmKdELc92vpcfLl9Ni5fMpMfLpI1HySNIZAe3++BAVfun9UQEqcd47w33kzjAveWuIh9wa7C43Bbqqx42BrvKmABe5zv+welzrf0iu8T+k5s9X+uyX1Q/MqeHdZNn3ev/D8mYcJ8hNze1uC/FQ53hXhI+8N8pfPhQTJBDvPp4QJo8mRSihD+X9bvYR+UVBpvzxeJ7srDwuHg1VylMK7RgWeLDcg9Xc0sqKQ9SxUS4CVoloXxBp9Zo/wcgmrq1JToyNGOWyN10OinAakSHZAsxva0cGJbLlhDxXlK3EN9w09BCReEzrWdIhLt/DSeGyq+q4+sOB6TIm5Vwb0dj4nXQ3ZNz9c0m+Wnl7LC1O+DAfg18fOyqBJ+tkeG7WSVsxL5sESIAESMAZCMBS6UhnqxJO9BqvQJRJ6mhR7ofOwNRM1wgPLQixsFrD+BWumnAHhVtnXl+XpHW1KWsx17oK+Wd5ofy2KEfF0oZY9cmkCPlgTKDcFeYttwS7yTV+h+Qyr33yWvdd8irXF+S/XP5tygfKjsSIEP8gDkKo+0JKtBIWITTuqy6V8JZGSe9uV+6wcJ0FN/CbWFiQheVlMzUBw5S1fKhf9laXyneOJus2d0K7/XZWkjKUMMyFb7IgFOE0AoOPecGpbvlxTqpAeUenvsB9p8AFkoKZsRm81n2nykx7pe9+Zfp8oKZUOicnVBZbjdXP3ZyQABKtPBgfKpd771cDEQxG+DAXg3dH+MpzRTnS8/8FVW4kQAIkQAIk4KgEsns75ae5acp6SK+xCqyXfpybJlk9HY6K0bTXBVuu/tkZQZw1xMVGqKQf5aYqqzWMhVB3r/faKxd77Fahey702KXCJ2GOhHnsa1x3yKtdX5BXu+5Qwtt5JhXe1gqGuA6Ica95cb5+vttOucBjl+D6wQLzeQiP98UFK9EILq4hTfUqfh0XcLfWHZI7WlSCyqt9D+g2b0L9XeGzT3ZWHd9aIQ3wK4pwG1QCLKUmFuYlv69bdlQWyxdTYuRtoZ6CjJwU3owtvJ2rfvBHc73/IflIbJCKJxDcVK9WPLByxI0E1hKAifNHY4PlEs89plwBXDsQccb3iA35m2NHuWq/tnHzPQmQgOEIIHYRrPRhhdGpAo1Pc7HQcLVkvAJhroJxLCycYO2D2Mh6/d9j4ntXuLe41FXI3PIy420ZoDnAuye+vVmeK85RnhuItQYX0bsjfeUtIe5nxDfvvWre6ijCmjXb93muLyhBDp5tNwe5KUMbCHKfOxItP8xJVR4x3g3VKgYeFuenFhcErr3c1ieQ2N6sLODe4L1Pt3sRBONLvXbLvyuK1y+Iwb+hCHeOCsJACBlgkOEFDemZwqPygegA9cdGyzfziW9rBTkMIhBrACbJCCRaeKpHZVFlFp1zdAYn/oginDndD1YPzijCOXEH5qWTgIEIwFVs+fSKIFA4PCsgtCEeUf3okCDzHwKdW+IzuddXKjf6oz2djGNroDo0alEgwMGF7pcFmUpM0NN9EMdG8rmn8jNVkP65pSWjYnGaciGzKCz+ETMN1myrx0B8vb1xLJIt3hTkquKL/zg3VXZVlUhUywllnNMwOiz9s9Nq4cRpGpvGC6UIpw0URbhzcMIfGgS4f5UXnY37BuFmrZjD9+YV5CCmXuy5W8UJ+EYGsqieUKsbzKJzjg7hpB9RhNve4MUIgz+KcE7aeXnZJGAwAhhbQICD8AbvitCmetlZWayEk6+kxamFXkz2kFQKE78PxwbJ8+VF0kdXeoPVpPGKA5c5BNZ/ODFcYNWj938vzvGJxHDxPVEjQ3MzxgPiZCWCWI9YfW/0Pah73evdtox2fIsrK+b7EJ/hGXOV7wH5SGywIOYwLBBhicgY4y/vdBThXs5jvXcU4daQwQApsqVRfpKXJu+P9pcrfPar2G8U3MwruG1Ud4gHcHOQq3zmSJRKdY1sLowBsKZTOOlbinAU4Zy06fOySYAENkkA2fWQvAtjyNKBUyoIemhzgxyuq5B/lBXKr45lyXePHpHH0uNU9j64O70n0lduD/GQGwJcBG47mORZ3MXuifQTZClEtktuJLAeAYi7LRNj8t2jycqVzlYiBrJUPpGVrCzwuHi9Xu3Y5nOIcD/KSVXikK3q31nPAwEabpDQBhCe6sGEUHniaLK6V0e0nJCakUFlvezs7qoU4bT1fYpwIgI3RGRBQefxqK9SwQQRwBKBGzcScPid4whzr/faI3eFecnvi3NV5ickblhYYaw4bbcRx9yLIhxFOMds2bwqEiCBrRI4E3/rTNy26uEBwcJdTm+XJHe2KhfSvVUl8ofjeSqW0OdTYuRDMUHy1hAPucJ7vwoMfp6LNkslinBbrSHn+h2EX7gxo73AY8dW4ggE4/dE+qmsknCv5mY/AhTh7DtWheXyrcHu8qXUWGXMEdN6UsoHT0nfzJTMLy85pZUcRTht9wOKcCIq/lvlUL8y531HuI/KlsLYb44jsGkRS89336ksHuEKAqs4z4YqGZidEcRx4eacBCjC2XdgY43JBN1RnbPv8qpJQC8CiyvL0j8zLbBy+35OijycFC5vD/NWrmCXeu6Ri17MuodEUBhXICMfsg1aLNy03tcowulVg4513IqhfvlH+TG5PuCwTVxRLe0XFkHX+R9WFkCIacjNfgQowtl3rIqFFdzjkXUVghy8q76bfUQiWxvVfwX+M5xtowinrcadWoRbXFlRwXFDmxrkO1nJggnb5T7MfKpFtHLUfSC+3hBwWB5KCJM/Hs8TpHyfXlpkBiht9xOH2osinH0HNpbB/naeKcI5VJfkxZCA3QkgED0y5P3f8Ty5JchNJXm61GvPpqzctNzTKMLZvaoNXwAsEUMMfighVF7nZfss7hCdPxYfIiFNDU5p7WOUBkIRzjhjVSy2wCIVQtwD8SGCZA5udZVyvL9PedwhOY8zbBThtNWy04pwcD9FZpPAk3XytfR4udr3gOo4jiou8bo2Z9mHQfWdYV4qjktmd7vKnkr3VG03FUfZiyKccQY2Wiat59qHIpyj9EZeBwkYg8Ds8pJUDQ3I97NTdHX9owhnjPo2aimWTq8ob42/lBbIG30P2CUrJqw8r/TZL38qyVdlQZm42Z4ARThjjlVf7bZDxfqEUP27ohyJbWuSupEhFTvU0b2sKMJpuw84rQhXOTQg/64oVtZvWEGi++nmRCpHF/Us7qnX+R+SR5MjJKWzVQ0ytHUr7uUIBCjCGXNgcy6xbb3PKMI5Qk/kNZCAcQhQhDNOXThzSSYW5iW9q02+mh4nr7JBRtT1/mNh+fNYWpxKRALjBm62J0ARzrhjVfQPzJdh2IFEDr8/nivHTvWIo8vVFOG03QecToTDnwRcDJ8rypH3RvmpdPAU4CjArScqInsq3FM/eyRKXOoqlBvK3PKStt7FvUxNgCKccQc2600I1n5OEc7UXZCFJwHDEaAIZ7gqccoC9UxPyh+O58q7Inx0tchc+596rvfvjPBRc6ru6UmnrAt7XzRFOOOPVSGUYz6JMenXM+Jlb3WpIJ7j2MK8vZuPLuenCKcNq9OIcEih3TszpbIIPX0sS+6O9GXmUzeKb+uJb6s/h0iLYJuPJIXLwZoyqRkeVL792roY9zIrAYpwxh/YnGtCsPozinBm7X0sNwkYkwBFOGPWizOVamZpUUoG+uQTieFyufc+u4twb/DeJw/Gh6pMwTNLXKS2dVukCGeusSr6C4yA/lySLyldbdI5NSGOFu6IIpy2u4BTiHBnUsovS0RLo3w+JVqu8TuoMmGuFlr4moLcRm0A7qlYxbgjzEv+VV4kcGfm5tgEKMKZa2CzWnyzvKYI59h9lFdHArYmQBHO1sR5vrUE2ibGxaexRm4Octt01l3Lf6M1n+Fyd1Ogq3g31kjrxNja4vK9zgQowplrrIr+gniKl3jukU8lR4pXY7UMzs3q3Epse3iKcNp4O7wItwwLuOkp8W6oVrET3hzoolLIbyS48DsKcudqAxDiLvPeK++N8pdnCo8qq0rE5eDmmAQowplrYHOuSQVFOMfsm7wqErAXAYpw9iLP81oIIEbxtzIT5Qqf/Xa3grP878Ii7/HMREnparUUk882IkARzpxjVYhx1/ofUhmGYRWX19cts0tLAs89s28U4bTVoMOKcMg8srSyolZlwpob5NPJkSq217nEFX5G0W2zbeCd4T7yVH6G5Pd1y7CDrWBou3U4/l4U4cw5sLFMCvBMEc7x+ymvkARsSYAinC1p81yrCWByPrmwIPuqS+WtIR5ygfsuw4hwKAvKhFhXk4sLsrzi6KHnV9eMfV9ThDP3WPVCj13y9jBveaYwW8Ws75+ZNr17KkU4bfcEhxXh8AcwuTAvng1V8qGYQBU34bXuOxkHjnHgrNIGMOB4U4CL/Dw/Q3J6u7T1Nu5lKgIU4cw9sKEIZ6ruxsKSgCkIUIQzRTU5ZCGRFKx+dEh+nJsqr3bdIefZMSvq6sUuvEZZUKYf5aRK7fCgsuhxyEow4EVRhDP3WPVM33lBrvE7JI8mRahMw4OzMwZsadqLRBFOGyuHFOEWV1akY3JcrRZ9KjlCrvY7IFCaN2vtxP1pIbdRG0CyhjtCPZUQB/eAcbqmarvrmGQvinDmHthQhDNJR2MxScBEBCjCmaiyHKyog3Mz4lJXIffHhRjGAm6tGHdfXLAcqi2XAZOLCGZqOhThzD9WRT+CodB1/oflM0eixKuhWpABeWF52UxN8WxZKcKdRbHhC4cT4WAB1zIxJoEn6+T+uGB5o+8Bim+0ftO1DdwV7i0/y09Xrqkj83Mbdjh+aR4CFOHMP7ChO6p5+htLSgJmIEARzgy15HhlxGS8fnRYvpGRoLww1opfRnl/Q4CLfD09QepGhkzvUmeWVkQRzvxjVUv/fZXrC8poCEkkoWMgc+q8CYU4inDa7h4OJcIhXgKCGvo01MhHYoOUC+r5FKB0FaA2shRzlu/gmoqEH78syJS8Prqmarv1GH8vinDmH9hQhDN+P2MJScBMBCjCmam2HKesiD18pLNV3hbqKa82kBuqRTywPL/K5d9ye4iHJHW0yNCcuV3qzNJ6KMKZf6xq6T94hnvqpV575P3R/hLb1iR9M1NmaYpny0kR7iyKDV84jAiHLKh9M9PiXl8pX0iJkf/xO0gXVAqQNhMgccN8e7iXypqaf6pbphYXN+x4/NL4BCjCmX9gQxHO+P2MJSQBMxGgCGem2nKcshb398rvi3NV3KjVE3Yjvsb867niHCnq73WcCjDwldhLhIOhxcWeu+UN3vuU19n1AYflpkBXlaADHkLvifST90b5n318IDpAxWi/Ly5E4La8+gEX648nhskjSRHyaHKkPJIULg8lhMlHY4PVb94f5a+O945wH7kzzEudA+e61u/QiwY3OwVWZEbsD1spE4T2K333y6eSI8WnsUZOzUwLQm2ZZaMIp62mHEaE656alJi2k/JoUqTyqXYWKyxep7Hi1t0T6Se/K86RyuEBlSFKWzfkXkYkYCsRDnEgrvDZL7cEuamBBTKM8WEdBoitsaPyuBrAGLGNsUwkQALmIkARzlz1ZfbSnj59WhZXlpVrGkSLSz33GF5owKL0R+OCJeBknRIOTstps1eDoctvSxHu5iA3JZZ9MilCPnckWh5Li5NvZSXJ97KPyE9y05RH0G+LcuSPx/PkH2WF8nx50dnHCxXFsqe6VPbXlMmBNY+DNeXiVlepYqFBdPJurBbXugq17+6qEsFv/1F2TP5Ukq/EaJzjlwVZ8uPcNPnfrCSB++bDieEqXuIHYwKVYHdXmPcZsS7ITYnXr/faq+KunedijgVmiIoXe+yWx9LjJbr1pAzNzcryaXMIcRThtN0yHEKEgxtqVOsJ+eyRKKXG0wXVWMKUMwmFF7jvlNtC3GVX1XGpHRnS1gu5lyEJ2EqEu8b/kFrte6bwqPyttIAPKzJwq6+UjO4OmWDSFEP2MRaKBMxGgCKc2WrM3OWFlw+SfkHUuMRzjymsfZR44Llb/u94nozOzwmugZt+BGwpwiHsDoxeJhYWZHpxUWaWzjxwX0Q4KDyQxRcPxDJb/4HvX3osrCyrGIKIfXj2sfKfv7ccG8+W86EMk4sL0js9JbUjg5Ld2ykRLSdUEpO/lhbIk/kZ8uW0OCXMXe13UOAyvRXrNHv8Bq6pV/jsU5aBZYOn1DXr15Ksd2SKcNpYml6Ew58T4iT8IDtFBSu9iFlQbeaC6Uzi2mau9TLvvXJvTIDsqjwuLeOjpgyqqe324dh72UqEuz3UU36QkyKZ3e1SMzzIhxUZNI2Pms6M37F7Fa+OBMxNgCKcuevPbKXHAlJ6d7t8LT1exYLDpNweYsBmzokywp3uq+nxktrVpgQbs3E3U3ltKcLBJRriF4xfjLShNBDyIMYNzs5I19SkYPxXMzIoJYN9ktPbJYkdzRLcVC8Ha8rkjyV58kRWsnwsPlRuDHRVAvdm2rgt9z3ffafcFOQqzxRmS8GpHiNhX7csFPoAC2wAACAASURBVOHWRfOyL0wtwkGAOz7QJz/LSxfE/tmMUMJ9aS2nVxvADRMWcY8mRYh3Q7VaNTKTL//L7hBO/MZWIty7InzkD8fzVDpyJ8bNSycBEiABwxOgCGf4KnKYAsKNs2d6Uv5ckq+seGw58bfGue6O8FXugz3TU3RI1bFV2lKEg0Xm0sqKwE3ajBvKDu0A4/uUzlaBG+xT+RnyhdQYQcy6W4Pd5XKf/YYTvC903yXvCPeWHZXF0j09afj4cBThtPUOU4tw5YOn5O9lx+TmIFdBhkq9RBUel4LdVtrAZV575cOxQZLZ0yEjc3PaeiT3MgwBinCGqQoWhARIgAQMQYAinCGqwSkKgfhP9aND8mBCqFzmvc/wFnBrhTvE4HogPlTqRobokqpji6UItzm4EBBhyQdBDi6xsOzrmByXtK42ea4oRxBTDgknjJTowWJd+mhyhIoPOTJv7DklRThtbdKUIhz8xWFquqe6RN4X7S+40W9FJOFvKK7p2QZgDXed/yF5PDNR4tublFuqOdeOtN1MHG0vinCOVqO8HhIgARLYHgGKcNvjx19rJ9A5NSFBTXXytlBPNcdZK3IZ/f1/u+2U20M8VYKGjskJ7RfOPTdFgCLcpnCdc2fEmOufmZaKwX5J7GiR/TWlKtnEuyN85UKPXYYR5JCB9itpscoLcGpx8ZzXYoQPKcJpqwXTiXBQrpGqN7S5QWVDQeeA+5+eYgqPTbFuq20AJsQQ4p4uyBRYbiKQKTdzEKAIZ456YilJgARIwFYEKMLZijTPk9PbKT/Pz1AJ54wuuK1Xvqt8D8hP89JVsHzWqD4EKMJZlyt0BsSVg2XcX0oLBJlg7wj1kjd47xN7Z1aFdR5i2CG7bOPYsHUv3IpHowinDabpRLipxQUpOtUrn0gIk6t89lN8c6NAtlWBzFa/Q7ZexP1C9kv48nMzBwGKcOaoJ5aSBEiABGxFgCKcrUjzPJ4NVfKOcB/BYu56IpfRP4ehxJ1hnuLRUMUK1YkARTjrg4XXkiV+XPXwgPyt7JjcGxNoiFhxr/PaIw8lhEl4S6P1L9xKR6QIpw2kqUQ4+HEj9TBWhm4OchNmQqUAZyshbbvnQYppxIfzP1ErrRNj2non97IrAYpwdsXPk5MACZCA4QhQhDNclThcgRCnqn1yXJ4tylax4JBpVA+x7UKP3fI6r71KWNDj+Dgmyo6QQb8pPKrGvvPLyw5XX/a+IIpw+tXA8unTggzFNcODygPvV8eylFGFPWM0Yj76P34H5XfFudIyPqZCHelHYGtHpginjZtpRDikHu6cnJDnywvljlBPucRzN63gaAVnqjbwRt8D8o30eIlta5LppUXDpfjWdstwnr0owjlPXfNKSYAESEALAYpwWihxn+0QGJufl7i2JhVyRy9xDG51iDX3YEKYcrPTOwj9Z49ESUxbk4waPKD8durNXr+lCGcb8mi7JQN9KlvxJxLD5Vr/Q2oOqlcffaXjwk02uKlehudmbQNgE2ehCKcNlmlEODQyvxM18mhShLzWfSfjwFGAM5UAh5ULtNvXe+0RrKQ0jY8acvVC223DOfaiCOcc9cyrJAESIAGtBCjCaSXF/bZKoGtqQp4+lqkMDl5pIr6V7y2ZFn+Yk6Jc2u4M81Jzqq0cS+tvIPg9lZ8huDZu1iVAEc66PNc72mk5k1F1ZmlRoltPqgQJiBOntQ9Ye79r/Q7JY2lx0mJA7yqKcOu1opd/bgoRDqtC+X3dqsG/OdDFdOLLdl0Z+XvHcbuFEHdvdID8o7xQDUZWhPlSX35LMs47inDGqQuWhARIgASMQIAinBFqwXHLAC+Jov5e+VhciFzmvVeXCT5izL0j3FsO1pZLzcigfD87RW4NdtflXBbhAS6p98eHSGF/ryC2NzfrEaAIZz2WWo6EWVv31KQkd7So8FiI22iPhA2It3h3hK8kdjTL4NyMlqLbbB+KcNpQG16EQ2NHVsl/lhfKTYGuypqIotTWRCkkCLjAfacgqOOVPvv58NkvV/jsVzxwM7NVuwL7j8WHSHJniwzMGuvGqe224Rx7UYRzjnrmVZIACZCAVgIU4bSS4n5bIYCYwV4N1Wq+o9fEHmNQCG8Z3e3Klc23sUbgXmcRzPR4hvUdsjp61FcZ0nJnK3VllN9QhLNPTUwuLgjY/yI/U24L8ZAL7JBABS6xfystkIqhfvtAWOesFOHWAbPmY0OLcEjEsLi8LK51lfL2MC+51HOPzYQSWwkytjwPrLAgwN0c7Cb3RPrxEemnAmzeFOiiYmLYqi7Od98p1/kfkp8xbfua25Gx3lKEM1Z9sDQkQAIkYG8CFOHsXQOOff7Uzjb5dlaSWiDWQwzDMW8KcpXAk3UqzjYSJUD4ezI/Q/SOC4dF78czEyWls9WxK9HGV0cRzsbAXzwdNAokboB153NFOSpZgl59dr3jwsL00eRIiWo9YR8I65yVItw6YNZ8bGgRDhlJ0rva5YmsJLnce59SmW0llDjieS732ScPJ4bLP8oKJaG92ekfLrUV8pPcNHlriLsSJ21Z5xCUEYfjhYpi6Z2eksWVlTVdk2/tTYAinL1rgOcnARIgAWMRoAhnrPpwlNKsnD4tc8tLcrCmTG7X0aoGQtjDiREqwDxiW+G8cIHdV10qb9XxvBARYCl0W4i77K8pldmlJSYns1LjpQhnJZBbPAxi1uf0dskTWcm6u3WvFePOd9spNwS4yI7K48rNG/3ZCBtFOG21YFgRDtlQT46NqBTd747wpQXcNhMxwBX1xiBX+VvpMfXnC9HHGR9Y9UOGG8TBgAn+d48mC+IMXmRDd1SL2AfLxK+kxUl8+5mMUVhV4WYcAhThjFMXLAkJkAAJGIEARTgj1ILjlWFuaUkl7ELyAohVelmlIRYcrHZ6pqdeBjGpo0W+lh6vDB7WTvSt9R7utZiLPJmfLhhfQXTktn0CFOG2z3C7R8C8MrKlUc3pLvXaI6923aGre7elT57n8oK8xm2H/Dg3VepHh5S4vd1rscbvKcJpo2hYEW5wdkbwp/CuCB+7CCQWocRRnhEL7p3h3pLR3SHD83NOKcBBdIQPf+3woDxbmC3vjfIXxIKDGGaver4x0EUez0yQ5vFRrgpqu2fZbC+KcDZDzRORAAmQgCkIUIQzRTWZrpAj83PKRfSTSRG6Tt6x8Jva1SbjC/MvYwSjh8O15fKmABddzw/x4BMJYeJ3olbFo3tZIfhmSwQowm0Jm1V/BAs0GHkcqi0XZAK2dXy4h5PCxe9EjWH6FEU4bc3LsCJcZk+H/CAnRRB0ECsn9hJJHOW8twS5KbfeupEhmVlacjoRbmpxUa28eTdWy7cyE5W4e5XvAbu3K8Toe0+krxqQIC4HN+MQoAhnnLpgSUiABEjACAQowhmhFhyrDPCBaJ8clx/lpsqtwW66iGCvdn1BxT7+fXGu9ExP/kcIFIT/yevrlg/HBqn42xZLGz2ebw5yk+8ePaJi0RnFfc7MLYoinDFqD/24bPCU/LW0QInZtrKGQx9FhtbfnsPC1V5kKMJpI284EW5pZUVgBbez8rhSky/x3G13ocQRhLiHEsLEpa7ibPwxZ3FFxcoEYq4dO9Uj+2pK5TPJkXKFii9oP+u3te3par+D8r9ZScryc3FlWU4L3VK13b703YsinL58eXQSIAESMBsBinBmqzHjl3diYUFye7vk3ugAucRzjy4i3MUeu+UD0QFqwXc94atjckK5tb0l2F2XMlgEvQvdd8n7ogJUZsm1FnnGry3jlZAinHHqBH05v69bxV+/0ueArv3I0p/wfLXvQflCSowK47Ve/7YlJYpw2mgbToTDagzSZn8jI8GuboJrhRKzv/9RTqrUDA/K5MKC01jBLSwvy/TiosrE9JO8NBUTD+6nRrOshKswhLi/lx2TsYU5lW1HW/flXnoSoAinJ10emwRIgATMR4AinPnqzOglbhgdlv01Zcp65jzXF3SZuP+P30EVhqWov3ddHHCJDW6qF71dYiEa3BBwWHZXlQi8c7htjwBFuO3xs+avEdu7b2Zanq8okvdHB+jSl1eLb5bXr3HdIe+K8JXywf7/sHK15vVpPRZFOG2kDCXCIdVv28S4PH0sU+4K86IFnBXccLGqBv90/Nkhg8vc8rJTiHC41oqhfpV99EupsSrbFDKSGlFMhSiIxBBfTouVqJYTMrYmVoe2rsy9rE2AIpy1ifJ4JEACJGBuAhThzF1/Rix9QnuzYJz6Bu99ukzaMe59e5i3xLSelFMz0+sisCSH+EVBplzksVu35BAQDi7z2qssd+LamtYtD7/QRoAinDZOttoL2YYhdn/naLKacyIhiUUs0+sZ57g1yF0iW05I35qkK7a67tXnoQi3msb6rw0lwg3NzSqrpQ/GBMhl3nsNKZgYUcTZqExX+x5QVoWJHS1OIb7B8g0m9SmdrfK3smPy/qgAMULst43qyPLdHaGe8rO8M1mj4C7Mzb4EKMLZl7+znx0uBcgeB+twLCr0z06rWD6dUxPSNjkuTeMj0jg2rCwJYOVcPTwg1ep5UCqH+qVyeEA9qoYGlBU0LA5gcdE4OqxcFhCDsmtqQh0Xmb2mFhcE1sN0hjd3y0O7QXZ5S7vBpLtralLFX8I9rXFsRLUZS3tBW8GCVdWL7QeZw+tHh1Vbwf4t46Pq9zgO2iGOi3aJRVNnDJ1AEc7c/cNIpUdfxX0Xi+SIk4YkYXpM0mEFB1c1ZE9EyJ/1Ntz78R+A4PK36xxcHtd6U6Cb7KoqUR46yxuUa73y8vMzBCjCGaslLJ9eEbilIqwW2rhe/XrtveI6/0Pyr/IiNRa0NxGKcNpqwFAiXHF/r/yuOEeZKZ9vx4yVFlHEEZ7xx+5aX6mSEjh6HLiFlRW1ygdz+i+mxighF66eRnM/Xa9doaxIH4/MVXAL4GZfAhTh7Mvfmc9uEeD6ZqakdmRI8nq7VczIsOYG8WmskYM1ZcrK908l+fJMYbbAcuHJ/Awl4v80L11+mJMq38s+oh4/yU1T3//m2FFBUO4/l+TL8+WFyv0p4GStJHe2qFXbpvFRJbJsNElz5joxy7UjDiri6qLd5PZ1CSxNkDVtX3Wp/L2sUP5Yki+/KcyWJ/POtBe0FQRJ/3FumqDt/Dw/QwV4/kNxrgowjd/h9/HtTZLX1yW1I4NKDJ5ZWhRMNpxtowjnbDWu3/VCzMY4A/foV+nkhoqJ+gdjApUgsJEV3OqrxBgUcYqv8NmviyhoEQ9wzbjvYHEILLhtjQBFuK1x0/NXcEtN6miRr6bFyeU6Wbha+pHlGTHo8F+e3tWu56VpOjZFOE2YxBAinGX1BZML/FnQCs462WDxB/qx+BAV8BWijqOKcHCxHZ6fk5SuNnmuOEc+nhAmbw50MV1MQQjPiJPxbFG2FJ7q0daDuZduBCjC6YbWqQ+8dHpFiV0nx0aU+HWks1UCT9YpUewvpQXydEGmygz+zYwE+VJqjHw6OVI+kRiu7uXIXIfg2vdE+qkMz28P81LhBt4a4iEIpn3m4SHIho0FGDxuDXYXfI+wBHeGecld4d7yznAfeU+kn/q/xX/EI0kR8rmUaHksLU6eOJosvzqWJf+qKFKCX3Jnq8r41T01qWJsOnXlGeDi1XhpZVkJYaWDp5TI5l5fKf8sL5RfFx5VwutX0uLk08lR6r/wvrhgFfAd9Y0ManBLuz3E82x7sbQVtJO3BHvIbSEeckeo15m2Euat2gkCxuM4aIdoj3CdQ9xeZLD/ZUGmQAzGqr97fZVEtp6Qo72dyrKuZ3pKWfpgQuIoG0U4R6lJ+1/H0NyMeDdWq35qmUhb8xnx5ZAVFfd0uMfBTU7L1jIxJh4NVXJjoIvo7Ur3YHyoeDZUCTyhuG2NAEW4rXHT+1ewKn+hslhgoWbNfr3esV7ntUclhIhoadT70l7x+BThXhGR2sEQIhxWbpvGRuXXx7Lkcu/9coH7LrqiWiEeHCZcvyjIUHH2HFWAg7gI95qo1hMqq9PtoR5i5oy6EKA/FBMoXg1VAksDWMRwsw8BinD24e4IZ4VLD9z2YHkAt0+4i8LSG+JEfHuzeDdUy78riuQ3hUdV3JDPHImSe2MC5bYQd5WkRe94POsN4jDhgqUuwhi8M8JHDegwgYOFOqzvcJ9F5i+4tiLrNCZ1vEfp22JhmTi1uKhcQuFunN3TqWI7Ha4tl+eKcgRi7QPxoUpcg9sZ2s569WvNz9FWcK43+h5QQu/dEX7yQEKoQACERd2fSvKUW1tIU71AaM7p7ZKSgT5lSYfYv4NzM6b8j7OVCIcg278tylG8YNnoKA+0ZbRpRxJmt3IHgDt38/ioErIhhFuzb1qOhXv5tf6H5PnyIhmbn9ec9Av3dSwEfzQuWF7ntVeXslnKeEuwu1o4AAsw4bZ5AhThNs/MFr/APTuxo1kQaug1bjt07UfoT/g/xgKrV0O1LS5vw3NQhNsQz9kvDSHCYQUEq0GPJIUL3VCtYwWHP1+4ZCIQK24EjirCYaXhQE2ZWq1HUFuztx9LkgZYw7RPjss8TfTP3qxs/YIinK2JO8b5MI3A4gCEKgzA9leXKmuhz6fEKGHrSt/9gizNZ9zSd6rBGawV4JoDYUNvywPL5Gej5/NczpQH5cLgEWXFvfV6/8PKIgousBDkMHHCIho3/QggoznuRQEn6+Rn+enKEvJK3wNnFytRP6923XG2/WxUr3p8h7aCNov2i3KsbTNIDnWt/2EVnxUCHYTnQzXlktHdbsr/OFuJcLcFuysLJlg1ZPV0OMwDMSkRu9fZxXssshb298q7I3zVvVWPvvl6r73yqeRIda/erOiJ2KNwTUdsOD3KZjkm/lveFe6rWIAJt80ToAi3eWa2+AXucfUjQ3JfXIjgf9DS5vV6Rl+61u+Q7K0utcXlbXgOinAb4jn7pd1FOKx8IBbNt7OS5JZgN1rAWcECDrHFLvfeq9KRw6wcAx5HEuHwR40BAmK/IZEB0kBf5QsLyp0O0X4gxD2SGC6+J2qU29rZ3soXNiVAEc6muE15MghQSJhQ1N8jiNcGl7yn8jOUdRLc9u6PC1Guo3AHvc7/sGBShIGSEYS2rQwEYaV+lc8B5dr6kdgg+XJqrPz62FG1iAZLv9G5OVozWKElIxZg/qluOVhbJk8VZChXYYTqgLsx4suoNqRjDKmttI31fgNxDoGp4eVwQ4CLajvvjfKXBxNClVvrj3JTVew538YaZS13ZvHJuAlCbCXCwQIJY2L0s4cSwhzmsaeqRImvSB7izBuSJGCyfGOgq27x4OAG90JF8ZYCtSNZT0TLCeXWvl7ftsbn+C98c4CLYgEm3DZPgCLc5pnZ6hftE+MqRq9e1q6r+yD+a2EN9/eyY2rOv1nh3ZpMKMJpo2l3EQ4xEVK6WuU9kb6mdiPEoNgoD0z03hvlJx71VTK7tCRIWOAIIhwCtw7MziiXFsSQwAQQNzajcLdmOd4S7CbfO5qsshgihhQ32xOgCGd75mY5IxYCYIULNzvE43qm8KgSFOCSh+C457vpk+Vu9YDLCK9hHQdxEbHCEMsSse3y+rqVhRxcmpjxTnuLnlhckJbxMeXu691Yo5JpIAYgXEzNKtq+UhuF1Rzi2Nwe4qEWnp7MS5e91SXKgj+3t0uF0kDMVyNZTdlKhHsldmb9/gfZKcrFFmNTZ90wOU5ob5bH0uMEHhx61CUm45gHZHR3CAS1zW5YYGoeH5Onj2WpuRkm+HqUE8cEA7BI7GhxejflzdYT9qcItxVqtvkNQpIgYyli+erVf1YfF2OFZwuzVZ+3p3s3RTht7cvuIlzpQJ/K1vamABeHFFOsKcxoPRZWvxAsObu30yHEN4uAiJgWhad65Rf5mXJjgIsy7zW7++l6dQp3tXeF+0h2b5dKda2tO3MvaxKgCGdNmo5zLLibwloHGUkR6N7iWnrWpVTHycrqwZZRXmPQBzdEWDtd4bNPJXnYXVWihDhmvNPW7iEyId7b/poyZSGGOE6vsaOLqS3bFoLHn2lDL6hrhrXl1b4HlRXp4doK6ZmaUuMYbST134si3L+3NZl0dhEOAhwmx7AIxFgdY0A9+hss7OBh1DY5vmVhC/91LnUVKrEP+qUe5cQxwQAsYBnIJefN38Mowm2ema1+MTw3K/4na1V8Xb36z9rjItsyPAzn7LjQQRFOWwuzqwiHgSeC9iI7zhu8z7jprCdK8HNtlnaYECJjXmhTvXRMjptehIMVH1ZMK4b61WDgq+lxcmeol1zqucd02U8304bhkopB1D/KC9W1a+vO3MuaBCjCWZOmYx0LAxwkU7jK94DDWimtHdi90nsIKbjHwXILmTi/npGgJpqF/T0qSQVDbv9nH8AAHckKIFo+npmouCHRAQTNV+LtqN+jHcGSFG7Pfy7JVzFtEcjfKBtFOIpw22mLGM/CihrJSzBe18vCDC7MCNAOb6PtbOld7Sp50JU++3W7J4EBWPw0N83prSS3UlcU4bZCzTa/QYKutK42Zelpq//sb2clq0RgCEVlr40inDbydhPh4GIH18K/lhbINX4H5UJmRLWKJSBWkz6fGi2VQwMqc53FisyMz8ii1TM9KTm9nfJ8eaE8nBQuGAhAoNqMoGXWfa/w2S+PJkequBxw67Knf7+224lj7UURzrHq05pXAxEOLpjIZmyrgZWZzoNJ1cWeuwVxzJDEIabtpEouADdeI7kWWrNNaD0WxEhMxNGGoltPyHPFOfK+6AAV681MdaxnWS2T8j+V5MvU4oKh2gxFOIpwWvv6ufaD8O7TWCMfTwjT5b8DIvYFHrvkJ3lpyrp2u26/SL6DkAs3B7npJhha7iX4T/U7UctYyOdqOBt8RhFuAzh2/gr9D1bu389O0aW/W/rO6uevpsdLZneHWvy01+VThNNG3m4i3OTiguT2dcm3shLVqqdZhRKjlRuTnucriqR7etL0VnC901OS2tkmX0yJlhsDXRwm8YLWNgPzfwhx/ywrVJM2Z5+8arulWW8vinDWY+loR4KLzzcyElS20NWDH75++QQdYsolnrvlrnBv+XdFsbLOdvaA7HBF65qaVAHTPxIbrMY/4IQso2w/Z9qPysQbcFj2GSDL29p7F0W4l/fxzbZZZ3dHRSiD72Yny02Brrr09/9226ncuZEkaOn06W0v3sIbpXTglNwT5S+v1dElFe0IQh/Eio7JibXdju83IEARbgM4dv4KBjCIC/d0QZYu/f1c998vpcZKUkeLjC/M2+3qKcJpQ283EQ6NckdlsSDwsFZRgvttbAH2Wrcd8q3MRBULDoFYzWj9hjKPzc8JXJj+XVGk0qu/OdBFLvXa43TtBC45MNHHoOT4QJ/KcqutW3MvaxCgCGcNio55DIgoyIL6tlBPmw2szjXYMsNniBeH4Pv3RPopF6zkzlbpnpp0zIaxwVXBpXJoblZi206qrN7IEKqni5cZ2sZ6ZbzEc4/cGx0oASfrNiBqn68owlGE22rLw6Q4u6dT7o0JlIs9duvy33GZ9z757JFoiWlrEmuEAMDib+vEmMrweGuwuy5lttwHsGDzoZggQVIWuPFx00aAIpw2TvbYa/n0iorr/duiHF37jqUP4fmzR6IkuvWkjNmxD1GE09ba7CLCwRW1cWxYvpYeJxBYKK5tLK5p4XORxy65PuCw/K3smPTPzijLKTOJcAvLy0pkguk7Jmm/P56rBFoMVCBGaWHgqPs8mBCq4uENzm4vtoe2WwL3shCgCGchwee1BPpmptS9FkLK6sEPX68/QUeiAYRL+F72EQltblDJLZzFKg5uuG0TYxLe3KiCpeO/GtZebC/nbi+X++yXr6bFqdX8tX3P3u8pwp27zrS2ZWe2hGscHZYDNWXypkAXXfo+rGmv9z+swrdUDQ9Yratg8cCzoUrF79Zaz1vdD3NCJGQ5OTZitfI7+oEowhm3hiGEI9Pw/x3Ps1n84EeTIySkuV5GtpAV2VokKcJpI2kXEQ4rHMjc+Y5wb3mtkwss1hKO4Lb4cGKYhDU3CMzHzSTAoazwmz81O61iTzyUECpX+e536MQLm6n3m4Nc5YmjyWrSqq1bcy9rEKAIZw2KjnmMwbkZJYx/LD5Ul8nUVicwRv+dJQsm4iF51FcpyzDHbCEvvyq4VwU31ct7InyVey44GL2u7Fk+JPd4tihbCk/1vBykAd5RhNte23VmES6xo1kFaH+D9z5d+v+rXF6QO0I95WiPdeNBYXxeOzwoqDu97wuXe++Tr6fHS3JHiwF6uzmKQBHO2PUEIe4vpQXyKhv9738iMczusRUpwmlrk3YR4ZAZCK6oNwW5qtXgzQgS3PfcVnNvCjgsfy87JmWDp0wnwHVMTSjrt6ePZcl9ccFyrf8h5YbJuj5T16/32isfigmUvL4uQSxFbrYhQBHONpzNeBa4+0e2nlAZUvWelDji8a/2PSjI3gchDv3MUTcINgjKjHh4H40LFky+X+3K2G+v1KbfFOAih2rLDdk2KMJRhNvs/QounbCG3VtdKrcEuemW/RgWtl/LiJeG0WGBx5G1NsSxhCvtv8qL5Lr/b2mnpxUvMkPfFuIh+6vLZG55yVBJWazF09rHoQhnbaLWP94/ywt1zYa8+j/1gfhQZdBiT+8pinDa2pBdRDhUzlfT4+SNvgec2s3QWiLT67z2yvujA9TKEWLtmcEKDua5iP1WOzIk/idq1QrbrcFuKqOetbg40nEQiwPuAC3jo9p6NvfaNgGKcNtG6LAHgBgOa+6vZyTobhmwenDlSK8Ru+hTSZHiWV8lnZMTgpAEjrQhq2f96JC8UFksH4kNkte47WDyBQ2WAHCpe0uwu8S3N4s9JxHrtUWKcBTh1msb630OMQnC2M/y0pWApZclLBKz7ao6Lv2z0+sVZVufh7c0yscTwwRzDr3+i8AGCSB+np+hXFIxV+C2MQGKcBvzMcK3ELAR2xwxcvXqO5bj3h8fIofrKgQeG/baSuacSgAAIABJREFUKMJpI28XEc61rkLeGuKh3DIcSSix17Ugo9D/ZiZJ0/ioaVxRpxYXpWF0SP5Ski8YOCAT6Plu57bysxdXI50X1oEYwOX0dmnr2dxr2wQowm0bocMeQLnnjAzJD3L0d8+xDKwc7fk81xfUgPTRpAgJPFln1/glejRUxDf1aKiS20Lc1WKjo9WfXtcDl7q7wrylfLBfLSjqUTfbOSZFOIpwm20/w3Ozyj0MbmJ69Rsc9/HMRCno6xYsAOixlQz0yR9L8uUav0O6Xgeu5ZNJEcqF355xrfRgqMcxKcLpQdW6x7SlCAePsoM1ZTJgxzjiFOG0tR+binCw0EJA698X5yq3DJgdG0noMGtZHk4MV249fSawgpteXJTWiXEJOFEr3zmaLO+J9JOr/Q6yHbyCAHmZ9xmXVExWudmGAEU423A241kWV5ZVAhxbpp3Xc/Jmz2NjgeFzR6LlSGerbhYctmxjsOhD9tz9NWUqjMClnntsFpDZnvVorXPDZffhpHBBEHu48RltowhHEW4zbRItuG1iXC3YwBXVWv1k9XFgZYtMy38uyVfWo8jErMfWPzOtsjsjKzjOuboM1n4Nl9Sf5qUL4mly25gARbiN+RjhW4SLQpJBvaxgV/c/JPOzd8xdinDaWp1NRTiszuT1dcu3MhMpuryC6KJFEISI+TqvPcpCqnJoQKVBNqorKiYmfdNTUtTfK4dry+WLKTFyte8Bxn7T2A4u9NglCFb9fHmhigtnxMmJtluOefaiCGeeurJ1SdH/YA33p5J8Xd2LVg+sHPU1BqW4tz2Zly4Z3e0qdpJZ728oN1afg07WqXiBiJ1ki0G3I7UNWPYjg2775Litu7Wm81GEowinqaG8uBMS0eX2dsm9MYFyscduXYSrSzz3KI+SgJN1oqdsjcWn2pFBZaWGZHB63newePGR2GA5dqpHN8u+zdSjkfelCGfk2hG1mASB/FU2igcLwxz/k7UCC1x7bRThtJG3qQiHwenBmnL5WFwIRTiN4stGYhz+0G8KdJW91SUyt7xsWFdUZGudW1qSzO52eSo/Q24MdKX4toX6x4Tup3lp0jg2rALWauvi3GurBCjCbZWc8/xuR+VxBtvXEOfrlSZrSFYAa19kxIT4srBizjhA+J+DGyXiJl3uo08GxFdiafbv74n0k7+WFggs+424UYSjCLeZdolxxMHackGyEb36JhLd/LowSwpOdW+maFvat2d6Uv7veJ68K8JHt+uxcMJcARY9LeNjWyqrs/yIIpxxaxqiOOIa/qE4V/f+Yuk3n0qOlNDmBhmhCGfchvFiyWwqwnVMjsuPc1NVPLiNxCV+py02Gtw4YVWY1NFiWAEON4HKoX6VDffLqbECM3ascLGOtdXxWk5fSI2R6NaTMrYwb/ibi9kLSBHO7DWof/ld6ipUEPkLPHbZbIBlGWg50jOsxXCvQ3xQxE5B2IrTBnRFfKUWVXiqR35blK0yv+N6HKmObHUtn0gMF9/GGruu4m9UzxThKMJt1D7Wfpfc2SpfS4+Xy731sRxDoPfbgj0kvLlRemem1p7e6u+RJRVzji+mxuh+f4O13RNHkyWtq83q1+FIB6QIZ9zaRGZhJCF8tjBb9/5i+Y9GeI/Ytia7zhNpCaetTdpMhEO67JrhQbVCfIXPPoowW7CEWi3IXPBiGm9MApF1yWhuqIj91jk1ISmdrQJf+A9EBzAb7jbrHPUPjv8oL1STVG1dnHttlQBFuK2Sc57fBZysVcIR3IEsAyC9n+HSAKtYuKhf5LFLZZSGVTQWN17vtVeQdRTZ61Cmizx2C8IWwNLMDG6Rl3vvk4cSwiSrp0NG5+dM05AQgwkBxGHxcneEr+KudzvQenxkG0X8JrSHq3wPyA0BLkokRMZtJI3AwtidYV5nH3eEeqqFUsRkekuwh7Jcvz7gsHIZxqQYbQttTy/XGggWWd0dKuyCERsARTiKcFraJVzTZ5YWZX91qdwe4qmSj2nts5vZD+IehGssdtvCghjngEHFbwqPquR6emZ7xH0GSVpcaiuUNZGerrZa6tSo+1CEM2rNiMr6jhix8ALbTL/ezr5fSo1VMXYhmNtrowinjbzNRDjERTja06EGephArBaU+HrzVlGIBQergeMDfSpegpFEOMR/G5iZlojWE/JYepy8wWcfs59aQYBDP4F5PjJgtU3QPF/bLW7re1GE2zo7Z/llTNtJ+WxKtBK+tjNo0vpbCGkQ1RC8/jr/w+p+gJAEtwS7KTHlHeHeyk3ojlAvZaH35kBXJbxc7LlbXmUFt1Gt5dzOfkjU8MeSPCkdPGWaZjS9tKjinX77aLLhxE5kG73Ec7dAdEPWtK9nxMsPc1LlFwWZymoPsWr+WX7s7AOLZr8typFnCrMFiUe+n50ij6XFqThQH4oJkreHecu1fodUO9RD2EXIBWSWhQuPETeKcBThtLRLi1iFybdegjXus7jnP1ecI91Tk1qKZZV9YKUMAwAI9XpageP+ggWE3xw7KkgKgZh03P6TAEW4/2RilE8gxFcO98t3jybbTIT7anq8ZNp5IYsinLYWaDMR7uTYiFrNuDnIlQKcFQSZd0b4qJWolokxNVg1ggiHuHRwk8zs6VCTKASHvDHQRWC1d74Vrpli7Q5l6fKR2CApH+o37CRF263H+HtRhDN+Hdm7hEgk8N2jR1Rmus0KT5hgIFvWVT775fZQT7Wo8unkKPlGRoL8KCdVfnUsS2W721l5XA7VlotXY7Ug8DZifUS1nlDuBvHtzRLf3iQJ7c3KRQgZRlO62tTrxI4WiWtrUu7r+I3viRrZV12q4m39oiBDMFD7cGyQsoq60F0/y6bNcoF1H7Jmu9ZVyNTSgiEzZK5ud5iQYgKMOEnvjvC12UB7LVfVntx3qthTH40Llm9nJckfj+cpjqh/tBEMzBHovGSgT8WuqxoeUIHW60eHxPKoGxkSfI5kTxVD/Wqhr6CvW3J6uySju0OSO1oF4nPQyXo5XFehLN1/feyoWhx6MD5UIADDYm6zwgP2x4QeHCcXF2T5tD4ZHlfX3VZeU4SjCKel3SAUS1hzgyA+09q+as33CFGC/wC4vNlyg5fLt7KSVF+35vWsPRbua3B9xf3L1tdoS57bORdFuO3Q0/e3EwsLktrZJl9Ji9P1PrC63yBMFUJjYHHQXhtFOG3kbSbCITvQL/Iz1QoqxZTNW76tZgZLiC+lxaqB8ODsjCFcUeGK0zg2IjFtTcrs9p3hPnKpF2O/ra43a7yGFSnchxI6mmVwbkZbL+deWyJAEW5L2JzqR8j2jFgfyO65ehBkeX2e6wvKYugyr71ynf8h5eZ3d6Svyvr2yaQIZSkMwe33xbmyp6pE/E/USlx7k3LHPD7Qq5KwdE9NyMj8rHJtgtvjVmKlwTVqbnlJZe7Eglhhf48S8iDKQexDvE5YOcFaCi6t/+2285zXY7kuPZ8hxsANCVwgAmEl2cgbrPzz+7rlgfhQZaGoJ5u1x1as3Hcp4e19Uf7yuZRoZeEGF7jkjhaBoIaFMcSlseaGNmhxwYXVGkQ9TJLd6ivVAhyym0JQRnbDu8K95YaAwyqTO/4D116D5T2+u9b/sOoH1i2tNa9cxFYiHFzIL3DfdcbFHG7mDvKABSZCqOB+5Kgb2m/H5IT8siBT4N5taePWfIYbKCxcf30syy7JbDA+gvs9vDMglFnz2tYeC0kg8B9pS2s/M7VNinDGrS1kKA04USePJEXo2kdW9xmMnepHhux6j6UIp61N2kyEi2w9IY8khqtVE2uIEc56DFiUXeyxS7mRIHj17NKSIUQ4DPYP11YIMpvBVYqWb9sTWjdq37Au3F1VInWjQ9p6OffaEgGKcFvC5lQ/qh0Zkp1VxwUxs1YPgiyvIZK80feg3B3hp1ZC4TaEbG+IedY6MSYzi4vKxQYiCYQyywOTOPU4fXpLottGlQABBce2nAtuf/2zMwLLObgfIgYP4n5ZrsFezxBw9laXKuFwo+ux93cQFCBm6pn9cL06wKIMBC6EKAg6WacmqcjQaqnbMzWtL6G17QkWbBiXILspLOd2VZXINzMSlBsr4hWudy1wmX5/tL/4n6zVt8DbPLqtRDjEc4Qoif6IOIOO8kBM25YJ47obb7N5qJ9DoK4aGpB7owN0iw8JgfatIR7Kw2grCzPbvU70cVjbwCvnNa7ri+vr9ffNfP56773yYEKoWujHfxe3lxOgCPdyHkZ61z87reZrWOTcTJvfzr6wTB+am1ULZfZiQRFOG3mbiXBYIX1bqIdaudlIYOB3G4s3l3nvlQ/HBopXQ7VMLS6qoI/2ckXFSmbv9JSyfsOK3/uj/FX8IQwOWI8b1+N2+CBm0pN56ZLT26mtl3OvLRGgCLclbE71o/bJcfE9UausAWChfLXvQbk3JkC56VhcAZG1LrWrTeDSh4kZxLeB2RlB8hqIJfbeUAIIcRBNYHmW2NEs/6ooki+nxQpiyiGcwHYGhFv97TV+h1QZsKKLxE5G3ZAp8KtpcXK5jz7ZD9fyg4UUxKz74kJU7Lbgpnop7O9VwdIxMTZCm0IZIAYijhPuo7AYhas0XKIhwsBSDi6zsA7FfyGuEYt3X0mLVWKwUesa5bKVCId4W3ArCmlqUPcP3EMc4YEF26lF47uZb6cNtk2Oi09jjYrLif66tg9b4729M4dCbG8aH1XZS2ENZ41rWu8YuEfAohDGHJhzcHs5AYpwL+dhpHdIUPizvHSVwXi99m2tz1VIB/dd8peSAjWms+fokiKctlaouwiHwRgGhv8sL1RWcBjQb0eAcPbfwuIC7kNw77Wf+LYsMLEtH+xX7lP/m5WkXCSdvW5sdf3ILvzp5EgV60lbN+deWyFAEW4r1JzrN7gPZvd2qvhqnz0SJT/OTVWrnojRo1wB5+dMFUwaFhWwyoPLKuIZPZmfLohBCXdb3N+sNVjUchycD0kA4J4LMcdom2Vsc6CmTNfsh6tZwUIR1i+ILwPrOySvwGKcPQfbm6kXuO7CfTWtq03ADZOTR5Mi5F0RviqhyO+Kc1TMus0c09b72kqEg1fBX0sLlDhu62vk+bZHAKII/guQjXh1/7XWa0y2bw5yU8kRcK+214aQKAdrytSCgLWubb3j4D/od8W5Utzfa6/LNex5KcIZs2owlkKs1UeTI3WPnYh+gzETFoLhKWXvjSKcthrQXYRDpszOF2Mj2EqkcOTzYAAe29akBmb2EuEQaBJBm58rypa3BLvJpZ576H5qw8QT4H1nqJe411dq6+Xca0sEKMJtCZtT/Qj34KG5GSnu7xMkyUFGPItrqT1chKwFH2XHtY3Oz0ngyTol+iNW3HoTJL0+x8Tr2aJs5fZkrWuz1nEwtkGMIliBY1KM+H96cbAcF0kPnirIlPrRYbW4aRbxbTVztC2UGyImrEFh6YhQFhDkYNVnT1FhdTnXe00Rbj0y/NxCwLOhSmUthUuxpe9a8xkJfZC8BrEY7ZlFeGZpScoGT8l3bJD5EePe++NDlGWohTOfzxCgCGfMloB4togXe0eYl+5xE3F/QSxdxGBFyBN7bxThtNWA7iIcVmnz+roF1lKOLI7Z4toQ+wUuQsiMCXN+W4tw+LNHDCTfxhp5PCNBDTIwMYMbli2un+c44+IKa1K4IjxfXqQCb2Iyw836BCjCWZ+pox0RfQ/CGxLTIBOVI/VESCX4j+mYHFdB/p8+lqWslfQOwr16sgrLL8QCglWe0TZYdcGi67G0ON0FOMRLe2+Uv7KMwv8/zu0I9324tCETKqzjMJlHMHu8N/JGEc7ItWPfslmE+eeKcpTLuF6uqEig88OcVBXawJ73ASw4YaHmb6UF8kbfA7om9MH4/2rfA/L30mPqnDg3tzMEKMIZsyUg9IhnfZUKV7J6XKPXawjVD8SHSGiT/cdLFOG0tUndRThMToKa6lWabooo24sT9qGYQPl3RbH0TE/ZVICDmn9qZkoKTvXIrsrj8rkjUerPkOLb9upzO/0BiS9+U3hUkJwDE2Vu1idAEc76THlEcxLAYhpCIDxTmC1vD/OSC/9/3BG9BpKrj4vEAwjBsLPyuIrFZc8J59qaQ1y//TVlyl13dZmt/RoxVhEf7P+O50nxQK9DCb1rmZrhPUU4M9SSfcoILxEI84htaO37wOrjPZQQJl6N1Sr4un2u9OVnDWqqkw/HBqmY36vLae3XsDiG1R3c8GFFy+0MAYpwxmwJOb1dysL7Kh993NLX9q/LvfepJEiIv2rvjSKcthrQXYQ7NTOthKMPxgTSWmqbLotPZCWpeClj8/M2FeEGZ2fUBOzrGQlyS5Cbcj1l9lP7CXAW8Q7BrUsH+wQiKTfrE6AIZ32mPKJ5CcCNEGEI/llWqALq/9fhf+k60Vw9wPxFQaZ0TU2qRERGIYgwG3ChRIiI1WW19utr/A/JF1NjBFlYjZygwij1onc5KMLpTdi8x0fSgD+V5KtMtta+D6w+3g9yUpRXCuJtG2E7dqpHLQojHtXqcurx+qOxwXKwttzwWbNtWS8U4WxJW/u5vBuq5e4IP90yJK/tXwjf8duiHJUISXsp9dmTIpw2rrqLcBg4YwB9Z5gXRbgtinAXeeySNwe4yD/KjqkA1fjjtYUr6vjCvBwf6JOdlcXy6eQoJcDB/dQiAvHZvkLcl1NjJaG9Wcbm57T1du61KQIU4TaFizs7AQEsACHT5U9y01QynrWDQL3eQ4RCFlL8JxlhgyCJ2GWPJEXonhUV5wg4WSdYDDsTTc0IBJy3DBThnLfuN7pyjMlrhgeV18+VOmVKxpgbE20kusO90CgumT3TkypkwFuC3VV8TL3+B3DcNwW4yOOZidIyPkqr4BcbJEW4jXqm7b9DiBKE8fhtUbbK+q2XW/rafoYsxcjK3DYxZvuLXnNGinBrgKzzVncRDj7RiJlyQ4ALxZstinCI//Wp5EiJaGnUXXxDTAvENkKQ8eSOFrWqh5WnSzx3C1yDKLzZV3hbzf/jCWHiXlepJmfr9G9+vA0CFOG2AY8/dVgCmPxBEMNE6DLvfWKLAea9MQGyo7JYYFlvhA3/k4hh9u4IX93iIMH16hLPPfJ0QZaKmWbPAOxGYG6UMlCEM0pNGKscyOCMpGlvC/XS7Z54qdcewXgcCUyMtOHeVD7YLw/Eh4reCXwQfB7xMbN7OgXuv9xEKMIZqxWMLcyre8HnU2J0twy1CHGYG74j3Fuye9Ev7L9YSRFOW5vUXYRTE9m4YHmd1x4KOFsU4aBuv1BZLBVDA7qLcHPLSzI4NyteDdUCkQcresjEtFr84WtjCHHvezFQd59BJqbabjnm2YsinHnqiiW1HQGEw4YFBjJwQYTSKwOgZXCJ55uD3ATu9wjcb4QNQmRGd4eK1ba6nNZ8jZirCMCOzKHcjEOAIpxx6sJIJSnu75XfFefINX6HdJt4w90TsYDh/mm0TXk95WfaxEL6TYEusr+mVBrHho2GwS7loQhnF+zrnhShKuAtcFuwvqEqVo83IH4/GB9qmOziFOHWbR4v+0JXEQ5ukwgkjIE6MjpSvNm8eAPx8v1R/pLa1aZiIOjphto9NSkZ3e3qT/5j8SFyrd9BlfKY9bb5erMFs9tDPdSNvnPKGBPTl91ZHOANRTgHqERegi4EIMRVDw+qxaE3B7rq7oKkBpgJodI4NmKIrKD4rwxpbpCbAl11m3Djmj9zJFpi2pp0qUMedGsEKMJtjZuj/wrWaffFhQgyFK6eHFvrNbJSQ5QPbW4QuH8abUMSvpCmBnk0KVKX61/NEQHov5YeL8kGCEBvhHqgCGeEWjhThq6pCeWaDSMJve4Fq/uC5fVtwe4qRq1R5oMU4bS1SV1FuOG5WUGWjreFelKA26IV3K1BbvKdrGSlbsPk29oiHI6JVf260SFl4q4CTYd6CMzebSEk8RxbF/iu8z8kX06LVbExtHV37rUZArYS4ZDs5JuZiRLe0ihZPR18aGSAmFyw3DVSxszNtC+z74uMqYX9vfKJhHBByATLYFCP59fA1SLCR2XonjFAMHJYYByoLZMbAg7rdt1v9D0gTxVkqqRIZm8rjlR+inCOVJvbv5allRWBAPW3smMCS7X/dtupyz3hdV575b64YOUGj/89o20oU/3okBICkNEZ7vR6/BfgmDg+5pVI0ABjD2cfA1CEs39vwMIkYsGldLbK93NSlBeZXu3/XMfFAoCREpZQhNPWJnUV4WCSGXiyThCsk2LL1sQWBGX2bqxRsXCsLcDheJjQtEyMyvPlhSrFOFxgWFdbqytbc7vMa6+KwQExgpv1CdhKhIM7H1xY3hnuo2KdIN4JH6/MYGflcembmVILE9avfR5RCwG4wv+1tEDuifTTbcJlGXDCJTWspdEQViCIB/fn0ny51l8/17Pr/A/L8+VFUjU8oKUquI+NCFCEsxFok5wGMZSRwOzbWUm63gNvC/GQn+aliVEsXc5VPQhTsKuqRP7H75CaR1ju3Xo8Q+T7ZUGm9ExPGSpr9rm46P0ZRTi9Cb/y8SHGD8/PqnEBFiWxcKhHu1/vmF9Nj1eebEaIBwdaFOFeuc1gD11FOLiOHKgpUy4bthYozH4+JEFAMoQn89OldmRQJhcXrGoFh4FD++S4BDXVqVg7mPQj65LZuTlT+RGgFpNfTNLwB8DNugRsJcIhsD1WdhHk/nKf/XxoZIBU7IhDgyD53OxDANZw+X3dKkkD3KXWGyBa4/PrAw7LjsrjKgOhfa72pbMiQywyn+E/0xrXdq5jwMqOcY9eYm6UVxThjFITxigHEjLsrS5Vi9jn6sfW+uwTieHi21gj8DAy6gZroOjWk/KZI1G6J2g4z/UF+eyRKIlqPSGj83NGRWKTclGEswnmdU8C8RluqEge9dG4YJXEUO/xkOW+AjH6Io9d8mxRtlqghHGNETaKcNpqQVcRDqvFfyktUCmlnUkcsca1wpf8jlBP2VdTKpOL82ItV1SYy8J6pLi/T1zrKuTLqbFyDWO/mVZ8vDPUU02CpxcXtfV47qWZgK1EOMufKZ83J+L8PD9D2ifGlQuA5krljlYlgMHn6Py8soZDEh89V3/hnvmLgkzJ6+uy6jVs5WD5p7qVFcbVOopwbwpwEZe6CsMEWt4KJ0f8DUU4R6zVrV0TFj8bR4flGxkJurmmYzKPOcUPc1KkcmhAZpaMPdarGOqXv5UWCCx59R7T3BXuLc8UHlWLcadPQwJ0zo0inP3qHe0OBi0hKiZksO6hOdb2KYtrNsYKuB8ZpR9QhNPWJnUV4XJ7u+Sp/AzlsmENYcqZjoEV9ieOJktKV5vVLOAWVlZUDCWkMP51QZayUIQ1lTNxdbRrRXKGhPYmGZyd0dbjuZdmAhThNieKrR0c6P2eIpzmpqz7jgg78aGYILlEp6DkaEuX++yTr2cgGHeL7tfzSifAfyiyn13le0C3iSZEuIM15YL7EDfjEKAIZ5y6sHdJJhcWJKe3S+4M9RJYtOvxn4fjIvQIQsZgEf20GFtsglVaamebvDXEQ/S2BoK3EOLk1Y0MOXVcOIpw9rkTQPDCQiSSpXw8IUyQSFGPe8BGx4Tr67eyElUsOvtQOPdZKcKdm8vaT3UV4dK62uSJo0lyte8BCj2bSMwAV1TE0fNqqJam8VHriXDLywKLKcQQg7jn2VCl3IX315SJcR+lsq+6VE147o0JUCbujiakbed60E4wATZynJC1Nx2zvKcIRxHOLG3V3uXM7umUn+amy1U++olSsA5/ICFUDXjtfb2ZPR3y/Wx9gy+fiQlXyJhw9q7sNeenCLcGiBO/RYbof1cUKys4vQQndd+LD1GWNmZIQIDwEDXDg/K5lGjR01IYwgQsr28P8VRZWbsNmDHWVl2DIpytSL90nqXTKyoeoVtdpXwhJebFpCy2jQOHe85NQa7iUV8lLRNjLxXOAK8owmmrBF1FuPj2JvlSaoxaLd6O0OBsv8Xq+scTw1TmOWQutVZCBqyiIRYcYkr0zkwZ/tExOSE1I4MS23ZSnik6Kh+MCZTLvPdS0F0l6N4c5EqXJW33uk3vRRGOItymG42T/gALO4frKlToiY1WbbfzHay27wzzEvf6SrtTtoUIB2v43xXnSHF/r92vlwV4iQBFuJdYOPsrjE0/nxKtLNW2c2/b6Le4DyDeU+GpHtPg7p2ekj+XFsjdEb66WwYhI+2vCrKkoK/bNHysXVCKcNYmuv7xIIQjIy9itXs3VsvDieFyjY4Jmja6N2A+/EB8qCBGrdFCElGEW78Nrf5GVxEuoqVRHkkKl8u991E4WSWcvJKo+K5wH3m2MFsgQllLgDPjcSAWIvbONzMS5FZm2D1nH7ox0FV2VharP4TVHZuvt0+AIhxFuO23Iuc4AhaLMrrbBRn8Nho0bue717juUJZ2uyqP2x2qLdxREQPvZ3npktPbaffrZQFeIkAR7iUWzvwKk/E9VSUqpjLG9Nu5t230W2SFjmhuFGSiNsuG/4Pkjhb5UmqsblwszBACAQv0ASdqzYLH6uWkCGd1pOseEJaesLr8V0WRvC3UUy5w36l7G7e09bXPd4WdiYnYPTW5bnnt9QVFOG3kdRXhgprq5SOxQWqV6JWEJ36/46zIAuvBuLYmGZqddUoRbmJhQcqH+tUA53NHopVr7uu9aAF3rj6CuEF/KckXJEHhZl0CFOEowlm3RTnu0bDIg6Dh98YECizW1g4WrfEeWcAQhPjvZcdUHBZ70kRyCCSJgFBmjWs71zEQBwpWNnHtTfa8VJ57DQGKcGuAOOHbueUllZABcUkxCce96Vx9eLufYdz7sfgQKR04paxvzIIaXjfIFvmbwqMqc6NefMBXLc74HlDJgUbm5lRwerNwslY5KcJZi+T6x0H8N4SHCmlukO9lH5G7I33ldV57dYsFudG9w5Ks5fHMRMGC4OTiwvoFt9M3FOG0gddVhPNprJH3RPqpYIXnEhD42UvCG1hggoFB/XP/C7VyAAAgAElEQVTFOdI6MabMS81owbaVMiNpBEx8W8fHVFDXv5YdU2a2CHT5WvedZwVKtpmXt5nr/Q/Ls4VHTeWqoO3WZP+9KMJRhLN/KzRPCZrHR+WzR6J0TVaAwefvi3NVhkB7xkeCaxis1eEqttFgeTvfXeSxW94d6atity6fXjFPQ3DwklKEc/AK1nB5SD4Q3tIon06O0q3/496B5AY/y0uTzskJDaUyzi5IHoGYWYdry+X2EA81t9nOvfCVfov/hW9nJSnXfaO55dmiVijC6UcZAheyn2LhDZavX0yNUbEO9cwE/0rtHVrB7aGesruqREbmZw0pPFOE09YmdRXh3OorlbkmMthQPHm5eHIuHvDv/kB0gEC83IqQZebfzC0vy8jcrEoy8JnkSLnSZ7+cvwkX3nPxdIbPrvU/JE/SZUnb3W6Te1GEowi3ySbj1Lt3TI7LD3NS5ZYgN10npr8+dlQGZmbsOvCE5fGfSvJV5vdXGjBv9XtYj8DV6m9lx1RWc3uKjk7dsNdcPEW4NUCc8C2svH51LEvFqNxq/9byO8Sb8j9Rq+I4mxHzkc4WFU4GIYm0XO929oHXFRLMDczOmBHVtspMEW5b+Nb9MfIQYx7g3VAtn0qOFCRLOk8nq9fNtH0kwEJ2dljBGXWjCKetZnQV4Q7VlqsB+cUeFOG0CELXBxyWZwqzJb+v26lEuJ7pScns7pDfHDsqD8aHyg3+h5UJuxZmzr7PNX4H5Ue5qZLV06Gtx3MvzQQowlGE09xYuKMgGDeEKbhpbGZAudl9EScNluLzy8t2o944NqwmfDcEHNbtWjHYx2o7XE5y+7oM6XJitwqw44kpwtkRvgFOjftO5fCAPJQQpltCBvT9V7u+ID/KSVXxfuElYsatcXRYDtSU6Zqwx/L/gXsx4kcjSyTEE2faKMJZp7bRbtC/myfGJKG9WS2AfT0jQd4b5a+SL+gVasPShrU8X+SxS+6J8pOYtpPSNzNlnQvX4SgU4bRB1VWE219dKm8OcKGgosGi62LP3fKuCB+JaDkhnVOTDi/CIbglgrc2jA4rH/sn89OV6T3cT51dWNvM9cMd6rtHkyW9u11bj+demglQhKMIp7mxcEcZnJtRmZrvjwvRTZjCIBXxWKqGBuwaIwmBmYOb6uWmQFddrxXXi5AeEDchPMLanZt9CVCEsy9/e58dCRIiW0/IbcEeusWCwxgQGRcR/H1qcVHMagWLMT4Eonsi/XSLFWoRLiCQ4DzZPZ2CuNLOtFGE21pto1/NLS1J/8y0ivFYcKpbIltOyL8riuVbmYlyV7i3wEPN0saM8IxkED/PT5eWiVG7x8bdiDpFuI3ovPSdriLc3qoSuT7gEEU4DSIcxJRPJ0dK/eiwQKAys2uplrJjZa9tYlx2VR2X++NDGPdNQxs5lzh3te8B+fbRZEntanupV/OVVQhQhKMIZ5WG5CQHGVuYl+jWEyounJ6D1W9lJcqxUz0yZcdgxGPzc5LW1aaSBul5rTg2YqK+O8JXMns6BOflZl8CFOHsy9/eZy/q75XfFuXoGg/yUs898kBCqIQ2N9j7crd9fiwePJYWJ9f6HdJdzECisgPVZcqFcNsFN9EBKMJtrbIw1+6fnZaMrnYlvH0hJUau8T8o59sx4+lG4wnEPoS1Z25fpxLnt3bVtvkVRThtnHUV4c6k7z6kVkDOJSDws5fixH04Nkh2VBQLUg1rEbHMus/M0pL0TE9JeHOjMrV/f3SAWvFj/LeX2sJm+gUSeXwzM0GOdLZq6/HcSzMBinAU4TQ3Fu6o3CURowTuGxsNJLf73TcyEiQHGcHsaO2AwTviwsH1Fvfr7V7TRr9HbLirfc9YPGOxZfn0aUGmNm72IUARzj7cjXLWkKYGgbUvhLKN+u12vsOiPIQ+CH5m32BlhADyH4oJ1I2XhTViz30zI9HpxsMU4TbuJcjWOzw3K/UjQ8oyE1bsL1QUy5N5GQLhDf35HeE+cp3/IV2zHVva6Vae4SX28cQw8WqoksFZ+8bE3Zj2mW//H3vvAV5ZVbWP//ijiFI+RBBRFBBFpOOHguhnL4igiCiWT0XE+gkWbIiKYoPpPb333sukZ5LJpPeZTHqbZNJ7T4b1913DgTAkmZPk7nvKXed57nNvbs7dZ5+1195n73ev9b4CwumxEpFSEG5bVQmrfULCez3Agiude577VgJn3vdzUlh9BapLVgXYzlZvPIzLBk6S17Ea+mZGAoHDAfntrtTejr5XgHCPZMRTckeLvh4vZ+m2gIBwAsLpdhY5kbDBUtZ/kh7NTlG62HokI4Eyu9tpfH7OMKsDBGscHab7UiLpLb67ld4vJuyIhoPgxe+O5DL4N7W4IECcQa0vIJxBhjf4sgC/kV75z4oijoLDXG4ji+mz/QY8kFBFDW9u4E15g29705fHZkl+TxdzW57rtkUpsT1SUm8M8yLwkc8uLVo2jXe9RncVEA7P3cVTp5i3DfMN9MfB2RlCinjn5DhBob1+eJAqBvuoqO8ECxekdbZy0AeEIv9aWsCCBg+mxTLNA8BucC+aQWxhrXEBAk23R/rRzpoyqhseXK97GHK+gHD6zK4UhNtaVcITVAHhVo9yeqPHNt7l/lfFEY4kACnk2cAsK/4fkQOF/xGc+GNxPl0X4s67DY4GpFyxvMv9dtPD6XFMIqqvy8tZei0gIJyAcHp9Rc4j5mirGx6gH+amKVmcapNUjHeYWGMCbuTRNTnB3Cw3hHoqvV/tvvEOPpgnCzKpbWLMZRaYRrbxStcWEG4lq9j/O1Co1Az10+O5qUr7O/ihkRlTPzJoiz4O3i3w2v255BCd77FNGY8exkdN0OKpw9l0cnqSFk4ZJ97jzB7hKiAcfAkbUADe2sfHqGZogA71dvP6B9FtEAEBf+pP8tPpq+mxBMXc94V50pudoM67/Dnt6M/vCfFg5fn2iTHLbL4JCKdvBFAKwkkk3OrgmwYYXea7mx5Mi2EyyNmlJZo/dcpWIByiFSC+sLumnKPfbg73pv/y3kmSfnp239B8ZK13iYTTN9Bt5CwB4QSE24jfuOpvWFVsbIR+ln9Q6SL1ofRYSupoNhyE65+Z5oiLjysWolg+ob/Yeyenzfz+SC4vPrAhJ4mpzu1xAsI5195muRoW/p5Hq+jTiWFKx7cbmHg9kzostOBeq4206CXfhlr6UHQAZ/4sH9Mc/Rm8WV9Jj6WE9maX4dB0Jgh3T2wQ/bYol35XlMsp00ibdsQLZT5RkElQP//ZoQwWYHo0O5m+m5VM38hIYF7Bhw/Gcfrol1Kj6b7kSPpsYjinkiLVGdRG4E69McybAz2uCtxPWF9f5L3DtBxvZ/P917ltocv99tBP8g/y895ICo61+vhK/xMQbiWrvPY7pSCccMKtDbQgFfXdwe6cm1452Gcr8E3jfsvp6aQtVcX0yYQwenvAPkk93aAAw2pAnHDCvXZQc9Q3AsIJCOcoX3KFchDtDE7TXxRmKV2kYtMqrq2RRueMjYSbWJhnJT5w1IG37WwTakf9HylXUG176nAOpXe2EXbHjRSpcAXfXn6PAsItt4ZrfEYEDgQGfpSXTohKcVRfXqmczyVFkP/xOuawspN1sRb4cV46gwor3bcjv7stwpeeLs63RTqvHh9wJgiHqLJrg9147Yr1q6Ne1wS5MT/4Ff572UfAgYY0zDd5biekaANcdaSPmL0sUFBcFbCfQL8R3XqcphetpZIsIJyenquYE07UUdcG4ZCKCuQ+r6eLoCxnxTTT1eoMEsy0rjZ6NCeFLvPbLemnDgbfNFBO1FH1DXQbOUtAOHNPerBripQEkO7KYbwFwNWCaJHfFOUonSxjFxyTUvCnGnmAIwp1ePpIHr3BY5vTFwkgIf9obDAFNNYxQGCkLVzp2gLCuVJrn75XzHMrBvrozih/5mdUuYBHOj/S+pH+aqcDIKb3sRq6OvCA0ucD2gbZNp9KCKOG0WGXiBR2Jgin0vel7Ffm3IjiuzcpkpXgrRQBp41ZAsJpllj7XWkkHPKzMeAK+f7KYBy4ZLCz1jAyzA/c1QAtq3yPdCREB4CE9e/lh+m+lCjeNUT7S/rpyj6ggWkbfQex6GM5KZTR3b52T5f/rtsCAsK9MiEw4+RIQLh1u7TSHyy9eIrFEpAqqdJfHkiJZvoGo0E4pIEi+s+nocYpaVZn2vQ8j62cbvOhmACOMEH0TNPoCE0tLChtZ1cvXEA41/MADUCCOIqqqNfXu29lIbt/lBdxqj3GUzsdiNYtPHmC7o4J5OimM8czR/4NW0KgAZs1vdOTdjLjivciIJy556rr8W2sBbGu+0FuKqV0thBoL7DBabVDQDh9LaYUhINCDR5aUP/cKMhg5999ITmS/Bpq6eT0lOWj4ECS3TY+xlw9yO0H9wN2o+zcfma4tyv999KP89Mp+0SHvh4vZ+m2gIBw5p7YCAin25WdcuJpAu55ero4zyVAOM2oh3q7OAX3Cr+9hqmsvSvwAH0xJYog8BTf1sQE8sOzswwSavWUd8dYQEA4x9jRSqUA5AAvE/iZ1rOgXs+5SL37SGwwBTXWW8k0uusKbjiAmd/NTqarg9yU2VGz+ZX+++iPxXlU0t+ru45WPVFAOHPPVTWfPNs7qCauDXKj72QlU2xbIwe1WBWMFxBO32iiFISDJDDUvC70EhDuTMAGkWFPFGRQ09gwKwdZJdptpXpCTAJqbWHNx5gkExOVM+9X/lYTCQeevZ8fyqC8nk59PV7O0m0BZ4Nw4LyQl34bAITrmBiXdFTdHq32RFcF4fpnphj4uj7EQ1mUzNkm7/g/xo7Xub1Ad0b7E6IRsfhEtCAWv3I4zgICwjnOllYpyaehlqljwE+lpy9u5Bzw+z5ZkMUE7Faxy3rriaiePXXl9LH4EGV21Gx/kdcO+lRCKK9L1ltPq50vIJw9QDiISXw9I54qBvuYA85qfri8vgLCLbfG6p+VgnBQwwGHgkREvRqAAeHkbRE+LKcMcmmkca4Ebpn9O9QbC5DUzlae9ENWHbtPmKgI6PbqNldlDxB3YsFVdPLE6r1c/rMhCzgLhAMh7VcPxpHH0SpOs4tqOS7vOmxQNdhvObLaDTniKj8CJxlSfAZmpqlzYpwaR4epeqifivt6qLC3m3J7Oimzu51faZ2tlNLRQge72vhvRM4ePnmCYMOmsRHqmZrkVNLFF6G2uTHQxlVBODwH64cH6bGcVI781xaBRrwDiANxNhQWoRwHkQyfYzXMZwWeVjk2bwEB4TZvQ6uUgPEQwNGfSg7RJd476VyFAiyIgAk4XseqqFaxz3rrObW4QEV9JzgaDmOVyjESc26k9f2zoojG5uYIz0u7HgLCqfUllX6KsgEYfzw+hJ4rL+SUbWyeWd1fBYTTN9ooBeFCmo7Sx+NDeVKoCoSwYrkaj1d6V5tlwTcMEljwBTfV0w/z0ujWCB8mrLVie1i5zkhDeq78MC+y9HV5OUuvBZwFwt0e6UvPlByiE1MTeqsm59nYAohcAgfI+Pwc89k0j41weiHANUS84rmBlMPw5gYGWED7sLWqhHk4/1icT08V5TD48tP8gzw2Y3wGb+Sj2Sn0eG4qfweVul8WZnHqKDiIdtaUkefRKsIzO6a1kTCBAoAHDh8AdQD4TkxN0vDsDPOXAnA783BVEA52GJ6bZduBrw6q56oXmGdbFJzj9gIDBgD4702KoD8U55Hf8VoWgcK4hlTVldrwzDaVv19rAQHhXmsTu34zubBASDf/dlaiUsAIlD0fjgnkzVQ7czpq4j1/KS3gdSFUL882lm3m/+DvA7dWpQ0ii9bqYwLCWQ+EwxwBa0+A75g37KopYz8F+GaH6HUB4dbqsa/8TykIh4gO8J69xXe3REYtU8d8T7A7T4hbxkctCcIh+uL42DAv+m4O92YU38pAlpXrfk3QAdpeXcqRGK90a/nkCAsICOcIK0oZ67EAJl+YhEHg5ujIECV3tBBANkS7gkvnc0nhdFukL0ccq1DkRKQHItcB3nww2p++khbLYN3OmlLmKCkd6KXuyQmaO7XE8XKorzZhBHcJng2uxgmH9kWbYWPqb2WFdJnvHlK9uNzIwhRR6p9NCmfAFqmqs0tLAsStp3O+dK6AcBswmkV/0jczRduqS5mrbSN9Tu9vrg46QN/LSab2iTGLWmp91UZ07h2RfsoFGmB/qKQiywDK3XY9BISzHgiHuRay4h7NSaHsE50857OTfwoIp681lYJwCe1N9PDBOCYztTLQ4ci6g/fh88kRHJINMQOzp5wurx+U4I6NDFFAYx0vCPEQvdRnF53vsVVA1mUgqyP95WxlvTvYjQ7UV3Kkir4uL2fptYCAcHotJedtxAIMts3PU8PIEKsbex+roWdLC1jp8qvpcfT5pAj6SGwQL1beF+pJWKiB/B8g2fke25Twj2m7sxd4bedIhXcE7Kf3hnjQbRG+HKmBBc39KVH0jYwEQqQd0rSwg4uovJyeTo7Ixfd6F58bOc8s6qjL2xxxgXg+ZnV30M/yM1jlcCP3pvI38Jkr/PfSrRG+7Fs/zE3jDRykKrdNjNLc0uLyW5LPq1hAQLhVDGOzrxEpCrXhRw4mEMZBlX3zY3EhTE+D1FdXOECHAEExlUIXWntdG+xG389Jobbx0Zc3jOxmYwHhrAXCvTPwAN2XHEnbqksov7frtAKqzdSQBYTTN8ooBeHAP/NoTjJdIUT9L4NUd0T60u+L86hjctwyANzM4iINzM7Qkb4eQkTEQ2kxHIkh4JtzeN/WAuKwQIaaVufkuL4eL2fptoCAcLpNJSfqsAAWdaPzc9QyNsK8bYhyA28q0smRMgrQ7aZwb7rMdzenEiKlUFtImOkdQB2i8C733cPcY+ACfSg99mVQ7hPxoUrrbUYQTmv+3ulJSmhvZj42tKOZ2m15XfBMQYYCUuAey02lLVXFFNPWSEV9PYT05/H5eU6J1u5L3l+xgIBwr9jCzp9G52ZZdf4DkX686bG8/zjyM1ImoYZY0NvNkcR2tql2b8gC8jxWTe8OdleymbS8fbCh9OHYwJfsu6BVwVbvAsKZH4SD8imE9O6JDeK5kl9DLaEfTC/a0ycFhNM3xCgF4fJ7uujJgkx2vLWABFf63yMZCSxkAJLk5VFmZv0M5dORuTkq6T9JP8pPZ7VbV2ovs9/rDaGelNTRbOtQe31DmePPEhDO8TZ1xRI5xfTUKeZSqxg4SVAN/05WEgNuKlJKly9A7PjZzCAc/Ltveoo59j4aG0xmBVLP9Avw2CHS8msH4zn9uW54gMnMEeGnpRu7Yt9d6Z4FhFvJKvb7Dlkfu2rL6J2B6qLgeEPDfStHFE/Mz9PSqVP2M+QKd4So29L+Xo7yxhz7zPHI0X9jbAPoB9DDjoeAcOYG4dDPEU37QGo0RbYcd4mgCQHh9I00SkG48oGT9NeyQgJ5vNnBDNX1QyrI5b676Y/FedQ1OUHTi4umB+GwGw6pZExEHkyLIaREQXlNta2kfP0RduDkK+w9wf6kr8vLWXotICCcXkvJeStZYOHUEgMySL3ZXlPKBNH3JkfSB6L8+JkIPhBEQTh6wWH38swOws0uLrLi7L8qjjiN92izbQ4/hKr5VYH7uc6Iyvy/QxkMyIGYHhF+r5XiWMnr7f+dgHD2b2PcYUpnC30zM4EpVzbbv1b7PfocaF28jtVw5KmrAN6ICkfELcSCwD+6mn0c9T2ikqFendndYUvnFRDOnCDcJT47CWs0+Pn++koWugKnrl2j35Z3LgHhlltj9c9KQbiG0WHmOUDIsasDK+iMH40LYkGGuaUl0wJwiHxD+ikIYpFO/LfyQvpUYhjzEL1BuN9M5ccIb74zyp+qB/sldWj1MW7D/xEQbsOmc9kfgucNKaeIosD4eaCukn6Sn87pMODPfJ2b+l1/Ry1czFqO2UE4zflB3wDVYyyyweNnVnuuVC+AcgDkkFr8REEm7a+rZFXeqqF+6p2eIsxhXBWUExBO83B7vsOv4d9YNN8Y5sWcxyv1EUd8d5nfHiZmx7PC1Q7w3+2pLaePxYcoHxs1sBPRcMg6stvYJSCceUC4i7x2MLD84dgg+lZmItONpHS28praVUB2jGUCwukb0ZWCcJ0T48xXBd4qVwfhENL++6JcRsLNmnqKekExbWR2hiKaGzg1BUISrt52Zr1/RCV+KiFURBn0jXXrPktAuHWbzKV/gAnW1MICixP8u/IILy4u8tpO/2//v5UvMhyxILRKGVYB4RDt0T4xTr8pyqVbInzonAPWjXoEiHhbhA8r5Sa2N1PfzDQLUbjSokIb3ASE0yxhz/fFU6doYHaafnskVzk3J7KEoH6NuYarHVOLC8wzDdVv1c8epAOe57GVlbuxSYbNMjsdAsIZC8KBdgI+BsVTZIzBp8Obj1GrTdOf9fQdAeH0WIlIKQg3PDdLaV1tLs8j9ibPbXRrhA9Ftx4nhKKaFYQ7OT3F5KVPF+cxSfjVgQc4RcWsIJSr1wuRCuDwceWBXt8wt7GzBITbmN1c7VeY0I/MzbIy5t/KCulLqdEMuiAFRiLfHD85tgoIp4Gy1UMD9O+KIwQBiwsByh5wvE1Ul4ln7SU+u1gpF4q9j2TEE3wdfKQdE2M0f2rJZbq9gHD2buqx+TlK7WzhuRUW1qr6FjJLECULAAXXdLUDYCe4sf9SWkCXeO9iAEOVrVEuonu/mZnIYhsTC/O2MreAcOr66Vo+ifkdFH7viglk4A2br1Gtx5nvsHtqggA0u+ohIJy+llcKwiGqqrivhzlwXFlJE7tdAEtqhvo5F9xMIBzST8H9htThyJYG+vXhbLol3Icn3K4Ocpn9/t8f5kU/yz/oEiSf+oYzx54lIJxj7WnH0gZnZ5g3M7CxntNOb4/wJWy6rDVxk/9tbsJsFRBO83dExFUO9tO2qhLe3LoqYL+luQABTFzguZ03FiEwsr26lBAdVz3UzxyImN/Y+RAQzs6tS8x/+FxZIX0wOkDpOH6l/z76anosZzJgjHDFAxsVUAj/7yh/pzw3744JpBcqiwkBB3Y6BITb3JxC75wMwDlUxZHdh3RTbLj+7FAGPwOTOlqoeXyE7AbwbrSfCAinz3JKQThUAQvZj8eHMCeK2UENVfXD/W+vLqETU+aLggP/W+fkOO2tq6BPJ4aR8L7pF0VQ5S96y70rOoD+Xn6YJ436uructR4LCAi3Hmu51rlYMgFqKDjZTb89ksNCC68TkQWli1Ztomw1EE7rGaNzcxTb1kgPp8cRhJrOtQk/oMa39JuiHMrobueoUKg82jVVVUA4zaPt+Q7BAIwxiHDRxhwV7x+KCaB/VMj8Laenk36cn67c3mjDt/nvpa+mx9lOJVVAOMeDcFqKKSIotdfb/PfRPbHB9GRBJoU2HWN8Y3Zp0Z4D4SbvSkA4fQZUDsIhVe4bGQn0riDXU0g9z30Lk7r+ICeFIwIxCTdLFBzAt56pSZZLBnE4doiuDNhHqLNeEEjOM9ZWn0sKJ6+j1YRoHDkcbwEB4RxvUzuUiElXy/gob1w8kpFA14d6ctq+ytQlFYtAq5ZpVRAOz348c9O72jgFC9Efl1hMsGElnwEPDoSn0A8+mRDGKoS7a8qY2mJ0fpaWXrRXZJyAcHYYxVe+B6RHpnW20u2RfrwhvZK/O+o7ZMdgLBi3WWrkypZd/VusEb2P1ThFJRWbHx+I9GPqCKzH7HIICOc4EA7zOHCgvifEgz6ZEMpppn8syacD9ZVMKZV7opOjvrsmx2lyYYGw4STHay0gINxrbbLSN8pBODjqLwuzWKbX1UAbpGxcG+TGfDB4uGPxZgYQbmBmmqoG+8mnoYa+nZlI1wQd4PQSV2sfq9/v1w7GUXJHi0vyiaw0mDn6OwHhHG1Ra5cHMGF8fo7JpLdVl7By5BX+e5VGSzhqwWencqwKwmneD/4nPH/BH/NgWgyntiCazA4g7uvctxC4EKF4+IvCTFaDz+/porbxUQJ4ZYe0OwHhNE+233vd8ABtrSohpIyrGjMRVXOB13Z66nAOdUyMuxSf4koeAyCj8OQJDgSAXVTZXSsXInm7a8tZwXyl+ljxOwHh9INwiEAHGAthO/BqXx/iSbdH+tI9sUH02aRw+nJqDP0gN5X+WHwaeEvsaGaxLaj5StSb/t4hIJw+WykH4ZB7/0JVMYHM1+qgx3rrj3B2TLIhyGAG8A38b/NLS1Q+cJKerzxCN4R5MQ/Deu9Lzjc2Ak6z/+O5qVQxeJJ5BvV1dzlrPRYQEG491rL/uYgePjo8RE8V5TDQAMBBm9jLu/5J8GZtZXUQDj3lRXqRFk4tMUn4EwWZnM6McR0pMJu1j1l+r5FWP5QWSz7HaqhzYozmlhYtn6YqIJx9x3rwOn09I4EX6Kr6EShfrglyoz215eSaTHCv9Z/2iTH6TlYyj4Oq7K6Ve6nPLg4+SO1sfW1FLPqNK4NwnDYKddKXFEqxmYWXlkKqvQN8wwucveBjBOcjnk0IEtpRXUpRLcepuK+XeqenCHM9OTZnAQHh9NlPOQgHhdSQpqN0f0qUy4FwiDADaXHN0IDhIBzIIsF1gZBayCffFuFDb/bZKRxwFk2/RdowOHh6pyfZt/R1dzlrPRYQEG491rL3uYgezu3poh/kpNKNYd50nvtWW0QuaQsTK73bAYRDb0FU2MDsNG+KBTXW04/z0llV9402EfbAQugNHtvoHQH76UPRAaxMCOChYrCPphasqxonIJz9xnqA4osvnqK9deX03lAPOl9hH0QEDnjJEtqb7GfIDd4RoowwNnwsLkT5JgSioBCAsL+ugqDQagfuSlcD4bBhdZH3DuYRRDQbUkdvjvBmYA0c7F9MiWIarB/lpdNvDuewkvfOmjJOe45oaeAMItjsSF8Pr8+bxkboxNQkDc/OcrQbFO/l2JwFBITTZz/lINzkwjxzgwD40SJ4XOEdD9qPxgVTZnc7YQFnVCScxv2W19NFO3TlWAkAACAASURBVGrK6PPJES/vurtCO9jxHqE0jJSff1UU8QPDDik++oYr554lIJxz7W3Gq2EyNjI3S9g1f7Iw6+Wx00qgld3qahcQTvN3LASxWYm5wl/LCukrabGsPHqZ7x6yS7QleOPAs4MFEtJ8IFCB8XV6ccFyKaoCwmmea5/3+VNLLFD2VFE2AQRH9IyqcRM8kOjjUEsGJ5y82iimtZGeLS3klEBVdtfKRdsi/f+3RbnUPTnB2UFW92RngnDXBbvT55IiWOn78wrev5AcySDaA6nRhNeXUmM4o+yh9Fh6+GAcgYcXeMIP89Lo5wUZHIzwTEk+i9QhlXx/XSX5H69ln8rs7mA+dmQwdE1O8FxubmnJ6s1tifoLCKevmZSDcEh/xED3q8IslwLhrg/xoB/lpRFIR40C4GB7cNFln+hg9SEIL2CCYUdgypXu6SKvHXRLuA95Hq3W18vlrA1ZQEC4DZnNVj9CxA4id7CjijQiO/B2aYsRq77bDYRb3mGwaYbI+X9XHOFNPABXWDRyio1CYMCZvoAFMEQpsGDqmBij2UVrpagKCLfcY+3xGTyNKZ2tHKGmui8givpdgQfopjBvFgmAUICrv+6I9KObwr2dopCqtS8LY3S20fj8vOWd2JkgHGhwSvp6OIIbcyNHv+qGB6lxdJjXzm0TY4RU5ZMzUzQ4O81thU0rOcxvAQHh9LWRchAOUTqYWP6zooje4rub1UJdATD5YnIkIcWkb3rK6SAcdvWww1zc18O7bQ+kRDH584Ve2+k8j60Cwlk0BVXrN4iCw+4QognkUGcBAeHU2dYKJQOAA4E+1KPfH+alNDpCWxjI+9m55ewMwiHyEoAAxp6M7namj/hp/kH6SGwwXeq7yxaRcaym6r2TsPD+fk4KIT0Im5VWOQSEs0pL6a8nVIufLS1gcFj1GKxFYl3svYPVkREZ5/Ivn110sfdpehzV9tfKByfYc2WHmdJFv6eY80xngnCIIBycneGostH5OXL0C6AoxDqmFheYtgBrWQgiYF0LHlVJFDWnD55ZKwHhzrTIyn8rB+G0y7ofraIbw704j1sDE+z4jmiJS3x20i8Ks6h+eJDAxebMSDio92H3IKWjhf5UcojTP5Aaa0dbu+o9vT1gHz1ZmEn5vV1a95J3BRYQEE6BUS1QJDhiAIZUDPRxRNL7Qj05Ck6bvMv72YEylTayMwi3vHtg3gBwAAusXTVlnH4DOolbInyYjgBzDZV2Vl02Um2v8NtLUPnG/BARENMWiIoTEG65l1r/M/oZ5upIEX2bqF1bekxZz5gFcn4Q8x8dGWQ+QCt7sjNBuD+XHLINl56V29zsdRcQTl8LOQ2Eg/IIcr0RDWdn8ATRZteHetDe2nLmGnAWAKcpn7aNj1FkSwN9OjGMrvDfa2tb29mP1rq3a4PdaEdNKR0dGdLXy+WsDVlAQLgNmc3yP0L0NrhMIarz7iB30wJwp9XATqcqIrpi+eu0EtgLhKijjb22vKo8ToeE6pgJUiJdBYRb3pFO++QCHertoufKCulj8SEMGKCdOV3VBO2yngXwmeciPfUvpQWcemT2dCMB4ZZ7pvU/j83NUVZ3B90Q6il0AweM3WA5c1xQ+TeeaYhwB4CF4AUrHwLCWbn17Fl3AeH0tavTQDhMHiEF/Hb/fbYGhq7038s71iBbdRoAt7TE4g/pnW30dHEec8kgWuoCr+22tvVaQJVd/4d0YkwcEtubWVlPXzeXszZiAQHhNmI16/8GQgzhzcd4l/wCz+2mTEOFwhvS0m8I9aK7YwJZcAeKeyAsRvosUkZAdA3xli2VxbSjupTV56CO7aa9jlbR7tpy2lpVzK9/VRzhlKw/leTTrw9nE7hfvn4wnu5NjmDCbHD2aM8VAD8qF0hrle2KIByiMwFOgeO1YXSIILTk21BLvzuSS59NDGeOKYCtZgBJ12q71f6HdLzbI33piYJMTsOdW1o0bdqRgHDWH+OX34HGwXhVwH7DxrTV+oV8rxYUfGfgAXqhsphqhweWu4TlPgsIZ7kms32FBYTT18ROA+EgAYzJ/7uD3WwLDEH0AACJz7Eawv2qBuGg8oL8eaRxhDYdI3DH3BHp6zK8e3YF2ta6LxB1IwqiYvAkicqPvkFuo2cJCLdRy1n3d+CBqxzso8dyUggqYEYvgrBbDyJvRDXj2QJusPuSo+jbmYkMWEBNc2dNGfk01DBwCHAeQjzgA8XCQiM47pwcpxNTE9Q3M0X9M9P8wmeIJrWNj/Lr+OgQ1Q4NUPVQPxX1naCD3W0U3XqcwR6AdX8vP0xPFeXQYzmp9HB6HEe2fywuhEnFrw1yYxoGZ6h5uiIIt1KPGpidoZL+XvJuqGHQFHZBRNk7AvYTQFojgdKN9Buk174nxIOeLMjk6JTh2RlOC1/p3o38TkA4I63v+GsntDezIANoWzbit/IbtUCZSvuizaG4mdjR7HjHcmKJAsI50dhyKV0WEBBOl5nIaSAcuNFyezpZAWctkMHK/8OA/sn4UCbzhhiFShAOJJVImQL/27bqErozyp8A0FjZflL3LWdtPyx2v5OVxItmfV1cztqoBQSE26jlrPs7AFJ+DbWEfgYATOUCYK2ycW2AKAAm3uq3hz6bFE6/P5JHEc0NzF80Omdc+gwiskDMXDPUT0kdLbSnrpwey02lD0T508VeO+j/O6A2Sk5AuNf2r4n5eaYn2FtXwdxWy4E4I/14LR9f7X+ISPr6wQSqHOxnUa/X3q2x3wgIZ6z9HXl1pHljg+HqIDfe7FjNJ+V7456FKm2PDS60PXwAvmDVQ0A4q7acfestIJy+tnUaCIeJOyK2kDrxFh978sIBCHumOJ95TeaXoORyStmrZXyUolqP0w9yUxmAu8zPdZRnXRmsuzsmgP5Rbg9FJ31DlHFnCQhnnO2NuDKm4OAuvS85ki4xMCriTZ7b6ZpgN3ooPZaeKz/MHJ8QYakbHuDINUQ/49li1AE7IV0QKp6905OEZ1HFYB+BgsHjaBXdmxShFLwUEO61LY/5FXiNWsZGqaivh30GUZIPpsXQe0OsJSyCjAJEof4oL51TUyGSgnRcsxwCwpmlJTZXD2QSQJX3V4ezCWOu1SJHVYJTrlI22hxtDx+AL1g1u0RAuM2NBfJrx1tAQDh9NnUaCIfqICUGKZPgsbETkHKe+xZOAX0kI56SO1qYt0UFAIfouoGZaTrS10P76iroW5mJ9M7A/YRJq53sKfeyekTcV9JiKLatkWXB9XVxOWujFhAQbqOWs97vMF6fnJ5icnhEnr3e3bnKk0jjRBTZTWHe9KXUaOb6Cms+RvUjgxwNZIVdetgQKa+/KMgSEM7ALgC4CmnVSEcObTpKfyzO55Sru6IDOOoD8wWzAw6IAL0u2IP+cCSP06MBfJnlEBDOLC2xuXqMzs1yGiJUUV0FdJL7XDmiDz6Q0N5E8AkrHgLCWbHV7F1nAeH0ta9TQbiB2WnaX1dJn0oIsxVohAkjUkERBTcwM0OzCqLgkH46MjfHHDAg3r4xzF5ApgBvqwNvmm0gyvB/hzII4NCsiRYl+oYa650lIJz12myjNUYUUWZ3Bz2SkeD0BRnSBS/y2kG3RPgwCHj45AlaOLVEL5qWmn5lK59W8JxncSCViz2JhFvZ/qt9i+iO5rER8j9eR/+blfQqIM7sqarguHu2tIDBXbNEwwkIt5qnWet7bBj8ubSA7oj0c/qYr3J8lLJXBtrWsgtEYf5UcojHGWt58enaCghnxVazd50FhNPXvk4F4cBhVnjyBH03O8lWINylPrsYWAw8Xk/Ti4s07+A0VPDp1Q8PcvQbUpTeF+pJ4J/TwBl5PzuAZXUbvdFjGxNuP19ZTOD/sUJkjL4hyLxnCQhn3rZxdM2wIEPE0G0Rvk5dkIFAH4ILPy/IpLi2Jk45HZ6btWT/FhDO0V7pmPK0dkEmAoQc4Gf/rChicY1rg9w5HWutBaqR/4Nq6v/EhVBMa6NpFsgCwjnGL40sBSnOR0cG6f6UaFaZNtLH5drrB80cbTMojX8xJYrXWUjtt9ohIJzVWsz+9RUQTl8bOxWE01J+ninJpzf77GTSaauDI6j/uwIPEO6piCMYHMcDhx3sjolxyuxup3+WF9HnkyLoUt9don7qbn/Q7cx+gcUIVFGDG+v19Ww5a9MWEBBu0ya0RAGIKq0Y6OPx9S2+u50GwmHijxRBpNxlnehgoR0rg+sa2PN0cZ5SG0ok3Ma7FdoI/n5sZIgiW46z72FjD6Ial/vu4TmZoxe4my3vcr899OP8dJ4HYYFsdEScgHAb9z+z/BLCMimdrXRzuI/TqQc22x/k944H7V7ntoWpIEAnBN+w2iEgnNVazP71FRBOXxs7FYTTquR+tIp3/y/02m75aC6kot4U7k2pna3UPzPtECEGRNIhpRUKeLGtjfS/mYn0Nv+9lrfVmcCS/K0fTHx7wD56siCT8nu6tG4k74otICCcYgObpHhwwUW3HmcyeGctcMDJdU9sEL1QWcziBkYDC45oCgHhHGFF55UBnwOoVTnYRzuqS+mTCWF0pf8+Aj8h/PMcN7Uqt3r7GhbIb/Xby4JESBtfetHYSBUB4Zzno6quVDXYz9GgUBHW64dynuPBLzPZFL7w9/LDPB6q8jtV5QoIp8qyUu5GLSAgnD7LGQLCYbfhGxkJdJoAWz8QYUbQ5pqgA/TNzASqGRqgqcUFh4BwgzMznDYCLpT7UiLp2iA3usDT+oClGdvPKnV6T4gH+TTUsIKTvq4tZ23WAgLCbdaC1vg9ouD+VlZIALqdsSi42Hsn0xfsqimjRhvxOwoIZw1/X15LiDiAjByccdjg8ThaTT/JP0i3RfrSJT47ndIfztbnwFuHzc6vHYynhDbjydMFhFvuQdb8jJTsB9NiTePjZ+sD8n/1ACAU0SGKBOEzqx0CwlmtxexfXwHh9LWxISBc7dAAba0qoWuD3Qhk81YBQlaq5ycSQgmLKXAKId12M6/JhQWeDGOCgBSlD0T5EdKjVrqufGdt8HY97QfRj4/EBtGh3i4CP6AczrGAgHDOsbPRV0nqaKavH4ynS52Qinqx9w4C2fz26lKqGeo3+tYden0B4RxqTqcXhsg4zGOyujvoXxVFvFEK0vpLfU7PQYwGApBx8KvCLGobHyNwehl1QKUem66P56YpBSkxTvy1rJB6piaNulXbXRdjFNpvV005YWMT4K7Rfi3XVw+w6bExfOHdwW4cFTy9uGApXlYB4Ww3VFn+hgSE09eEhoBwABLyerqYBPsN7tYF4c5z30I/zEujioGThDSJjQJwSD/FxKBrcpx8G2rp/tRoepPnNkL56wFr5Fx72uu6EHd6NCeF2ifG9PVqOcshFhAQziFmNH0hnkerWZn0jZ7blC/IoGr9y8IsAkm+HVJQlzeugHDLrWHtz2jLqsE+2lZVQndFB/Jm4LluWwxNUcUi+c4ofzpysofnS0ZZ+DQI10+P56YqHS/A0/eX0gIB4RzY0PNLS9Q9OUG/LMzmlGs94IycYw6QzBntgKhb0L7g+Tx/asmBnqe2KAHh1NpXSl+/BQSE02czQ0A48JA0jA5xGufVQQcsCTRd4LWdd02erzzCRJ7gcNsICIcJ3cDMNMW3N/Hg/9G4YLoqcL/lIwQFEHQcIPiZxHByq69kP9HXreUsR1hAQDhHWNG8ZQBowI43eGAQbXquQg4sABgXee2gH+Wls4APlMLtdggIZ68WHZufo6axEcrs7iCocn85LYYgkqCyn6y10AZP3TVBpyNVjo4MGWZszNmgVo++vFZ9N/u/WyN86Q/FeXRCIuEc1tbgWY5va6KvpMUaCihv1jfk9+qAQaSkQo15ZG7WYX6nuiAB4VRbWMpfrwUEhNNnMUNAOFQNZNhbq0sIoJMVAZvL/XbTQ+lxFNvWtCHwDYAdVHiQ1hBwvI4ezU6h94Z4kB3EKqzYnmasMyIh3+S5naMtS/t7aWphQV+vlrMcYgEB4RxiRtMWgjEYC1xEpmEHXOXC5kKvHXRPTBB5H6vhfgzAym6HgHB2a1HiaE30E6ipBjbWcQrmB6MDODIOAg4q+8xKZV/qs4vTZMErbNQBddmGkWH6sWIQDum3vz6cQ91TE0bdqu2ui9TeP5UcIqRZr+Rf8p3a56AV7HtbhC9B4dtK4LeAcLYbqix/QwLC6WtCw0A48J/l93bRd7KSLBn1BbGEXbVlVDc8uG4Q7rT66SKr8GyvKSXseCJKwoxAkNTJcRFt67Xl+R5b6S0+u+if5UWcfmPHhbu+YcqYswSEM8buzrrq9OIilfWfpO/nqE0rw8Lj7f77WPwB1AV2PQSEs2vLnr4vpGchTWtnTRndHRNIEBhBdJozF9bne27jzcr9dRWGpXPPLi5yhOBP8w8qvff3hXrSzwsyqHNi3N6O5aS7Q/o/hHDuS4liENmZfivXsg6492afXfT5pAjC/M8qW2UCwjlpEJHL6LaAgHD6TGUYCIeUVKRhPld+mFXp3uixzTIgFFTDPhoXRDknOmhodmZdIBzSn9onRpn77bGcVLo90pewuwvAZb0gjZxvHEDmDNu/xXcXfTEliiJbGmjp1CnDFh36hhL7nSUgnP3adPkdId0OETVfPRindDH9evetdHO4D6V0tNDgzPTyKtjqs4BwtmrO19wM2hfzFyipJrY3068Ls+kDkX5OBeIA+iGq9PdHcql3epLnXq+pqOIv5paWqGVslH6mGISDcABSXjuEC9YhLTo4O00pnS286Q1BOAHGrAOMObOtMLe/JcKHkjpaaGDWGs9rAeEcMkRIIQ60gIBw+oxpGAiH6mFnKqz5GH0mMYze7LPTMiDUDaGehF3Q5vERJu9EusbZXuARwaQRCpe7a8tYChv8Js4Ac+Qa1gPrkIp6zX/4Ev9ZUURVNlNR1Dc0GX+WgHDGt4HKGoAOAOmh4FxUOcm/zHcPfTElmsBjZaSqo0pbomwB4VRb2BzlY94Gca2C3m4WDrgnNoij4lSndC/vo9/NTqYjfT00teh8ioa5pUVqGx+lnx/KUDpuYH4ImhIRZHKM39cOD9ALVcXMubzcl1R8RpQouJ3fFXiArg5yk9cmbQA7Xum/l9dLKtrrzDLfEbCf597VFpl7CwjnmDFCSnGcBQSE02dLQ0E4VLFisI/TdN4VuN8ygNQDKVEU2nSM+memzwq+AZzDzikWfLk9nbx7+nb/vQQlPgHHrAeOOavN4B/gLcnr7WLlXX3dWc5ypAUEhHOkNc1XVu/UJE+0PxQdoHQxfVOYNz3lAtxOAsKZz8dV16h1fJR8GmrpxjBvOs/dedFF9yZHUmBjPWciqL7HM8uHwiZSRKGieObi3ZF/XxWwn76VmUht46KKfmYbbORvRG9+7WA8Id3Qke10ZlnnuL1A7w/zYs7ob2QkcBuiHeW1cRt8MzOB7kuJ5LZzBth/ifdOFu+AiIcVDgHhrNBKrlVHAeH0tbfhIBzSOdM6W1l63uyiBG/w2Moqer8+nE2NYyMEXru1IuDA/QbeIZDq76wppS+lxbwsvoBweGcBOnId64F914d60OO5qcxhsvjiKX29Wc5yqAUEhHOoOU1XGIiXoT4ITs4zF1KO/Pt/4oJpd205b9qYzggOrJCAcA40pkWKglhQw8gQ7awuo4/HhygXONH65Z1R/rx52zs95XRLLZxaor7pKcI8UKuPivcr/ffRw+lxBKBTjo1bAJGboL/ZW1dBSPHFPF5Fe6FMiJW8xXc3/aIwi4r7e6ls4CTzjoJ7VF6bsMHASYpvb+Ko9ct8dytrP80v4CPvDnbn5zbWeGbnhhMQbuPjg/xSjQUEhNNnV8NBOKTnNI2NcNj9dcHupgamLvbeQXdE+tKB+kpWuMOO6GogHNI1QGIMgPEvpQX0qcQwutR3FyHNUEAxscFaPgAf+UJyJPk11Bqy069v6LD/WQLC2buNuyYn6MnCLLoh1EvppP6B1GiKajlOI3OztjaogHC2bt5Vbw5qoUeHB+mZ4nzCHE4lyKEtkiGMBU5dI1I1MWcFn+TvinKVjhuX++5h2hJw8MmxcQtAUARjPaKRkWGgUkzkAs/tdFdMIPkfr9t4heWXK1qge3KCfnckl/natHFA1Tt85HyPbfSrwmxqHx9j2qEVK2WSLwWEM0lDSDVetoCAcC+bYs0PhoNwqB3Iqv2O19K9yRGmVkp9e8A+5oLL7G5fFXwDKDe7dPqhn9jRQvenRjE3xFqgi/xPQDnNBwDAvclzG++yY4GBCaQcxlhAQDhj7O6sq4LwHMTniI5QNZlHuUhDyu/poon5eWfdmiHXERDOELOb5qKYFwEYc0akyiU+u+izieEcKe5sAyAqBs/lP5UcUjpusEpjcgRvUjv7Hu10PQCmqZ2t9LBiAR6M9Zf77aGf5KezaJudbGiGexmem2UOcYiVqXxeLy/7ofRYSupoZtDdDDZYrQ4Cwq1mGfneKAsICKfP8qYA4cCZ1jQ6TL8pynlJKdR8fGnY3YUgQ1BjPbVNjK0Kwg3PzlBWdwf9ueQQp2eAnNXsabYaACTvxoOB4KL4aFww+TTUsBIdFrZyGGMBAeGMsbuzrgqQ+3vZKQQC9OUTb0d/fjQnhSkJkLpn50NAODu37tnvrWdqkqJbG+n2SD+OInF0P1peHvjnPhgdQHXDAywIcvbaOfYM+PrfygoJysfnHHhByfiBSJy7YwLp2MiQYyvvYqVBEO25skKmvFnuQyo+Xx10gDyPVlHLuEQvOtrNEHGLvgCQU2U043K/gPrzs2WFhLHNzIeAcGZuHdesm4Bw+trdFCAc7ywuLXH63UfigugSEyqlvs1/L2EHprT/JEc0LE9DBYiIKIe64UEKb26gJwoy+YGP0HdJPzUe2LIKuAhfgQrU08X5rPymrwvLWaosICCcKsuao1xwLX0zM1G5Wh64HaHMB4VsOx8Cwtm5dc9+b+Ddwpj5v1lJ/Bxbvph19GeQs98Y5kXFfb00a1C/+ldFEV3otUMZIHCu2xbmq6wc7CfhhT27/610BnwSwM1X0+NYXdPRfri8PMz3AQzn93axevBK9ZHvNm4B7fmCfneFk5RSr/DbSw+mxVD9f9LtzdwHBYTbuF/JL9VYQEA4fXY1BQinVbWkv5eeKcmndwUdMF1a6gej/ekvJYeoY2L8VVFw4IUD/xsUrHbUlDIfxH957xTeN+G+W7cPaIqoWSc6aHR+TusW8m6QBQSEM8jwTrpsy9gIfTU9lrDBsnwx5ejPP8k/yOAEdvLtfGiLpKeL85Ta84EU1+DYs6KvDMxOM2fuJ+JDlfoA+uh7QzwovbPNMK7FbdUlnH4IMn5Hjxlaee8L9aS8nk6aXLB3KrsqX4d4Wl5PF90Y7q0MLNXaCnQ1Xz8YL0IaqhrzpXKDm47S/8SFMACu2V7VO8B+KN1mn+igcRPPyQWEU+x0Uvy6LSAgnD6TmQqEG5qbofSuVk7HQ1qemSKYvpmRQAe72mh4dvZVIBxSU+Pam+iHeWn0oegAnpQhjcBMdZe6WCMa7+Zwb46ihFAJIi3lMNYCAsIZa3/VV0ckHBZNWDypmsSjXPDO1Y8MSiTcgecdYmcB4VT3jI2XP7W4QEUnT9B3spIc0tZr9UuoF0a2NBiWKga1TaSyIzV2rXpu5n8QuohpPU59M85Xgd24F5jnl4hg2lFTxhv757ipSRvW2vfDsUH0QlUxnTRAsdc8FldfE/CrQlDprX57lPU7rU3x/s7AA7S1qoQzndTf3cauICDcxuwmv1JnAQHh9NnWVCAchKDB0/PU4Wy6NcLHFEAWopOwSIPCKdR5phcXWXhhaHaGKgb6yONoFX03O4muCXajC7y2m6LOArpZA3TT2kkTY/jawXiKbWuUKDh9Y5fyswSEU25iQy+A6OVvZybSOwP3K53Mg6y+aqifOR4NvWHFF5dIOMUGtkDxSNnqn5lmFUPw6CKSZPmC1pGfAYD5H6+ljslxQyzjdayGlRoxR3TkfS0vC/QUB+orRZxhgy0MQQYI41zqs0tZG6G9APA9kpFAGd3tpo6Y2qAZTfUzBD74NNQSQHiV44vWDyGQgrZN7mgxlR2WV0ZAuOXWkM9msICAcPpawVQgHKqM1M7cni7mFcEkTgMqjHrHAPzJhFAKbqrn6CTwv43OzVH1UD/9sTifud+Mqptc11pg22rthUn82wL20T8qiliFaUnEGPSNXorPEhBOsYENLh4bPt/PSaFrg9UKM3w3O5k5HhElZOdDQDg7t+767g2RI2/x3UUqUzVPk+BXU8v46Poq56CzOS0uXm1a3JX+++hPpYdY2MVB1XaZYsA1DQATKb3ITtFAFUe/A4A71+0F+m1RLg3MTBN46ORQZwGswUr7e+mOSD9eHzq6Pc8sD+tQRKTuq6sgs8qkCQinzt+k5I1ZQEA4fXYzHQiHB9jg7Azzq90S4UMXee0wFIhDlASUTov7egj8EkgV9DxazWlMt4T70GW+uw2t32rAjnxvHYDuCr89BAXFlI4WWji1RC+a9lGvb1Cxy1kCwtmlJVe+j46JMfpxXhq9J8Rd2QINE/qH0+MorbOVxm3O6yQg3Mp+5orfehytZh6u8z3UpWoiSgwL48YxY5QoEbX+QGo0XaIwyuotvrt5boAIKzn0WwB0HiemJun3R/LoQq/tSvngAPDdEOZFe+vKaZ7nb/rrKWeu3wJ4zmAd9u3MJOVR7Hh+Q4n1As/tDLJ2TU4QeMDNdggIZ7YWkfoICKfPB0wHwmnVxqDy0/yD9I6AfYYpjAIAvDPKn2JbG6lysI8JcrHDC5XUy3138+6agF3WAbvM2FYQ8YCPBTbWU5tBO/pan5P3V1tAQLhX28Nuf2FC/WRBJt0Q6qkUhPtCciSFNB2l4blZu5nwVfcjINyrzOHSfwQ21tE9sUFKydPB1bSzuozVL40wNoD172QnEYCyM6NnHPU35qDIxAhtOmrELVr2miDRz+ru4DRCV7QBFQAAIABJREFUR7XFauUgWwYCP4kdzZa1l9UqDt69FyqL6cMxQcr63pntDbqYg11INzafSIqAcFbzYPvXV0A4fW1sWhAO0XDgc7gj0pfe5GmM0AEAwK+kxTCfT0pnK/0kP91QUNCMIJLUaXMg5LuD3ei7WUnUOj4m8W/6xiynnSUgnNNMbciFwPH5uyN5zOt05oTbkX9/NC6YdtWWUZ/NCbsFhDPEjU150YiWBvpMYhhd7L1T2SL5qoD9tK2qhEC+b8SR39tFPz+UoZQgHqIPVwe50e7acnpRaCp0NzNAmucri+numEBl/qc9I7BO+FfFEaao0V1BOXFTFgDImtHVxhlJWjuofofw3j8riqh3enJTdVfxYwHhVFhVytyMBQSE02c904JwCOtGyPEfjuTRB17K/Xc24IMIJaie/rwgg+5PjaL3hHhwaLuz6yHX2xzQZVb7gWsCu2uJ7c0ixqBvvHLqWQLCOdXcTr+YsxZq7w/zol8WZlGXQQTyzjKsgHDOsrT5rwPV0s8nRdDF3juUgSDvCjpAe2rLqWFkyBCDlA+cpGdLC5SqKyMVDpyx4B8emp0VvjEdLQ3eruaxEZ5bqVa+PtdtC2F8B2k/AgfkcI4FkG7cMzVJvzmcwxlJ6CeqQbi3+e+lh9JjqXF0mPCsM9MhIJyZWkPqAgsICKfPD0wLwqH62O3I7Gpn8myoG4F7wZmAyo1hXnRvcgTh/XI/4X5zpu3tfi2kmdwc4U1bqoqpd3qKRT/0dVk5y1kWEBDOWZY25jpYNHkdq6ZPJ4YpncBf4b+XHkyLJfiT2SbvjrS8gHCOtKa1ywprOkafSghlTl9Vi2NEiIF7DoCLEQcW4/vrKwncdKruUSv3e9nJVNp/kqYW7C3u4oh2HJufo5wTHbx5f75C5Vq0DdYlAJtrhwaYz9cR9Zcyzm4BRIUCiAMID9EEbGhrfUXVO64BMQikOUOcz0yHgHBmag2pCywgIJw+PzA1CMcD7dISuR+t4pQh7Ko6E5w5z30LD+7OvKZcy55Rb8vbFSkmSGF4ojCTeQb1dVU5y9kWEBDO2RZ37vVG5+corr2JvpwWo3QC/3r3rXR7hC8rukHZza6HgHB2bdn131fA8Tq6OzqQCc1VLYqvCXIj/+N11DExvv4KOuAXiKSNaWtkEEDVPWrlYqMAgmBQ35RjbQscHx1iwQ5ESmr2U/V+c7gPPVWUTaA2kMP5Fohva6IH02LoEoVp78t9BzyUSA1vGB12/s2ucUUB4dYwjvzLEAsICKfP7KYG4XALCPqFKMK/KooI/FnYjVgOaKj+DCBO9TWkfNeyMRR1PxEfSuAZ7JdJtb6RyoCzBIQzwOhOvOTkwjwV9HbTtzMTlS7WzjnwPL072J2j7loMitpxhlkFhHOGla1xDaiWqo5QQZ8C9xzS0ow4phcXqPBkN6cjoo8vX6w7+jPu9Qe5adQ+MWbErVrqmge72lhRVqVghta+9yVHUWjTMduL7pjVASoGTtJz5YeVpoRrbY13+NT/ZiVRWmebqUwiIJypmkMqI5Fwun3A9CAc7gTh5ZjsPJKRQNj9FNDKtUAru7T3eR5b6Q3uW1k17u/lhwnqjEsm45bQPXK4wIkCwtm7kWcXF5nfBSrc5yjmlAHw/nhuGmV2t9uWYF1AOHv3Fz13Bx9AyuRzZYV0ic8uOldhv3pviAcvhocN4uI6RS9S3fAA3RUdwFQpyxfrjv58odcOnjfk9nTyfFhPW7jaOdiwR4qix9Equj3Sj97kuV0ZMArQFfPSnx46yD4ws7joauY2xf0iGjW2rZGB8Ne5b1HW3lp/Bj/jrRG+nJ01v7RkGjE1AeFM4Y5SiWUWkEi4ZcZY46MlQDjUf3huloIa6+n+lCiOhgOgYRdwRu7DNUBFAHAIm3/qcA41j4+QnVPT1hhzLPMvAeEs01QbqigA8PGFeXq6OJ/BApVAHPhMbwjzpP31FUyu/qJppu8bMt2KPxIQbkWzuNSXeKa1jY+ymJW2cFXxDhAEXL2l/b0EES+jDvDR3Z8STQDZVdzn8jKhBrujpswwNVijbKz3uhjPwdUFEQtQfqiMTgTg82afXfTvyiPMBWfH8Vyv3Y08D88cqCP/T1wwAahe3l9UfIZPYe35h+I8XpMunjpl5O2/fG0B4V42hXwwiQUEhNPXEJYB4bDrAHW55yuP0M3h3kz4K+CVa4BXdmlnELR/JyuJwGMxtbhga5J2fcOPuc8SEM7c7bPZ2mHhtPjiKdpRXUrvDNzPk2sVE3eUCRW9C72204/y0qm4v9eWBOsCwm3WI63/+5G5WQpvPsZq8qr6EspFlNM9MUG8AIffGXV0TozTEwWZdEOYl3IA4GLvnfSZxHAKb26QucMKDT4xP0+IFPxWZiKpVsuEsBYoRUKajtpwO2UF45r0K/CGd0yM0ROHMumGUPV9EGMPfOsbGQks0DCxMG8KywgIZ4pmkEoss4CAcMuMscZHy4BwuAcMuPk9XfTLwiy6LsSd3uTpXLVUu4BBch/OBy8v991NH48PoeDGeo4UWKNPyr9MYgEB4UzSEIqrEdx0lD7KO+nq0pc0QOKD0QHMYdMyPmpoBI8KkwoIp8Kq1ikTqYBNYyP0ZEEm3RjurRSUutx3D30pNdowZVStVcDpurumjD4WH6L0fjF+QODlCr+99JvDOXR0eJBmlyQFUmsHvPfNTNH26lL6SGyQ8rbAhuqvCrOZU3R5HeSz8y0wODtNPsdq6LOJ4crbXXuOfzgmiLZUlRDSYc1wCAhnhlaQOiy3gIBwy62x+mdLgXC4jamFeSrp76HPJ4XTW/32SEqqCEeY3gcg7nFnlD89U5xvGIn06kOA/Gc1CwgIt5pl7PW9RuR9md8e5ZN4CAuBrwiiLFA6xMaSXQ5XBeGQkoSUSERVGhmVZbQfIQoOnId3RPoxZYi2YFXx/p4QD/pRbhpHwRh53+Pzc4Tx42sH45SPHZodkXq3q6aMeqcnLelvGPMcPeqhzNbxUY6CQ9quZisV76AtgFAG6HEQCSmHsRaAQAoEGh7LSaVzDrygtO01f3p7wD7mKMdmmhme4QLCGeuDcvXXWkBAuNfaZKVvLAfCgfcBO15IeYA0NYgyRcHU+ZFdEk2nz+aI1rw66AD9riiXaoYGCBMGOaxhAQHhrNFOm60l+iW4fd6hePGGCTxSWaCwBm5TLOIAXNhFnMXVQDgsvgDAZXV3ME1GQnsTYcwASbsrgXGAVBZOLVFyZwt9JzuZECWkOh3wntgg2lpVQn0Gq4sDfIViKVJSVd+zBgCAf+5TCWEU1XKcKVo2O/458/foFwAusQHhSD4tpKIe6u2iD0UH0Bs9tikFYi7w2k4fjgmk4r5emc8503lWuZbGBfjXskLm6VMpBqP1QXC83hkdQHk9XezPq1TNaV8LCOc0U8uFdFpAQDh9hrIcCIfbAj9c99QE7awppbtjAum/vHeaPhpKQCt9oJWd7HS+x1Z6Z+ABejQ7hSNfzKSmpG94cO2zBIRzjfZHSklcWxPdFO7NzxFtoq3qHaTeAOLAKxPafIxT6sARafXD1UA4gAgAE7ZUFdNdMYEchfOX0gLya6ilg91tVD3Uz5HPECtwdOSPWXwFC2AAyXk9nfRkYSar1yPaU1Xf0cr9SnosAfQcnZs11BTw+ZmlRfpXRRFd7reHXuemXqER5PC41v9mJTG9BTixjBSnWKsBtDEBQGXRyRMU09rImw9xbY0ObTtEJEEV9ZogN+W+h2t8LzuZ2sbHTBEFtZb9XeV/2BDxbahlYAwb39o4ofL9XYEH6EB9JafgG21nAeGMbgG5/pkWEBDuTIus/LclQTjtVqoG+3jyc12wO6c/2AnAkXuxPmh3qe8u5orJPtHBCxXNb+XdGhYQEM4a7bTZWmKheGxkiD6dGMYbOion7svLBtH6h6IDGbRpHB3mzSXUxaqHtuB+ujhP6SLogZRojgIC+GPkgahmzEF+kJv68v0CYL3Mdw99JjGMninJp6SOFuqanKDJ/6jwYhMGoJV1W/gVa2PRu/TiKRqfn6ey/pMMSiBFb7l/q/oMEOqn+Qc56tAsvGgBjXUMxF7gqZ5XEnaFDeBrD6RGU1jzMY4IBChsBu+Cf8PPAQyOzc9Rw+gQBTbW0+O5afS+UE96f5gXfTsridomxl5xqE1+QjQqRG+coVIL/r/dteUEPkA5zGMB+MAPneQD6IPwNaTAIgXf6ENAOKNbQK5/pgUEhDvTIiv/bWkQbnxhniXqkQpwS4SPRMMJP5wpfAAS5kiT/mJKFO/OIWoTpNVyWMsCAsJZq702WlsACt2TEwTw6LYIX6cACZjEI2rmzT676AORfvTj/HTCQh68RoisseLhaiAcorAS2proK2mxL/sMwJHz3LdypNL1oZ704dggFhD49eFs8jpWTUV9J5jM2+pAHFJua4cHaE9tOT2YGkPXBrkR0vRUAW9auQCeLvXZRX8vP0yTiwsMBJqhr0AwDPNQ8BRrdVX9Dl+7wm8PgSPuj8X5lNndQaNzc4amt2upgUf6esjzaDWLdNyXHMljHCKHLvTawRsdqHP98KBD0rbRl3waaugDUX4s1qba7ohALDx5goF1M/ie1OG0BSAK41ZfSfAz1T6A8qHQfFukL4/rRo/nAsJJLzCbBQSE09cilgbhcIvYaUvvaqOf5B+ka4NPTwQlisz6UWRWbsNLfHYSOGug1IVFNdKR5LCeBQSEs16bbbTGWLwiRQo8o1jcOmMSr10DXFJ4diGqBeBCREsDYRHbNj7KzzfEt1jhcDUQDpEwe2vLWfVaa8sz39G2oCWAkMDnkyIYqNlZU8ZpeQW93RyBiXRoRHSZOQoSdUPkH1LwAECENB1l4AfcZACSncHDBNsCxMGzFZFVZjqQbgkQ/b0hHk6zheZr4EC7NcKXo4AAfCEiqGF0mIZmZ3jzD5sMKg6UirkNUrIbx4Y53TShvZlT9H5RmEWfSwrnce3M9GT0iRvDvCi3p5MmFuY3VTVE/w3OzhDSwFX7IXz8Yu8d7PfgpQYPohzmsQDWgvApiKBhE1zrH6re4Q+gQoLgGp4FjuQ4XK9VBYRbr8XkfNUWEBBOn4UtD8LhNjEZwMP/4fQ43hkUoQYB4YwC8fDwvz7Eg3bUlFHd8KC+XihnmdICAsKZslmUVAqRqiemJuipw9lMbeBsIA4LBVzz9e5b6ZZwH07dwqK+crCPRudnOToO6YyY6CMNUM2yen2mxeIe9UB9UK/ZxUUanp2h3x3JVboAMks6KqInf1uUw1H461noXei1nRAlh5S8rdUllNbZSh0T4zQ2N8dgHNL44I/c1pxiuL522ezZaFOAbrg+fA7tiro1j42Q//E6+m52Ml0X7KFcAXUlm77Nfx89dTiHCnu7N3ubDv09ABmkJoOwX7UwwEp2wXcYO2AfbCRgAxBgKcCB6cVFBste9quX+iui1vBCWy9/oT9r/4MP4AV/hC+gDPgDIiEhsIAofwAfiIj8QU4q/XeUH13kvYPOdV+bGw+8avAl+P1mDnBpYsMCPrmaXRz1PcD0G8O9yL2+ajNVlt8qtAA2vbEOvNJ/n3J/0PyKIyN7jY2MFBBOoVNJ0RuygIBw+sxmCxAOt4oFVHxbE92fGk3vCNhnirREo4Agua5xICTUubAzhgn5Znd59XVhOUuVBQSEU2VZ85WLRSiikUCq/z9xIbyQ1CbZznwHEAeuOKTU3BHpxyqI38hM4FRZ74YayjrRQXXDA5zSaKQKJ4CaqYUF6p2e5LRERN8EN9azSAGio1TazCwgHBZ8j2TE09vXueBDSiW4w64K3E83hnmzuNS9yZH0WG4q/aX0ELnVV1F063EWOzg6MsRACgAQZwCvAFnAtXd8ZJgjqkB2/reyQgaF702KZJ+8KmA/p546Sw1U8yVcD5xiUa3HqXd6ylSDCNoGAgmIAAPnmVZnZ75j7EDU2dv897LIDFI+AciBPw8RthAuiGhuoNTOVsKiHUIJVUP9HDWHVL6msWE6PjLE4wvA//KBk4RoTWSaxLQ1UsDxOtpXV8H+8PNDGSwsA79FZOLN4d48Zl3is4u56s5xe2FNG7w9YB89W1bA19hMQ56ORq2gj8eHrnk9R7QDxHQAuAA0l8OcFkBU8fOVR3hMdUSb6ykD84VdNWXUZ+CYJCCcOf3RlWslIJy+1rcNCLd06hQvCLyO1TBHCyYiiEoSQMo4QMqVbH+R1w6OiPhdUS7v0oOIWw5rW0BAOGu330ZqXzZwklObADQ4G2RYacKvpUBhYY90xsfz0ugPR/Lohcpicj9axWmB8e1NvFDGRPxQbzcV9fVQSX8vlfX3ciRdzVA/A2Xg8MILGwRYYJcP4P2VV3FfDx0+eeI1r/zeLgZksHiHiiyI4LEghzLc8xVH6PdH8hikeTAtlj4SG0zvCNivdEFsBhAOkUK1QwPMx4UUyZXaTu93ACwAzIFP7NYIH/p0Qhh9/WA8/TgvncHXrVUl5Hm0ilUlI1saCO2d0tnChODgIkNUWHF/L/PjQiShYrCPqgb7SWt3vGugCvwbkUNoZwAsEA1K6Wih2LZGVur1PlZDSJf9c8khejw3le5LiaLbI30Z2MHz3IgIUc2OiG55KD2WaoYGTEnxAPAS4OmXU2M4JfVsQJR2X6reMX5hDgywF7yTn0uKoK+mx9F3s5Lph7lpnBr9m6IcFhBBOicAYLQ7xhd8Dx7Dnx06SN/PSaVHMhLo/pQo+mRCGN0e4cuAG+Y8G01DBqCF6DUAfBs9sHHSMjZC389JYU5CVXbUyn1n4H7aUV1KR0ckw2Gjbab6d4jOhFAC/NVZY9XVQQfYlxEpDJ804hAQzgiryzXXsoCAcGtZ55X/2QaEwy0tj2aAghEIfCU1VUA41WDg+R7bCA/ip4pyeGHzSveST1a2gIBwVm69jdV9cmGBDvV0051RAYR+rS3AzPgO4AZKnDeFe9MnE0J58f+tzERW6/y/Qxn0q8NZ9Pv/pIb+tayAnisvfPkF1c7Ti+wc+lVh9suvnx3KYLU3LGq116M5ybyguS85igE2gIFX+O9lnjOjQEozgHBI8QOIdUOoJ/2//f9W7ica/9A7Aw/QTWHe9OHYQPpCciRHI30vO5kBuycLsuhXh7Ppt0W59MeS/JfbHe1/GljJ5UitH+WlcTsjqgfACiKZkB57qc9ueoNJfR4LakQ77a2rMK0qJdI2B2enGdS6yHsnneu2dkqmGccUZ9UJKdmI1EP07EaPuaVFAqh8Z3SAcr/FWAceu5wTHZyGu9E6y+/UWgB9EByF2Ax31qYBrnNHlB9vfBml1iwgnFq/ktLXbwEB4fTZzFYgHG5Z2x0LbqrnhQl2l1WDMFK+awN9UOb9eUEGFZ7spuG5WX09T84yvQUEhDN9Ezm8gpjEg2T9mZJDnHrnrEXpRq4DYAJKnIhIucx3N0crIQoNqazgXHp3sDsLAiCFb/kL5PHXBbvTdSEefA7Owwu/wW/fFXT6hcgPvJA6hufopb67CItnpLwBYDAq0scMIBz44EKbj7HdNtJ26/3NOQdeYM4vRDahvUFCjzZBewOYuzrwAEcDoR3Rtmjj5W0OYQh8j/9jwwjtjAipK/z2clmI5oOqt1HA6lr20ADIXxZmsZCFUQvdsw02iIFBOm94cwN9ITmKSdvXui9X/h98DWPL7tryDadZIx3cp6GWxzHVfouNhy+nxXAUHJ4RcpjTAlof3F9XSe8P9XKKQAN8D+rQnseqqWV81BDDCAhniNnlomtYQEC4NYyz7F+2A+FwbyDJ7Zwc5wf8F1Oi6Ar/PZKa6u7aQJkKoBQLUuyOPlmYyWkV45KCumxosf5HAeGs34YbuQNwOYJs/PHcNELaFCLOXHnBbLZ7NwMIh5TI5yuLGcgym33sVh8oUn4mMZyCG49yGqoxCV/6RxKkfG+pKmHQE2IJdmsPR9wPgAsIWPy5tIDG5+dZ3EW/hU+fmdfTRYj4favfXuU2Bj/nn/6Tog3uaTnMb4HkjhaO4MZmhSP89WxlXO63h6ORAYYZcQgIZ4TV5ZprWUBAuLWs88r/bAnC4fbAETcxP0dex6rpo3HBvJjCDr4KMEbKdD2AD0pZiCh4oiCTMBmUw34WEBDOfm2q944Q6wD1vrtjAmmznF9nm8DL/59f10LJDCAcQFqk717uu2dddZe2Xl9bIwoOEXzgH2wcHdbbfQ09D5F64FwEt98l3jvFPw6s3uYQjUC7QnF1PQd0mU+Pz0EscqK6X4HnL7a1kUbn59ZTTTnXIAuArxNAOLhdVfsGyr/AazvdGeVPELIxYpNAQDiDHE0uu6oFBIRb1TSv+odtQbgXX3yRpdXbxscooqWBHkiN5vB3AcxcDzBT0eYgOgavEgiuh2ZnXtWp5A97WEBAOHu040buAs8PtP/++kpO60P6lDMm83KN1Rfsmm3MAMLFtDayEvt/CciitF9APRYbXRCasIrYEShRoNKIDWBE8Gl+K++v7dsPp8etO4sAoiijc7Os0greZ5WRykj5R/lPFmQS0l/nlpY28jiR3zjZAhBJgejHzRE+Sv1D69PYLEDU3bOlBTQ8N8NrT2fesoBwzrS2XEuPBQSE02MlItuCcNrt44ENOXvsUHwjI4F5b94kqqkSEbiB9FyIfGBn+66YQFatQwQcUtfksKcFBISzZ7vqvavpxQVWE0W6+c3h3qZQPNQm/a78bgYQDgDLLeE+nFLnym2h6t6RxgmF+8dyUimts5XGLBaBhGg4RHghhRFci+BuVGUrK5cLQRlEOYJMX++BcblsoJfFY1RzwWHzBRyZ26pLaGZx0TD1S722kfNOWwC8fVCxRfAFUkWd0UcA2EIkByrjUwsLTm0KAeGcam65mA4LCAinw0jkAiAczKCRdUI+/qG0WLryJXU3FRFSUqY9I+0wGQMHHJQIt1aVUM1Qv74eJmdZ1gICwlm26RxWcSz4qob6mXsI3FTY8XbGhF6u8dqoGc0mRoNwmE+8UFlMb/bZ6ZQoC+2+XeUdwAqiSj6bGEFhzccIG6mITLXikdLRSt/MSGThFCzSXaUN9d4ngGwoWULoRO8BwM69vpI+lRCm3J4Y8z+fFEGRLQ16qyfnmcQCPdOTDIKDz0+vP272vE/EhxJEIQacnB0jIJxJnE6q8bIFBIR72RRrfrB9JJx290gR6J2epKz/SIz/6nA2K98JYGZPwMzR7QouwYu8d9B9yZG0v66C6ocHRaZe61g2fhcQzsaNq/PWll48xVE4SG1BWtyVAftIFtPGgglGgnCIsBicnaHfH8njaHLxBcf7AtR470+JJqT8dk6MWxaAwxCDOWdiezMDOVCz3ewi326/x4b41w7Gc6qnziGZOibG6Ye5acwVqNoeV/rv46wHRDfJYS0LIGU5rq2RwOen2k+08hH1+mh2CoEGyZmHgHDOtLZcS48FBITTYyUXiYRbbgooMYFU+eniPLorJoB3XJFm6GjgRsqzh00R/QYBhgfTYsitvpKaNkAivNz/5LN1LCAgnHXaSnVN+2am6WBXO30vJ5muD/Wg17ltoXMOSFSctvhw5ruRIBxS0qB++XhuqtMWds60rZHX0lL/HslIYPoQ8Kph89TKB+rfMzXJm3f3JkXQxd476Vw3UVvW/AzUMPfEBlHVYB8tnIIcztoHIpMBiH0sLoRtqZWj4h1Rz+8L9aTw5mOiirp2s5jyvxD7aBobYT4/CKmpTl2GD17guZ39uQgpqYvOS0kVEM6ULujSlRIQTl/zu0wk3JnmgHrOtqoSujXChxByLkCcPUAzR4GfWBDgwf2uwAP0pdRoyuxu5wiIM/1I/ravBQSEs2/bbuTOQAx/uO8E/SQ/nS7z3XM6EkrSU50ORhkJwoGbLLmjhb6aHuf0+1YBNJilTJDfX+F3Oioqtq2RARlrw2+vjDBIpx1fmKfdteV0U5g3KylKBOUrEZTXh3ry/EoP71/X5DiFNB2la4PclPe/0wBhIFOPIAJWDutZAK22o6aMEF2LtYEzxrtrg90psLGeOifHnWYwAeGcZmq5kE4LCAinz1AuC8KBUL9hZIgf6N/KTGQS4DeKYINEBL4UFQlgFlwSfziSR3k9ndQ/M03zooylb1SxyVkCwtmkIR10G1hMQ3XtUE8X/aP8MBPzX+i1wykTe2csHqxyDSNBuIHZaSaSB/ePVexl5noimhQAHMSOnik5RBA7skME3PIhB3x2iy+eJop3P1rFkTLgvDNzuzizbsg08DxaTS3jI8vNtuLngt5uppO5wn+vcvu9N8SDfpp/kNonxphXesUKyZemtgD6HrjAv5gSRc5Sskba+ROHMim/p8tpthEQzmmmlgvptICAcPoM5bIgHMyD8PfeqUkmXUV6CaLiIHnuqGgqKcd60XWIiMSkEGS8fy8/TJj0iSqWvsHEbmcJCGe3FnXM/YzPz1H1YD/9o6KI7k+JoncHu9P5ntuULwqduTA287WMBOFOTE3SH4rz6NYIX2nvTQoNINIIz9ovJEfS85XFVNzf63RVQceMCPpKgWJq89gI7awp43ED6q/Ois4xc3+GHUAPczbeNaT2BjXWcyoqaEJU39OnE8PI81i1ZEDoc2/TnlU+cJL+UlrA0XCqfQblY2PuI7FBHA3nrHR6AeFM634uWzEB4fQ1vUuDcJqJZpYWqXaon54szKTbI31ZBRNk/AKiWQ9E22ibAXxD+il2qMH/5t9QJ5MvrYO46LuAcC7a8DpuG5NrpKcmtDfTozkp9M7AA4RnhjN4Z5yxkDDzNYwE4UC4/Z2sZKYpMLONzFq3c9xe4D6CvnJdsDt9IzOBIHrSNzOlo9dZ/xSMG9jUQ0rlvckRrJrq6orL2Pj+dlYSpXa2rtrAsBtATEQgX+IDXj21fJxIF/5+TgqVDZy0NTC8qsFt9A9kscS3NRHSnp2RBg7Ox4u8dtBzZYedtoEvIJyNHNYmtyIgnL6GFBCOiKCAh/TUuuFBJgTq1+XVAAAYMklEQVQ+vajaT5Ke6jogHCZ2t0X60J9K8nky2D05Iemn+sYQ254lIJxtm3bTN4Y0F6SnAjwo6e/ldCosJMEHA4DBrCCIHeplJAgHZcbHX1JmdMaCzg7ttfwe0DfAs/rt/1CAIDUTUSoDM9M05yJUD6fHjVOE+QWEXp4qyqH/jvKn17tvdQpAsLwtzPAZfegy393sD2uBcBBkqBzsox/mpfHmuMq+B4DvEu9d9GxpAdMPYJyXw7oWmD+1RFWD/fTZxHDeZFft91qK/Q9yU6ms/yRNLy4qN56AcMpNLBdYpwUEhNNnMAHhzrBTx8QYRzf8/FAGfTgmkCcIiJDaaISV/M7cQB7SGt4T4kFfTo2mf1YUUWl/Lw3PzZ7hFfKnK1pAQDhXbPX13zO4Ijsnxnm3/Y/F+fSVtFi6LcKX3uK7m/muVE/6Xa18I0E4PBtAuv2bohx6KD2W044Q0QW+IdXROVZtZ8yBEGEOug/0DfCsxrc3Uev4KAGUcsUDd420dvBG/bvyCMGn4UeuwDGp+cONYd4MjPwoL508jlaz6vBqvjA4O8Mb5J9LilC+wYE0aQCjPsdqXNY/V2sHq34PQY9fFmbR+8O8lPuPNk5/OiGMvJyUziwgnFU90771FhBOX9sKCLeCnbAriwnilqpiJgy+3Hc3R8VBMVNANXODanrbBzvyF3huo2uCDtB3s5N5AT29sEDO4nBYwe3kK5NZQEA4kzWIBaoztbhAR/p66G9lh+mjscF0ue+elyOqJVX1FUVEbaGy2jsiXQBqvc5tC53nDqXqbfRGj210ged2+trBeIprbaLRuTnDPAIAytGRQfJpqCHwyX4gyo837N7kuZ0jIVFvV25v3DuexdjABIk+hBf+WlYoHKsreCyAXYBxSH8ESIAMDDv5D3wB4huYc6F/XOm/j+6KDqTfHM4hLNQgxAF+5rUObI7/36EMuj7EUzmIgsg8RNxldXesVSX5n4UsMDQ7Q8FN9cw/udozx9HfvzfUg36cl04dk+PKwVwB4SzkjC5SVQHh9DW0gHAr2AlADMLfW8ZHKaWjhRDd8NG4YOaKA3eYXqBHzjOnrTDJvdJ/L301PY7211UwITTSypB24Ko78yt0A5f/SkA4l3eBdRsAY8jo/Bw1jY2w0qNvQy39+nA2fSYxnBW48fxw9GTfbuVhwQ6eKCy4PxIbTF9Jj6Uf56fTn0sLaE9tBWV2d1DP1ORZF+7rbrx1/GDx1CnmBESERe3wAOX2dFJo01HmrHo0O4XnC1cF7mfwQWXqnBnbHqDLOwL20ScSQunJgkzyOFpFeb1d1Dg2TMOzM7LRdYafAYACEFczNEBhzcfod0dy2X+gsmjG9l1PnQAmvtXvNAj7nawkFrsCH17ByW46NjLEqvPY9F4rHhL/rxjso4/Hh9LF3juV2+TqIDdyq6/iMfyMppI/LWoB8DBi0wSgmLM2R5Bl8z9xwcwrCD5DlYeAcCqtK2VvxAICwumzmoBwa9gJE4OJ+XmObNhRU0pfOxhHN4V5cZqRAGzmBNjWahfmowk6QB+PDyGkG2PR1DI26jJ8NGu4uvxrBQsgGvaRjAS6Kcybrg1yU/b6YkoUbasudRly8hVMbcuvsLhGlEfhyRPkfayGF9ffykwkpKncEelH7wzczxs7IHJez8LWaucyR47bFo5iu8xvNwGcAgXALRE+9MHoAF6oIM3sS6kx3N++n53CwOXfyw7T/rpKCm9uoIyudl6It0+McwSc2SKWAb6OzM1S3fAApXS20IH6Snq6OJ+jrKH+ifuEii7SMu0ExGJBi02ttwfs4/b8RHwIz5N+W5RzGnzr6SQAlQAtZYPr7MMcSOQRSQv/QeQXVNpPjxUHuP84C0DYyBgDsBnptFcF7Od0fIxz38xIoKcO59Ce2nJKbG+m2qEBQlTSWqDbmVYCQJl9opPHTaTsqnwWvzfEg21e0NtNY/PGRdqeaQP5e3MWWDp1mvd7V00Z+yaePyr9CGVfF+JOn0oI5WcXfF7lUdTXQ8+UHOI0atX3taO6TAIWVDamTcrOPtHB62yIXarySW0e6VZfaVmrCQins+kQ3YDJ0RMFmfSBSD+62HsHp1pIZJz5wbjTqafb6XK/3fRAajTvcoIYGQsDOcQCq1mgd3qS/lleRD/MTePFNNKWVbwQ4RPd2siL+NXqIt9b2wJYdAKUax4boYT2JvpHeRGnVd4c4cObOkizRLolxipsJCAaDAtus0RRaaqWqBOnib4UEQ6KBqSLot6cMup5Om0UvEq4J0QDgC/tbf57OdXuY/Eh9FB6HIEHChHmO6pLKfB4PaV2tDIfZ/v4GG98YdFk9QNcgX3TU4TJKO4TEXJ3xwa+BL7ueE17A4w1S3ufCcKgXmh3+KbW1mjjS313M6D6pbQYeqYknyKaj1Hj6DALXVm9/Yyu/4mpScrsbudnEKL2bwj1YhAXKZ3oa+h3L48TitVCl/vDaV/Y8qpU8Qu8ttMlPrt4wwr9G6nHUI7GRtZmRTe6JicouaOFflmYreT5u/yZjkip5yuLefPE6PaX6zveAnk9XfRMcT6L6yxvd1Wff1GYRYkdzdQ5Oe74m1lWIqL8/I7XMnCv6l60cmNaG8n6T+dlxpOPSiwAMZR9dRX00/yDysZtiGgiSwLPB6seAsLpbDksoADE1Q8PUlRLA/3hSC59MNqfeWDWir6S/xkP0oH3DeAbdmORNgR+EYSHr2c3VqebyGk2sgAWDwBNsHtfPdSv7NU4NqKLF8dGpnXJW0H01tTCAgMz8KuKgT5CGklkSwPtraugP5bkM1CD6BfsHkJFEps9Rke/YKGPRTY2Ma4JcqObwr05sgsRxYjyejg9jr6XncyTLag9/rn0EP274gjtrSungMY6im1rpINdbZTX00lFJ0+wIiZSOJHu3TY+RgAboJA5OjdLSBuyS9QU2ntuaZEjf3Cf1YP9VNjbzRFBiIz8c8kh5gFDe98Z7c+7xVBlNJPAg6b0d6nPbkKUENKrvn4wnrC4BFgR1FjPQBEEjdCe2LgAL6JscG1+iMMcBYIEPFYM9rGd/Y/X0XNlhxnERuToh6ID6OqgA8y15oxxAr4JsA1RPnfHBNKDabG88H+hspgiWhoYcIbiLdLxQfEBWpfNRq3CDogQBNCg8jmMsvGsl+yIzfuuWUtAVCXGKTx/VPsSyj86MsTPezzXVB6TC/PUPTXB61PV94XofolqVtma9igbvLlQk0d2gDKfHDw9ZuP5YNVDQLgNtBwmRsV9PYQUVSw+MBG6wm8PYWdYQDfjQTe0AdJ+sGj4XFI4pzZhsdA6McaTwg00ufxELCAWEAs43AJamkz7xBhHgqV0thIW2tuqShikAdjxWG4qfSMjgRe8AL0+nRjGYAgWwVDxA2B3a4Qv3RjmxdFmN4R50ZkvKBHeHO7N590W6Uu3R/rxb++KDmD+qU8mhBJSQpEajYU1gLVvZibwDiZIyhEBDq6qZ8sK6PnKI4S0Hvf6Kgo4XscgIvg/QGReeLKb00bB94TNDjwrZ5YWN70Qd7jhDSwQCzIsZCoGTjLnLNp7Z00pRw/96nA2PZaTwu395bQYTo1D20Dk466YABaAQDu+L9STI9CuDXZnsBYpvu8IOP1C1OHlfnt4gxAk89rrCr+9L5+DlEGAN0jngBgA/Ae+9OGYIPpEfCjdmxzJXHxIn348N+10enD5YULaR3TrcRYSQBsPzc3Q0ouSauoMdwKwicUGgCKA2qFNx2h3bRmPEz/Lz6DvZiXT1zPi6Uup0ew3aMd7YoMYMEdKKxSbkQKOcQJRdcvHCPjAzeE+7AcYTwAK47fwPYDEKBPgK6I5oTL5t7JC3jgAhx02EhpGh1jtVcBXZ3iCXEMsIBYQC4gF7GABAeE22IrYCcCEA7t+WyqLmWfsqoB9nH4DRTBRUnU+GIc0GQChiB65NcKHHs1J5tQvcNLIIRYQC4gFrGYBRJEgmgTpLAjvx4I3vr2JgprqmTcKCt5/Lz/MogW/PZJDAHEA3J35+k1RDqd//qW0gJ4tLeRF9NaqEtpfX8lpLFGtxymts43VK3EdRLIgqmlifo4WTi1ZzWyWrS/aGyAdnlmYW2R0txPSfxBRiNSOf1ceoaeL8xgUBTgKsnvwVj6UHksA7fC6NymCPhkfynMSkNlrL4Ap2jlIbwRfF1LtIRzyl5IC2lJVwsAqIpoAqNYM9VPv1CTNn1qSyAcTe5Q2FwUnIdI/4TdIY0WEreexatpRU8bp70gRBW8U+PoApC0fI8Db9ocjeYTxAeMJxgavY9UU1XKcyyobOElt46PMkwb+QznEAmIBsYBYQCwgFticBQSE24T9MBUBeWvL+AirPWGSjEkxIrAABElUnHOBOCieIl0GXEOYgGIRAU4e1cpEm3Ah+alYQCwgFljVAlhgY9ELYAbh/SB4RprXiakJBuaw6Ea6Gni4EI2C6CSkbZ35ahgd5jQcgGt4NY+N8oId0Wrgx0RkFlJCsZAfn5/ntFmkY2OjSZbcqzaPw/9xur1P8TMLcwtEEqJtkLKLtoJiO9Kp0L5amnzlYB9HHwJ8wQupoYjUB4ft8ldp/+n/4xykQlcN9nEZ8Bn4BHypc2KcwVf42cTCPPN5bTad0OFGkgJfYwH0UVCmALDX/AYgOvjUkAqNMQJtDIXahpHXjhPwAfgVxhGcC18AEAzfgw+iTJTN44GAcK+xv3whFhALiAXEAmKB9VpAQLj1WmyF87WdSExe4tua6NnSAvp2ZiJ9JDaISZgv8tougNxLRN6OBCYRbYhUmxvDveizieHMTQJVsZL+Xl5QrtBU8pVYQCwgFhALiAXEAmIBsYBYQCwgFhALiAXEAmIBQywgIJyDzQ5AbmFpiaOwDtRVMpfG9aGeHBkHcmtN/c6RYJQrlQU12jd6bqOLvHbQpb676K6YQPq/Qwcprq2R2sdHHdyaUpxYQCwgFhALiAXEAmIBsYBYQCwgFhALiAX+//buJMbrs4wD+E3jEremjdGoiXWJ1kMPYpoYjcaYxkMT46VuMdE0auzB5eKhxvSgB9OCQFszwAzLlGHr0DJsZRkYBjoVKLUTAmVxoMMsTGGAGTrDMgPkMe9be2jSQ2FYXt5+JvkfZvv93/fz/E/fvM/7ECBwfQSEcNfH8W1PSa0BqZUjtY+kuzSWHN4fj+zqzJdep4uQ3Rl3bW2q7294LA9cmNa6KH61dX2+I2dD39E8ESi1aN3oCURvK7JvCBAgQIAAAQIECBAgQIAAAQJXISCEuwqsa/3TNNEq3dPSfGhf/GVXZ/ysfXV8Z1VLnk51R9PMHMq9l06zvdu9plNvH543Pbf0fv2ZhfHAutb43fZN+aLhdcd68l0n45cmr7Us/o8AAQIECBAgQIAAAQIECBAgcNMEhHA3jfrNN0qhUbogd+HBvfHbzo25nfJTi56MjzX9MwdOqdUyhU/vNqiq7e/Sabe3JpymgPLuxQ25pfdve7qifaA3X0xuOtdN/tB6OwIECBAgQIAAAQIECBAgQGDKAkK4KRNe3QNSgDQ+OZmn2+07PRydx/ui5fD+PMzhwU2r4t4V8+OuBbPfc0FcCh4/OHd6fH5xQ3yvbWk83Lkxnti7J9b19uRThGkqXJrYNnH5cqR793wRIECAAAECBAgQIECAAAECBG4nASHcLa5WGvmeRsC/fHIonuk5EI9374o/vtAeP928Ou5fszxSG+bdLQ1xx/xZ+YRYDSff0lTTjzTOiHQC8J5ljfHtVS3xw+dXxkMdz8dfd++Iea92R3v/a9EzeibOX5qMK0K3W/wp9fYECBAgQIAAAQIECBAgQIDAVAWEcFMVvAH/PzY5GUfOjkbba/+Nv7/8Yr5Dblrrwvjc0/+KTzTNzK2raTroh+ZOjw/MeTxPXH1fw2PFtbCmSbBpCEVqL013u6Xg7eNNM+POBbPjK0vn5ZDxD11bcujWNdSfT7pNXrl8A0Q9kgABAgQIECBAgAABAgQIECBwawWEcLfW/x3fPbWsnrs0GWmgQ8/oSHSfOhFdQwOxprcnmg7sjUdfeiF+vW1DPLC+Ne57tjm3cH60cUYO40o5KZfutvvkwifia8sa47ttS+LHm9riT11bYnr37ljRcyDa+3tzm+mrZ05F39jZGJm4+Gar6TuK+CEBAgQIECBAgAABAgQIECBA4PYWEMLdRvVLwdzg+Fj8Z/j12NB3NBYf3h+z9+6JR1/aEb/fsTl+uXVdPLipLQ8y+P7qZfGt5xbHtNZFOQj7UsucHNZ9pvmpHI6l9tZ0Mi2dUEsn6tJptXRy7a0QL4Vo6XfplU7dpcERdy6YlVtI04m8L7Q0xFeXzot7l8+P+1Y256DtB2tXxI82PBs/b18Tv9m2If787474xys780m3lUcOxo6h/jg0cjpGJy6GE2+30QfPUgkQIECAAAECBAgQIECAAIEpCwjhpkxYxgPS3XInz5+P/WeGo2OgN1p7Dsac/d25nTXdMfdQx/r4yea2fHounUz7RuuiuGdpY3x5ydz44v8Duk8vejIPhbhr/qz4bPNT+efpd6l1NA2M+OZzT8f9a5fnoO0XW9bGw9s3xiM7O2NG9+5oPrQv1vcdiV0njkfvG6MxPjnhLrcyPhpWQYAAAQIECBAgQIAAAQIECBQgIIQroAjXYwlpXujElcsxNjkRpy9eiKFz49E39kakqaKp5XPvqZPxyvCJ2HNyKHa+PpjbW7cf78/TWbcN9kXH4LHYMtAb7enV3xtbB3pj2+Cx/Ooc7Isdx/vjxaGB3EKahkh0D5+INN01nWw7enYkT3s9eeFcjFy8EOcvXYrUUmuK6fWorGcQIECAAAECBAgQIECAAAECNQgI4Wqooj0QIECAAAECBAgQIECAAAECBAgULSCEK7o8FkeAAAECBAgQIECAAAECBAgQIFCDgBCuhiraAwECBAgQIECAAAECBAgQIECAQNECQriiy2NxBAgQIECAAAECBAgQIECAAAECNQgI4Wqooj0QIECAAAECBAgQIECAAAECBAgULSCEK7o8FkeAAAECBAgQIECAAAECBAgQIFCDgBCuhiraAwECBAgQIECAAAECBAgQIECAQNECQriiy2NxBAgQIECAAAECBAgQIECAAAECNQgI4Wqooj0QIECAAAECBAgQIECAAAECBAgULSCEK7o8FkeAAAECBAgQIECAAAECBAgQIFCDgBCuhiraAwECBAgQIECAAAECBAgQIECAQNECQriiy2NxBAgQIECAAAECBAgQIECAAAECNQgI4Wqooj0QIECAAAECBAgQIECAAAECBAgULSCEK7o8FkeAAAECBAgQIECAAAECBAgQIFCDgBCuhiraAwECBAgQIECAAAECBAgQIECAQNECQriiy2NxBAgQIECAAAECBAgQIECAAAECNQgI4Wqooj0QIECAAAECBAgQIECAAAECBAgULSCEK7o8FkeAAAECBAgQIECAAAECBAgQIFCDgBCuhiraAwECBAgQIECAAAECBAgQIECAQNECQriiy2NxBAgQIECAAAECBAgQIECAAAECNQgI4Wqooj0QIECAAAECBAgQIECAAAECBAgULSCEK7o8FkeAAAECBAgQIECAAAECBAgQIFCDgBCuhiraAwECBAgQIECAAAECBAgQIECAQNECQriiy2NxBAgQIECAAAECBAgQIECAAAECNQgI4Wqooj0QIECAAAECBAgQIECAAAECBAgULSCEK7o8FkeAAAECBAgQIECAAAECBAgQIFCDgBCuhiraAwECBAgQIECAAAECBAgQIECAQNECQriiy2NxBAgQIECAAAECBAgQIECAAAECNQgI4Wqooj0QIECAAAECBAgQIECAAAECBAgULSCEK7o8FkeAAAECBAgQIECAAAECBAgQIFCDgBCuhiraAwECBAgQIECAAAECBAgQIECAQNECQriiy2NxBAgQIECAAAECBAgQIECAAAECNQgI4Wqooj0QIECAAAECBAgQIECAAAECBAgULSCEK7o8FkeAAAECBAgQIECAAAECBAgQIFCDgBCuhiraAwECBAgQIECAAAECBAgQIECAQNECQriiy2NxBAgQIECAAAECBAgQIECAAAECNQgI4Wqooj0QIECAAAECBAgQIECAAAECBAgULSCEK7o8FkeAAAECBAgQIECAAAECBAgQIFCDgBCuhiraAwECBAgQIECAAAECBAgQIECAQNECQriiy2NxBAgQIECAAAECBAgQIECAAAECNQgI4Wqooj0QIECAAAECBAgQIECAAAECBAgULfA/pH0BqiMJFCMAAAAASUVORK5CYII=;" parent="1" vertex="1">
          <mxGeometry x="626" y="621.59" width="53" height="12.48" as="geometry" />
        </mxCell>
        <mxCell id="rsaEBbKv7yQd2xddFUuZ-33" value="" style="shape=image;verticalLabelPosition=bottom;labelBackgroundColor=default;verticalAlign=top;aspect=fixed;imageAspect=0;image=data:image/png,iVBORw0KGgoAAAANSUhEUgAAAWQAAABTCAYAAACoE32BAAAgAElEQVR4Ae19B3hUxfr+/am3eYu3e6/XexXsigr23igqiIIgShNEQIogohSVXqT3Ji2UCAk1lCQkJCEJ6b3upjdSSSUkIYXy/v/vbGY5Wc7Z3RQQL2ef5zzn7Nk9c2a+mXnnm3e+75tfQP/oEtAloEtAl8B1IYFfXBe50DOhS0CXgC4BXQLQAVlvBLoEdAnoErhOJKAD8nVSEXo2dAnoEtAloAOy3gZ0CegS0CVwnUhAB+TrpCL0bOgS0CWgS0AHZL0N6BLQJaBL4DqRgA7I10lF6NnQJaBLQJeADsh6G9AloEtAl8B1IgEdkK+TitCzoUtAl4AuAR2Q9TagS0CXgC6B60QCOiBfJxWhZ6ONJXDpIi7V1+PiuRpcOn8ely5dEkcbv6VVyV26cAEXz1XjwplyXGpouC7z2KoC6g83WwI6IDdbZPoDPwcJXKipQk1iDMqOH0Fdfg4u1NXi/PnzuHDhwnWT/fqiPFS47UPR95NQl5GC8+dqRB4vXrx43eRRz8i1lYAOyNdW3vrbrqIECGQ1aUkoct6K9IlDkdH5IaS9fA+Kt69FaYoR5eXlOHfu3E8OyrUZyShw/AHpI99H+kvtkPZSO5Qd3YOSrAycOXMGtbW10EH5KjaU6zhpHZCv48rRs2afBDj1r81MQdHmFcge0w9pb3eE8dk7YXipPWI+H4T4/buQGheL3NxcAcrUlK/1h9REjTEW+dvXImfsh0jt9iiMT/wDiczj1NFI8HSFMS4Wp06dQmVl5U8+aFxr+ejvM0lAB2S9JfxsJUAgPl9WjKoALxRMH4vUzg8j6YFbkdT+FiS+2A5R341DoLMjQk/6w2g0Ij8/X2ig1xKQz1eUoiYxGhX7dyD3y49h7PYYjA/eCuO9v0JCl0cQMW08Ag7uQ1BAABITE5GXl4eqqipdQ/7ZtsrWZfxnA8jX46JM60SvP91SCVysq0VDcRFq4iNR6rQFp0b2RvJ9v0bSXb8QR2LHvyHyk14IOOICXx8fxMaatGNqnnV1dVcf7C5exPnyUlQlxqB0rwPyvx2FzJ5PmfPHfMa/1B7h34zFSdcj8PPzQ3R0tNDgmcf6+vqWikZ/7mcugZ8FIHMhhtwaGyu5tasFzkyX2lPtuXOoqqxERUUFSktLxcFrai7s0MwP/6t/rqEEaCVx/jzqCvNRExuGUqfNyB4/UFATEojlOabb4/BfOg/e3t4ICQlBdnb2tdE6L13CxdpzqM3JQPmhXUj9fIBq/pLa3YSwzz7ECecfceLECURERKCwsFC074aGhmsoVP1V15sEfhaATFDct28fDh06hOrqagGaBM62BkVqJqdPn0ZkRASO7N2DbVu2YPHixeLYtm0b3N3ckJSUJABaX3i5tk350oXzqC/Mg3H8ICS+dA+M9/+micYpwZjn6F4vws9howA7WV/XQuu82FCPszGhSBj0FpLu/ZVm/gwdboP/tAlwd3dHQEAAMjIyxEDf1u352taQ/ra2kMBVB2SCaXx8PI57esLZ2Rnr16/HzJkzsWjRImzduhVubm5ITk7G2bNnQe1AbXU5Li4O06dPx+jRo0UaxcXFQuPR+r+9gmEHqKmpQVRkJHbv3o0ZM2Zg8ODB+Oijj9C3z/vo3asX3n33XXH07t0bH/TtiwEDBuCLL77AmjVrhAaWmZkp0rBngOAKPxeWOD1t7cFpeEpKipjeUmNXk5u9cmjt/xpKilAVE9bkqDtdIGYSbZavS5dAU7aineuR9tr9SLr7/zQBL/TDLnDb6ywAOScnRwzi18Lc7eKFC6hJTkDOuP5ItjJgSEBmn4iMjERBQYGoRx2QW9sSf/7PtzkgswNyah8THY3t27dj1qxZGD9uHIYPHy7A7sMPPzQDXP/+/TFs2DB8+eWXWLJkCby8vMSiBrUZpiOPLVu2CCD89NNPsXPnTqGlsqMRTFvS4allp6WlCQ1l1apVmDBhAgYPGiTy9cYbb8DW8fbbb6Nfv34YMWIEpk2bhr179yIrK8vqoMKmQvCmTD7//PNWH1JmXAQqKysT5lwtkUVrmzC50nKnzcjq+3KTo2T7GlRmZwjah7OJtgAbask0Gcvs96pYFFNqxfKamnPwkJ5wPXgAQUFBYgDkQHgtZMMyNlSU4oz7PiQ/eyeS2t+sOmhIQPbx9hYLeaTDrsWA0dq61p+/+hJoU0Amz0vNb8eOHQKoqE2+9dZbNgGuc+fOAgzHjx+P1atXw9PTE2mpqYJXI7/G+7169cLUqVMFiPIetcPmrkZToyYokvqYO3eu0Ljff/99dO3a1WYetUCa4MzBZt26dQgPDxd5VgMAAgL5TIKxVlrNuc/3jho1SvCPnPISlH8K/rEmIhB54/pfATwZw3oi/eBuMfAxb23Cu5Ojra9D5uThMHb6+xXvJCgbH/o9gob1htvBgwgNDb2mgMzuSp67NicTyd2f0KRVJCCTPyalwnbcFgPW1YcL/Q1XWwJtAsjUVAl05MRmz54NghxBtjkAI//7zjvvYOzYsVi1cqXQJklVEIyHDBmCtWvXCs6NwJeeni6movZoPvxPQX6+AERSJtTK5fva4syysszLli0zT5MtQVkCMgeVoUOHgrMDewYry/zxGdInlMc333wjZhU0lyoqKhI85NVuMMr0ae1Q6rAS6V0evgIcDS+2Q+R34xB20r/NQTFz0Xdg+lIrVp5/ckC+dAn15aVI7vsKjA/+TjWPhk7/gP/Mr80ctw7IylZ1Y1+3CpA5qtPyISwsTGi2BAlLAGmr7wQyUgM0ESInTd7N1sIa80dgJJ3guHOn0Ih79Ohx1fLYp08fzJo5Ex4eHsLmVZk/MSgUFMDf3x979uwRXDoHHoKrvRo68/7JJ5/gu+++A6mWH3/8Eb6+vsLGlrz6tVi4UnaXuqxU5H41BMYHfnsF8PBe5IedEfSjg1gjaEsNPmfZTCS9fM8V77weNGTK5/yZcuuA/GJ7+M/7VgdkZWPSr4UEWgzIBBhysW6uroIb1gJeao+Wh9Z/te536dIF8+fNM69KUzsmPWKNd5NgzAVBapJvvvnmFUDMfDFtHgRF5SHv88z/aeVN7f6UKVPM9IWl3SvzzEGMGq3BYMDKlSvxwQcf2Eyf+fhq4kRsc3DAsWPHBBBzSk7q5qdxJriEsj1br7CvVWqrhhfuRuw3YxEaEiK05JZy/pZ9tWTjEmSoaOU6IFtKSv/+c5NAiwCZYMxFNZqEEUysaXikGwYOHNjkaO5UnZrk5k2bhKWGXJW2BDpLwVODpkY9cuRIkG+1BFXmgRYVkydPFtz0/PnzsXz5cnGQevj222/F/c8++0xQJmrAq3WPmvK8efOQkJAgOGVLTZlcL7VZDioxMTFYsGCBVUDu1q0bvv76a2zftk3IQHLo0hWYs4Br6X0Gcrk11cgZ0w9Jj/xRVVM1gePvENf3VYQedUFqcnKb8dzZS6bD+FJ71ff+1JQF26GuIVv2Rv27vRJoNiBTKw4MDBSLdmpccc+ePYXVAk3bVixfjs2bN4upNcHx4MGD4nBwcBBWFTQf45RdC9jk/cXz58PlwH7xXlpH2NKO+R/yzYMGDbqCp6UZGxfDaHZHiw0u8JH7JpVAjZP8NE3KeKaNKC0/aK43b+5c9O3bV2jTMl9aZw5QI4YPh5ebq6BXLKfr1N55UFumO++GDRusyqB79+7YumULXI8eFfQQ+XoZKEea/jG9a/VhWMsz/h7I6N4JdHJQasVNrtvdBMPz/0XMjAmICAwQcRrYfjigt+ZTtG4B0t54UPW9OiC3RrL6sz+1BJoFyOxM5CypPVpysfxODpmLcARcAh1XkanRcmqempoqOiSDp5ByIJXg4+MjQPH7778XZmTUBJUgR62WGvam9etx3MNDWHBQ86V2rAZABDhaHJAGoC2xMi1eE6BppkZw47SfVg+McUCOmcBIpxACHW2iefCadtTURKOiorB//36hNRPULdO2/P5hv37YuH4dggIDrS5qkfvdtGmTZnqUyYD+/bFv714hL2rdki9uLbC1pPFdoltwWQlyvhuNlCdvVwXFJqB8/2+R0O1xeO91hjExUciztdYgeavmIuXV+1TfrQNy82uVDi0Xz59v9UDZ/Ddf30+wrTcUF6LuVCbOV1YI+VztPmc3ILMTnTx5UoAxLSGUAEQNbuyYMQIICVoEbWqZBGG6hBLYyJsSSJUHAZ4gSMAmiE+cOLGJxkwwor3t7l27hAZLEyHabKoJhRQAXWRpNkdNVpk/8q+0aiDwU1NnOTggUNOk9kpuk/mS2ibTVx6kA/g7V8Np2zpn1kz07dOnyTuU7+M1QZvctcexY2JRizJQoxVsATLplhEjhmOfkxP8fH2FGRkHCzUZXIvmfaH6LM6G+CKZgXwU8SOagHBjTAl5z/Dg7+A3Zyqi/E60iZact3IOkq8yIF+oqUZ9QS7OGeNQHX4SNfERwlOwocbkKWpN/q2hLKhoXKyvFwBQX5SPhrISXGi0y1dTQlpa5zQfZJzo8gBvlO3fgdIDO3HGz0OELxVcP9/ZghABlBtt08+fPWPuQ1r5bigvQW12OmozUlBfVGD+P2Wr9Yy5vJcuglY+dbnZoo7OJcWjjvJqdC6zKw1zYpcvKBfWe1VEIMoOO6F45WwULvkOZSF+ov9broPI/59LTkD96ULzwGYz/5df2eTKLkCm5kmwI8BYasYEH5qR0ZyM9sMELGqdBFoCGIGSz6s1YN7jbzzIgxIo6UhCjzi+h04kGzduFJQCKQTy1uRjLT98npozrQ4s80cwJjgu+P57oWWSmqCWSY2YwrXHw075Pr4rNiICs6ZPv+JdSlDmIiJnDPucnREdFSUGJoK65ccuQB4+HHsdHeHv5yfqQS0dy3Svxnc2stpTmcibPwnJD95q0lDb3QwjgdmKZ1rSPb9E4vsvIWzXNiQ1aslqg5O9eS7dtPTqLOo12jk35Oegys8DxZuWIW/aWJwa/h7yvh6Kki0rBICdzc0WAzTbglrHaykgMzLcuTQjKoN8UHFoF0q2rUb5nq2oDPbFuVOZaKiuEn1F7Z32yo520ufLS1ATHYLTPyyG8aPOMDz9bxievgPpfV9G7sKpyAvwQW1+DmqrztrXP0i/na3Euaw0VJ5wQ/leB5w5fhi1JadxrqZGgKTMMyP08b816UkoO7ATRStnoWDxdyh23ICzKQZUVZriQWvJluXkLjB1ORk4G+SDovULkT9tDPJnjEPRjnUoj49CfUUZ6psTc4b1fq4a9XnZYvAt2boC2Z+9D+MLd4u2nfD6g0jZvl70PeIaMY3lEZH8okPA/xfMHI8Sx/WojI9CVWmJ+E9LBgWbgMwXU5MlF0zvNCXoyGsuiJEfJrcswZgjlawEa42F/2HGJTjTppacqvREO3z4sABqWhNoeTRRY6RWTkcUArDMF8/U3rkwt3/fPhw/flzQHhKMWekt+TCvNG0bM2ZMk3cp38vrHt27Y5fDVhFakVSN2mBiFyCPGIH9e/cKioX0yU8FyBfON6Ay7CQMr95v9kIzPvJHJL5yHxJef0iVQhBa8t3/B8Ojf0b44pmICzxptrhoiez5zFUBZLbBczWoTU1E0eJvkf76A6rlyXzvGeQ5rEJhdpZoj+ycbA/KT3MB+SzjH1dXofywEzI+6wPjk/9s8m7j83chb+FUVMSEobKiwqwF2tO/lPm6dL4BDfmnULF/O3IGd2vyDjmbSeJA+85TKDu8GwXJBpyx5kVILbW+Hg3lpThzwg2pXw+D4fm7RLppXR5GkfsB5GVniRky2yw9LRtKT+OMrweMI/rA+NhfzHngdeLIPkgJOoniwgKhLF3RP7n2UleL6uhQ5M37ukk7ZP6Nj/0Z6UN7oMLXHRVFhSJI2BVpNBEIA1Y14EJlBaoig1C0YDLS6NBD+3G65t/7KyQ+9x9ELpiGEHdXsQBPpbC6qgoXztWg/IgTMgZ1u2xvzv9/1BnJR/ajIMcU0Kq5iodNQGaD4yIZwdgS7CQArVu7Fsfc3QVfzBHEXjCmbJg+TcB4UEtmxRF4CWC0N5YcNKkParRqAuYgsHDhQtX8cdFwzpw5cDl4EMHBwaIspA/U0lHWla1rgjpnBVIGamfSDYx5wYVBOaBYdl67AHn4cOzZuQMhjXz0TwXI1I6L1n5vBmN2AkOXRxD8zTh4z5xk7lzmzq2kLu7+P4SN+ADBTo7CXZjcfEvr4GoAMkGl9LATUt/qiOQOtzUpo7I8yff8EkmdH0bc3MmibbKtWoJycwCZCkhhVoaYFqe/dp+JBrJcKG13M5I6/R0Jo/oh0f2wmH1SCbF8r602ezYyGDkThyL5qX8iWSv4USMQJT1/F6LWLEZabIxYRLdst3yXcJs/4Y6k0f2QQs9JzpIa857wQjuErl6EmMaZLWfLNakGFK6cjaQX70bS/b9tGo+E733wdzD0fAbxh/cJOpGL98r3MpLemSNOyBn8pmmGZuma3piGseujiHDeiexU6968Ypuv6BARSzul80Omer/nFlO+HrwVid2fRNjmNfA9ehjBQUHCq5L9tf5sJUp2rEVG1w6mIFJ8L9t6o+yM3R5F9PplQjmVXqq26kb+bhOQ2eBoa2zJGysBaN3KFfDy8BC8bElJiSpXKl8ozwRFAiQdHBg0iAcXBMkBM+AQF/7YaSkAnqmlq9ELbJQMs6jlfceBhMBJSwry2gRSAn9ztQuZb3nmoEOtnPEslLJQXhOQWR5q5gygpKbh2wXII0Zg3x5nhAQHC+3ypwLkiqATSB76ThPgjRrUHX5b1sN36w9IfPdZkJ5QApjyOv75uxAxdwpiFVpyS+qhrQG5Ns2I06vmIJ1BiwgqsoMpBxTl9f2/geG5/yJu0FuIc3VBflaWUBYkeNgLyByoI9yPIPm7z5H64t3aIMl3t7sZhsf+goQB3ZDgdgiFeXl2heukfM9XV6Fsxxpkf/Q6Ujr+TaSlrBfV63tuQULnRxA9ZzKSA/2Flst+w0GUR3VUMAoXTkVaz6eFZmops/hn7kTgnCnwO+4p1ojy3fYjb+IQpD73HyQR9JTylNeU+wO3IuGzD5Dgskcs0Is+Q5qlrBj5y2ci/Z2nkNJB29SS+aBTUnz3JxGzbQOyjAaxQC/rRvbfmqQ4FK2Zh4zeLyD1yX80AVZuHhDd9TF4rlkGH9ejCGkEY9Ki5SkGnF45C+lvPKAdQOr+3yDhjYcQO+NLGIMDBX6pYZfMi/JsE5CpuZKu4NRfCTbK68ULFojQlORm7QFk8tGOjo4iaprSKYLv4HeapTHYEL3yqBlzpFTa8ioLwPwxapxW/mhtweBEpBgIilqLa8o07b02JCTg+zlzNOXSloBMyoVWIT8VZcGIbqc3LmkynTZ2/BuCpoyF95FDCDrugdiNK2DgdJsanexkijMbevyAboje/oPopBxo7W2oyjppK0BmJ62JCUXR/K+bUBQsF6fQghtX5L9JmdrdBOPDf0Ts4LcRv+9H5KanmV35qW1bdZ1u9NTz3bQWsaM/hIEgZakVa7yXbtdxE4chPizUvA5iCTZSViIY06lMnNqwRJgoSt7feM8vYej0dxi6PgojZwPW6uvlexE3bZygEqjMUDGiMlLhuhdZA7tqBnmKf/rfCJg+Ed5urojZsgapw3sh1R6rHFIPT96O8FlfITowAPnZWTiXnoz8ZTOQ2uURJN2nHXbVXD8E5ft+LQbMxP27xNqTciG8yt8TBd+OQtrrD6jm3/jIbYjs3w1HXVzEQrqkYWuqzgrKjluEaQ4qst7u+SUSXr0fsTMmmGeEVB5tKSA2AZnUAekAa84cjJa2a9cuwc8SQLV4E46s2VlZAiA//vhjTSAj2HMhju7SR48eFdoyQZkNwbLxkdZgoCDlAKG8VgIyqRdlxciG29JzTlYWNv+gbUPMQYK/+3h7tVpD/qkBuTo8ALmff9QEaGPffxl+a5YK80YGlcqMj0X6wK5ItuIsQo4x/LvxYnbEtmW5am1PXbQFILMdlYcFIHfaGLHRKDuzsf0tiOncAaGjByD0y2GI7t8VxqfvaFJmc6dnx2PHf/BWxHz1KRI8jpotSOpKi20CctiETxA+uj+Mj/8VSXffZBoAOBA8/AcQMJu8R3ZynslTvnIfgndsgjEmWihAav2CHb8mKw35GxbD8PqDYlsrUcZ7fomY1x5E8PghCF0wDWEThiL+7U4gCGm9M7FLB8QsnysWwzmjq6upRlXYSeRN/Fhz0CIgB343ARx0Yga+CePjjXwxBzI7ZiFRA7ohdOcWJPh6IZ+u8nQEkjTL/b8xDSRKuahcU7bRMyciNshkAy947EuXULBmHlI5G1J5RsjokT8KQCYzIJUgzg5oGlibFIds9oNH/2RzEGU9xr/ZEcHOjkhJMgpN2RYo2wRkktgMGGQNkMnTrli+TCxe0aZX7aVsNOyAtLnVWhxUAimvafZGLz2a0kmTN6ajHGVIB/A/ls/K75Ky4P9Ig7QlIJMvZ1wK+S7Lc48e3eG8Ywf8Tpz4WQMyF7vKtq68bNlAIGJUtW/HwWefswBX2n9Xl5WixGGVKV6xhsbHzhg2uAd8D+4XHBu1ZMs6tQXKrQVkWhqcSzUg/cshlzX+9jcjkUF/Zk2Gxx4nnPDxQeTeXUj5ahjSnrnDaudL7P0iwjatFpSYWAspLrIKyFy0M3R73BQg6d5fwfDMvxE5tCeiRvZF7MA3hWZlTQOjDMO/GIII96OCa2WbtuTj64vyUOiwCobOjzQBnoSn70DAF5/A1eWgoNxIGyZtWoG0AV2R8tifm/xXAhaBLXb4+2JxnfVcVV6GhooylPy4QeRd/k95TnjidoSN7o+woe8hkYMO5fvYXxD3+kOI7vks4l5oB6MVbdfwyr2I/HIYQuZMhvG5/5q0eFIRz92F6PdfRszg7oh75T6b4B4xpCeCnXYKLVU6lOU5rEbKm4+pllUAMimL7k/Bc48TwkNDhQWXBHPyzlwAzB7V1xRi1drgedcvkNDx7wj7fDDC/HwF/qjRlsr2bhOQqfHS6kGLEpAgNG3qFLgfOSw6mSXoUWMmsFujFmQ6amcCLgPIKwPZS1BmqE96DKo9x3scLGh/TCeVtgZkCtfV1VX13XRqoZa/d88eQb1IDtlSwyfFQ0pIK/8mO+QRwkpEjtbXmkOmjWfuyN6XGzD5xTc7wuuHNcLUke7fgn5oaBCG9DQZsuZSHfvaQwia961YKJFasiWgKBup5XVrAPnSxQsg/ZL/zUikPvEPc5k4wMT3fgnue5zgdfy4eUW9KDYSBTM+R/LDv9fklhP6vILADSuEpyfpuMq8U0jq8/Ll1XcNTYw0BcE46sthcD+wXyz+Bh1zQ+zcyUgmjaH1XPubYXjtAYQ4bhX5JLepnJVywKlw3qIaZySi3xvwWbMMnh4ewhuVNAR9BEoP7Ub2h69d+U5ayDx5OyJG9BW0JBfZpelXmf9xGPt3ufIZ5vuBW0FQFTGh774JiU/8Qww6/muXwnvHFgR/Pw2Jrz0AsUiqUk7OPCgbAcb8ndpmt8cROHsSvA7ug5+7K0I3rBCbxiapBLeSsovq/TKC1q8QC7CUE5VFbiJwilqu1LhV3p/w7H9EHgNP+FyBG2KX84wUZH87Gimv3NtkP0f5XvOZfeX5u+B9cL9YYyOeWuu/NgGZowrti+kSrQUavE9nDPK+nLpSS1BqyWykmzZuFBqvtTS0fqN1BwP2cGGOwC7DFbITM+C7LUCmWR6fJcfNVU9LULTs8PZ+twbIBFLGSSbVQC6cgMyGb/nhPQ4qWmW/HgC5dOsKZHTrYO54hvt/i+AvPsExx+1Ca+JAR+pBfC7ZDjpkfOBWRPZ5RVjmtGSLpdYAMh0tSvbvQAqn0IrFO2PHvyJ2VD+479srFk9Jb3G9oaG2FoxqR0cULSoh7JNe8N22SQDyqexs4XCRbAcgk6eO+vgduB1yEQu/jJoo4oBHh6NgyTSzvM2dWwLH3TfB8Phf4b16iXkLKE6p5Yc2unnjB6hq9cGj+8Nrr5OoN5aRbZhgXp0QhdxJw654J03AqNGeXDBDLJ4rAflcZioKls244hlzfu82udXTNJIUiZfTjzjh7WWyWDAk4tSyGcjobN1cUtSRGIAehPeaZfBwc0XAyZMmX4KMdJzevQlpGk5CzEdit8cRtnC6WU4EQzq8FOxcD0OXy23anOdGGcsB2ufIIXXc4PrDmTMo3r0JWb2f05YB89DhNrjv/tEcZKtVgExg5TSF4GKNthDxG0aMEOBCDzhqyZyKphgSsW7lSjDgjgQdXnPhjgFzxo0bJxxAtEzq5DP0tKPFAj3syGMxbTYkW4BMRxEGhacmS75Zju6y8bbmzIHHycnJXC6ZV56VQMppIQcSZaeR772eAVm4SZeexqkhb19eUX7A5Art6bAJnq6uIkC+pYZmLSynaPh334S4F9vBf9EshAYECNlwscjegbKlgMz0uRN0Sr/Xr9COEp66Q5jvHT96RFAPLBPr69Kli7hQdRZFGxYh7UWTjS0XwkgFJHzUGSHfjofvzq3CmoBtk+2rrsQ6ZUEZiPCkH7wO7/UrhRUT46jIQaC+uhqVAV4mSkNtwU0A8l9wfMlcnPQ9IfqneUAEkLt5OZJVwIYgc3LqWHgdcxf1ln8qB2diI5CzbiHSBnRBSqe/mYCFFh0vtkMELWjmfgOvHVvh53ZUaJmkJKkQURnizt+ljhu0wYja9SO3IWjicPg4OuCE13GhlVNB44yKHHfepGGq4VvNANn+FpBmYVk9Dx0UwCpMBQtNdsZ1JaeROeoDTU7Z0O0xhC2YJp6TM2TmvTIiENkqGyuY38vZy+N/Q+DiWYjy9xULqJaGBWxP9WXFqHDfj5xP39WUQ+IjBGRHMQjSe5nYqPWxqSGTGqCWzEho1jRRghDBj84S9JgjCDEYzvy5c9H/ww+FdkzPO2q6BFZqhdy41MXFRVwz0JA10zoOBoyhQW81uVsIBUuHFGtxmAn0HADoms0pPwin9a4AACAASURBVKdo1kYoLUGp3c/JzMSm9etUAVm6Th85cgRhjTtXqL33egZk2n2WO21C+qv3mhtb4pP/ROjkUXA7sM+sZbEMrAv5oUtrmdMmZPR8yvycuaE3aiCGh/+AqD6vwOvQQbPFBQdZez4tBWRur1R20NG0gKXQjpk3pVUAB26ltZDknIuWzUDB7AlIWzEHEZtWIdxxK8KPuSE6PEyUgfQLZWFrUY/vi+nSAf4zvoLHIRcRFkCCMWXAPlebnICsod3Vp8ONgOy1YgF8fXwETcg+Cg4eZ8qRNaKX4PivkPkz/4b/7Ck4fmAfwnZsRuqyWcge0h3Jr90v/s9dWBL6voLor0cgaPl8BDk6INDzmGi/lAnBmGBCJY1gxNlGmdMWzTqmVU1E/27w+mE1vD2OCUAnGHPwFWk0NKB0+2rVDQ5k3snrh34xFK7O5PW9hVLFab9YZGt0KCtcOg2pL6tH/7MEZMqJitz5ijIUb1kBY6fLtJV8pzxzRhT7ztMI2rVd1K+aTTHrinIoPeIs1gWS2l9p0icB2dpMWbZ7m4DMP7KRMPIZg6MrtUC1a3LN1KYJnrQtZnAggin3rFs4b57ggrnARsAmhcBK5sjFe/y/NS38yy/Gw8PVVQT6oSbCfNE7kJq2Wl7kPboxKy02OMLbq41JQamdE2nhMWum6rtJ4TDIEYMYkcbRGgiuW0BmEKHSYmR/2hMpj15egU98+g6ETx2DgMWzEOrwAzJcnFHueQiVPq44e+LyUUiNsu/Lmp2VplaJnf4On2XzEeFvcgm3t15aCsi16UkoXPSNap4sAbkJtdXoUl2TkoizxjjkpxhFB6U5FGeDjEdNjU+ahNkye6NJVvCnfeC5bbMIGCU1ayXNV5eRjLwvB1+emUi6gmcJyKsWi+cZC4btiF5n1fGRyOzxhGoZDU/9CxHDeiFkwieI7vcGDI1ATK9Ew0edET15FCI2rkLIURcEBpjivXCgYPk4QMmBl31HApE1QGYME/85U+C5b48IqcC0CIjKvnfm8G5k9XlRNb/khmPeeQZe2zbhmKuriHTIQU+CseyT1tqDFiDzWcaryGYIWaVsldfCpvlWBM37BhF+J8wmp8r8Mx3KoiY9GRlfDlENIdDmgMwXUpCME6ykHiTgWTsTDD8ePBgL5s6Fm8tBYddHHoqqO6kHTrUoYB7btm2zGux+3JgxOLRvn3mvNE4hCObMl7U8cIGN+abXHKeGHGH5LMvV0g81Qg5SpF4s303rEG7T9KOjo+Dd2HHZoNU0wOsVkBlEqIqOIFxcUnhE0Swrsecz4oj6qAuSBr6J7IFdrzhS+rxkdqPVavBCgxr0Nk7Se6/Rhl1NRpZ1ZK0DCusPjT31aqKCkUtuVdnpGq8TnvwXQqeMEXaz1AabAHJjBtgROcthnfF3HrLtMt+yo9p0DHnuP/Cb8RXcjx4Rigm1RkkDyLJaBWROp5++A15rlgpA5vqEMB/kllqHdiNdKzTpg7cKG19h5dHp74jr/AiiBryJpLmTELPLAWEnvIWyI3c0JyWn1Ihl+WQerWrIXMh7/K/w3LAK3sfcNRe0rAEy7ZEjP+snZtrULqWllWU+Ctd9j1QNV3drgCw8DQ/tEjKxZgce1b8rQnduFjMRyblLGchzfW4WChdMRrLltl2kXJ65E+5Ou6yuJcl07NKQ5Z85wnHhjtSFtaD0EqD4n0EDB2LR/Hlwo5G1n5/g5+jcQIC35GTYMOnmrJU2g82TDiGoMg12BnYOxismZyvfq3WmBs7nJZfMTtRSUOa7GWLUMrIc381ZAakZ2jEy2JLk3SwbEuV6rQCZAwg7PWXOa6vlvnQJdZkpyJs6EslWVrDVgK1Z98gxdrgNJxbPRpiCS7aat1bEsqgOPoGcYU09DWV+6QwSN/oj+LgeEe2DGq+ShpF9gHXI+/KQ95VnW4BMMzm/VYuEVQUtVOSaiLLcVgG5/S0wvPEQvDasEtZDpPAEIJ+rxun1C5D2gonrlmVTng0P3Ir4V+4XJnaB61fAt3G2ygVF9guudTA/bCvKQUZZPnltDZCFDe4Ld+Poti1NzD4t+4A1QBY8Numx/+8pTCVOLuhbpmFtj0VrgMxyULNNHj9IVbOVcqMSEvLN5whtnMlxUFbWFdOpP5WJgrkTLwfdahzohfPQB6/Dfa8zTvr7C0W0VRyyFL48s7JogkY+WAv45H3+Z/nChU3AmNMfgpmlUJk+G7m1RTo1QGY6bEx0TpHvtXaeNGmSWOCTWklLQZly0IpjzLjLy5YuNTckawuJ1wqQS0tKzPmRPJpaHbAeGB/37MnjMAhLBCsB6FU0TdmIm3MOG9Zb8HT2enq2VENuDiBTO1Tj/GU/sHa2F5Ct7TptLyDT4oCL7gKQq8+icO5EpD79L9VZAOskss+r8Fm5SFBppA0Z55uaJ8GOszjSLkoTOmvltAnIL7azqRk2B5C1+lFrAJlBnc4G+2raYMt2TLmFblkn7JktrcgoI636klSY64H9ZicTa+2qWRoyX0wA4wo0OV/GL+b03BIAuZBGD7mVSxbj0P594EIceTIJxmqaB9PmqMNFsE8//fSKNPkOAjJ3+aCmLTVkggorypqDhjJ/5Li/+uor8R6CMkcrW5qAWqNkOFBuNqpMW14zvgUXERljg3QFtS3yg2qfawHILB+1Hy64MiIeNwaQ9qdqoHwuKQ4Fs75o4lJLu9foIT0RMmYgQsYOQsiU0QiZOtbmET5hKBL7vHyFVYNs6DwLC4cF08QKPDlCgoKlBqKU3VUB5If/ANoT08yJW2SxrVrrOMr8WF7bA8iB65YJukLOnizLW52cCCPjhqjFnFZoyM0F5IhP3hNWIQxDS6qDQMw2yJmT7AeWebEsn/zOeM10BFLWpbymHXF8j6eEXTf7K7l2vsPyYwuQo6aOETMJpbmdZRqtAWRwcbKkCEnDe8P4qLpjDMuU2PFvCJ/4qZjxsixKLflSQwOqGCP8+UYHFqkdd/gTovp3E9ox7b5JBWnNvGSZmg3IrCyOoLTRZMOlxkmzMu5Nx+Prr74SWvGWzZvh7noUgQEBZjAWo7hFqEKZEXlmYCECrwQ3eaYd9NRJk+Cyd68QihKQ2ZAI+KQktOgOmQ7PtIAYP368AHcuiLAscuVY5sPamdM5uopzTz5lurwm4NERhXQGFxxlh9MahK4FILMRMIwprVhIsdAdnaZDlKEl6FA7rji8G6kK+1B2ruCR/eC9aS389+xChOshxPt6I8HPx+aR6OOJZOftMD7z7yZctOy4PHN6Gz6sF0L37hIgIS0ctIDhagAyefKEZ/4Nd8ftrQ7iZA8gB61fLqg3OVOzLGt1UgISBr2lPpDRfbrvq/Dasl7Y5Jo15JpqnF49F2kEBo3ZS1yvFxC8amETMzD2Zw7Mlnmw1gf4W31hLoq3LFd9F+2X4999TgAyaTsOtJZtjWnYAuTIKaNEHBo5e1JTbFoFyJwR1tWh9NhBpL3zlGpsCyHL9rcgqteLCNq2UfQdzpDlImxdRgqKlk1v8iy9KSN6vwyvtcvEPpi08JLKhpoSJGXdbECWDzJRdhwGradGS/dqaoXcasjPx1toOxQiF924iEatx1pGZLpagEzwW7JoURMrCykQPkvQOXDggNgZRE1rtwRO6bhBSwg2GGqMWlSKzBsbLBsVF/NotaHmvfj1xC+xy3Gn0EKplSorTqajPF8LQOaUlHsIUi4cPAnI1DhkR1bmp77glAgFqQysE/NWJ/gsnAUPNzcx7eJaAuXFsrEN2DqKszORPW4AUjr+VbXzssHHvXwvwuZMFoO8rYbbYkCOCETu2A8180CrAJ/50xHs5Slkw4HXnjarlB+vrwUgE6xP7NgqBn1ZjzRTLHHcgLRX7tEu47N3InLSSIT4eIm+aW+/tCwjv9sLyNY8TG0D8mgxG7fmQNRaQBZacmkx8r8bjVS6yWsMZpzJRY4bjEhfH2RmZIiZBTcNOOO6F+nvPmN+jmAc2+NpsUsOF25ZfvL8kiq0NvC1GJC5E0BMZKSwAWZHZ/hL7kK9x9kZQQEnzUBMwCGI2dOw+T9qnnQCsQTQCePHY9vWrcKtlVqt5WonR3kCPy0p1BbaLNPjd1pfcIGSgwnBnFo2gV1O3ZSNkPdIjXCqN2PGDFVrE+Z75dKlYtAgry21Hy3tmOnbB8imLZxaEn6T00R6WtLqgxYvpFmoLTN/siPLcrKhVHi7InPI26bGRbOf+36NgAnD4Om4TcQ+oGZNAObgJTUr1q214wLj2HoeQjqjZKk5OlBLvu/XiO7fDSF7fhQmZXwHZa7WeFsKyDUJUcj75jNzx7HseNJuNmDHZiTGxohyMg9qH7pg0xKlLv8UWD5Zfub3WgGy706TbT3bmZh91tehwvsoMro2jV+hLCflHN/7RURvWmVTznSIodcfgVeWj2f5sQeQPfbvNS/Ct0RDJmUhuXb2zauhIcvyVB47gKyPXteM5Ga895dI6NIBkRuWIz4qEiWnclAR6CM8HOl9KuUc16UDAmdMFB6RpGtJDcm8q7Vn+X6eWwTITDT3VA7WLF3SxLqBjiGjP/sMDhs2mN1PlRmxlhk2fI6Carws06XZ3NGDJrM5cjjkfi2Bjt/J/XEbKNISaiCsdY/OJbQgoYZO3pfcGsl7aoHkzKnt05GFwGZpK01gJ6XCAYmBkAjackQnaFkrty1A5ruYN+48EnjypMgXwdBamrKC+W6OzEuXLhWykIDMPHLUphzZkeWn4ewZ5C2YAjoIiMZFj63n/oPjy74XLqvkzam98hl73i/ThdgipwanJgxCskYAG77P8OydiJn4qdD6KH9qb5Z1zDRbCsi1GclC+5cd54qzwrMs6uhB5GRmCGsDy7KK/ejysoXt9enNy1FtiEVt5RmheFDmdDqwFn6TVhatpSyoIXtv2yxmomzzok4uXEBddgayaP+t4qAgy0tPQ4ZBDXc7giwGC2qcCchycrChSdjZAC9BgZQ6bUZtcZHggAmIEpStAvLDf0B831cFJ8/BX40eY13a0pCvJSBfOFMm7NQZwF/KyvJMnjl+aE8EHz6IPM/DyP7yY0V/uQkMqsSgW167HcVAQiWPGKKlXJj7SONFiwCZWhen7VrgxkW9gQMHYsGCBWK6ITuxXDgQjZYNt/HgyMn/UPO0jJlBsOPi4TYHB6Edq8XKsCwUp9OMX0HNnc9r5VPtPqkMgi4HhhUrVojg9syXVoQ6ps9nGFzfafduUQk0ZWIDZPlsfTiNsRbLgnlk+swLFwaSk5IE560GVPJd7Fj8nQPK2rVrzR6WBGTuuk1A5uq6XGSVz50J9EHWIMXWPtSmhvQQhvnUUjgocYC19m6Zltq5wuVHZPZ+vkkMCWWD51Qv6r0XcOzIETEoUktW04hsAXKwsEM+YNbMJBUl7E73OGhq6TIvjL0QNWkkEn29UVJYgPON2w8xvvClhnqx80XBitkiYDy5Z24nVBARLDoeBxFbnnptBcj+u7ab61E5sGZPGQGa8cnyqJ0ZwY07kMT4ncDpvFyxf94FzmS5cSjjfThtRuo7T4poapnvPYuC3ZuFYsL2KkHZKiA//lfEjfoQPkePiNlYiwH5m7HXTENmmz3r72nVDZrrHYnP3IngGRMR1/fVy9tQNZpwBs2ZAo89l3FAKhZysFPrF8p7LQJkAo6aJqsEOC6uUbNltDUCHDlXggoPmrYdPrBfHLymZsrFMHKySgAlsJMG+OGHH4SpGs10pHYsR2llYeQ1AYMaKsHIXvpC5p3vJ5ATBLkIxgGC+WJe5H+UZ9ocE4xpC81trLjQyUqgBm8PIHO6yV1TlGlaXjNPzMvGNasR3uj+TZBR+7CzcEDycXfD7Jkzm8QJkcBOSxYCMikemUfKLGf650hSmEwZHvo9fJfPh9dhk+WB5HbtbVyW+TtfVoK87yfD+MTt6mDBRv3UvxDz1XCE+vmaF0Qt69oWIIcN6QnvPbuvAGTG5qiKj0TiB6+pL5ZJ7pCecE/cLhbO0mZPROnh3Sj3cUPZ0b3IWT4LKf07I4XxcBnonbGJN61BeEiwsDHlgPVTA3L50T3IfP8FdRnLMjIuMfdDfP8lnPp2NE6vnY/Ta79H/vSxSP3wDaQwmPx9v4bxod8h7pN3EXnURQzIMsYH68QqIDdGzzu219mquZc1DTm2cwcELJh+TQGZ++sVb1oq4lKrDWSmYEe3wPDIH02hP+WWVc/ciaBZk8QiJt3ZiZHEATn7sOwLWt+bDcisEHrUvffee1ZBRAkqBGcCCr3leBBk6b3Hg9fkcZVAzGepzdGpZM3yZTjs4iLiJhBkyR0TdGyBArVxcqSkGRi+kyCrzFNbXHN3E2qctMumizTBmABLGsLeKQrpDW7oak9+GBPkq4kTsW7dOngcM8UYYJyMkJP+8Dl+XMT1YKhUxgUZNnQoer33XhOrEwIy44gQkLngSE8zAjG1ogq3fUiny62M7yqCuvwb7pvXi6Aw5O0JNlqcqlYDU95n2MICh9WmgOkSGCzPtCB44W5hCZAUGSF4XMs1iNyZ45GsGDiadJz2NyP6nWdwcs3SKwCZeWkoLUaxswNSrATRF+m1v9nUKZ/9N9K7PoKMtzsivVsHpLxwl+k+Tc+e/KfYANP3kGm/RnKFxXm5wn05ucsjmsHb6dQRvGyeyJ9cZ1C2Z4Ld2ahgGF5sr26Zcu+vhAWGlobMjUTzls8yBSeylK/ye2Nc69Sn/om0l9qJg9f0dhTB95/8J2JGfYjgLetw0sdbmG3JWRXzeM4YJ3ZbbiL/xvQFV/3qA3Dd4SC2QNLSkE87b0Vyd3VX78RX7kX49Ak2ATnr29Gag7wtxxBl++Q1B+3q8ADkWFn8tSxv3Kv3C5qCmrHvCRMYU3mROGD5DmvfmwXInI5x8YuxKuwBkNb8h5o1dwI5uGcP/H19BYBQo5PTJWuFkr8RPLgQx73v5s+aJeJpEJRaky8+S36atsY0b6NmzOm81Iw5peN7LbU65ongR82WFcUjLSkJK5YtNVMK9uSL+ecgxkGGJoY8vprwBcaNHSvqxZrDDjV9Dqa0IScgn87MQI0xDpUeLsge0LkpSNE9t8OfEDxmoIj1m3rcDeXx0eBGpxfOnhEhDFlGJZBIufPM32h031CUj4bCPNRlp6PK1x054wfank7fcwtiuj+FxPlTkHd0HyrTklDHhTO6cwefQAY5Uu46oQQXxXXCk/9ExLDeCN62EUkJCWIQl3VCm1HyrLljPjCF4FQ8p5We5X1OWxnjlkHi/Rmb94SPCayys1AWF4mcpTOQxKDsWkH6O9yG6OHvI/RHB7GQLAdGKcu6vGwUc7ssrZ01yO2/cDeCvp+GCB8voQSQslC2ucqwAGSPbbrDi2U5NL9Te37idoSMHwr/bZtw0ttLtG8qONJSgANbmfMWpL/zpHo9KNuPyz4Ryc6sLXL36Po61MSEIefrYZrtgbRKDF3rHR0Q3+jRKAdnyupCXS2qgn2ttgdSN5HDegnHI64NUaFjW5CyVrZZeS2CBR3YaQJ5jTqk7IQ1RdfHEDRljAgt6nvihNCMCcbWcEC+R+1sNyCzstNTUrBq5UpBQbDjU+u11GztARVr/+EiFtOmfTPBThpUcxreEhMdCp4gzlVR8tB0adbig63li1o+ZwU08SNdQy89LgCSRqHlgXJEVHYMpdAryssRGREhLEloTbJ04UIMHjiw1QOEtXzL35j/fh98YDJL9PODMSoC+YedhalPNnfxVXNAYMd86l+I7vsaUscPQv70z1G8YRGqE2NQdabCbGmh1ripdVeFB6Bo1VycXjoNhfO+Qs7Q7la9yCwBwvDyPUj/9F3kbFyKXH9vlDhtwanRHyDVFj9KwHzqX4gc+BZit6zFqSRT8B0zKNfXodLPAzlDe9j00LLMU9KDt4pdL0LGD4GvkyNO+vmJ4FFZMZE47XEI+Qunip24rS2qic787J2IHvouItYtRUZUOCorKnAuJxOVEUE4vWkpsmxRDnf9AtHvPY+YWRORdGSf2LmaYMVBn/VBS4/y/TuQoQWYWgPR/b8RW0RxlwuvH7cL800qGwRjAWa151BriEHZjrXI/vgt66EzG9sPt6uKc9qOXGOC2FWmJikeZYedkDf5U6RxB2qNvIiB75k7Efnp+4hdsxCFgb6oLipAbWkxquMiRFzrU2Nstwd6y0WN6It4h3U4lZlhphPV2i37K+/XpBqROfYjjeBOJuuj2HeeEdYU3k6OwlnNXhxQYoLltd2AzIqOi4wUtqicopP3pA0yLQDolUetkdobqQYJAs09k6+l9k3Nk553nM7TXpbTHUsNwLIgtr4z/1zkorMGbY9ppkdg1uKHOTAQgKmp838EYkawI+fNDVNppcAVVNpZcyrPwUJ2eK28ZGVmYsP69S2Wj1Ke5LSltQdlTsBV/m55zbqhVs+A+SdPnkR2WCAK53yp2Rm0Ogk3msw95oLsjHSz+ZvaAMQwkMU/LBIcpFZa9tynRUD0R11EyE8jYzRomM2ppcVpc+wn7yHR0808YCo5czrAnBr+rokvtWKVINMm5xrX42kETZ8A7/2m9smZBpWFYl8P5HwxqFnlFZu+vt1JaMqZaanIdXZA2vhB4EAk32nrTE02ZtxgxHp7CgpKCcr1hXmghURGl4dNO7hYkx217g63Ie7Njgj/dhw8Dx8SgcC4iE7nJoLxBS7CV5aj6PtJVoHUMs/koRllLvagM3Jjo1D0w2IkMV7z/b+1r5wMUP/yvchcNhMFUWEoDPZDzszxaE57oKNKYq8XEO7rIxaz2V+JCVqf82cqRBTDFFJjSrm1u1lw7zFvdUTgopnw2r/XDMa0prAHB7Teyft2A7JMhJ2PUw82QppUcbsbanszZ84Ukc8YopOLeT26dxcATdAgYMiDQMKDnK68R7DgM/T0k4BH0GBjVy4iyDy09My8k1um4Lioxa2TGCCfvLbIM/Pdo4cYXDgw0LqCgwO14eOengKECcQk7Lm4SCDmQGGtYpV5JV+4edMmIReWWevgIEH5iaMxT8r88Zq8OwcJDoRcNJUzFs5a5CGe6d4d3d9+Wwwu9GQ8eMBkfZCfGIfTy2eKYCjcjdh4/29h4Pb2TY7fgsFouEOIvB//VieEHNqPqEa+nIuXqoBcWYGS9QttpG/5vqbfCaicmlO7Cf1qBGjrKXZOfuh3gufkoiMPcp5ic1B5zfsP3orER/+M4EmjEHT0kBg8Jf8p64T5PhsVgtzpn4v90ZLv/7XJXIzTVHZC8shcuGP5uUjVvyv81i4TAzLbJ61OZPus9PfEKe6z9qApj8yrkJ21MzdI7fY4vHftQGR4OBLnTUZS1w5Ifuj34qCjSpM0uK2R5b0nbkf0mAGI8HQXtIDSCoLlPF95Bmf8PJAy6E0Icy7SIFwnYAS/xoNyTuj0D0QOeht+G1aKxWnO/LhmQ8pPWqmQX204nY+cgV0EvZXMDVmFrH9nyhfzpjwUZSeFFOLsKCxXuMsId6BOeeQPSHrYVH9NnlOmweuHfo/EZ/+D8JULEOHni7gft8I4sBtSOtwm8mFZ96I9KNqCyGOnfyC+3+s4cfSwwBUqZxy8tD4XGxpwLjcLyb1eAGdFYpAh5/7onxDb51Xhtert7iqszbi+IsFYS+vWeo/l/RYBMjVBAhsrn/wXNVhOaViBtDk8fOgQnHdsx4Z164T5Gaf4PKhRc7dpBt+h6zLv0SmD1hDOTk7Cg4x8LLVieoOxsUvOyDLjLf0upnPnzwsgpRCZb5rw0VmC+99Rgzxy5IiIQ0HumRo1tQSWjQMQqQklEDenAuiizYbOhTVrx84tm+G0zQF7HB1FnpgvHodcXEQ+mVfmkbugkA9mzAweXl5e4uA9/s6yMI1tmzYKhxlaqzCuAKdWRQUFKAv0QeGCKcibP0kAXtCXw9HkmDgCQTO/RhBBrfG3gLnfwMfLC1GRkYK71AJkQVkE2Ujf8n0W32OH9ULEmAHwX7kQJ2g1MXuSsJOOX7VATPWD1i2D37rliFi/DKHbNyH8h5XifuiqhQic/x2CJ49GiKMDgk74CEDmGoTl4Hmhvg61p7JQccQZueP6iz3auFjHgYCLb3HvPoegrz+Dz+ol8KFWzM1PG70c2f5l+zxfehqVxw+Z5Llgishr0OxJsHrM/w7+G1bC2+u4SPN0VCjKXHahaPMyZG1YjMAlcxA0Z/LlNOZ/J7QyZZoha5eKATI0OFgAjVz0loMkQbS+phqVBXkoPrAT6VNGILH3S6JsLB+PsBEfwGvJXBxz3g0/b2/R3mkhIMOLmmVGKqShAWfDTqL00C5k7NiAsDWLEbh07pXHopmX8z17Evy2b4afjw8iwsKQHheD0wccUbxnG5Id1kLUl1oavLdoJoLnTEH4uqXwO+yC4OAgZERFoDLEDxUeB1GybzviHLcgfNNqUfekgCwPph+0ejFCnXYiyN9fOMRYA2SGD6hNjkf+t6PAQUdu9WV87M8iNsXRHdtw/Jg7QkNDhGUN5cSZV3OwQAu/mg3IfCkPVjgrigcbJUdRaotspPl5eeDeYgQxBtSgQwHdkwluDGyjBBCCHjkqGYOVAElNhg2LoC8bllYBWnJf5p9C5Dto78r4zHGxsaLjErCYD2rBnAnwd4IpZwYsp6QmmlsBfB8X8+QARk2bspEH5UCtK9loRAoHgORkkS/mjQcHKVIkyoN5lAcHC+aX3/kfPsM0kowGAcKyXHLRob6yQizSlacYkRUVjqSgkzAE+DU9ggNhCPQ330sMCRRpcRpLubDu1eRAIODiHxcBraZv+T7F9yRfLxj9fJAYFgJDfByyYqNQEBeNnMR4pMZGIzk2GumGRGTxSE5ClpHXCchKjEdmXAwyIsNgjIlGemqqGNzVnIlEW6ivR23JaZQnxAiuOs3NBQkuexB7wBkxh/Yh4rgHwk76IzYmWgzKsn0qF5i5qwh525rsdJSlGJAUGgxDSKD1IzQYiZERZnmWFyshiQAADDNJREFUFxWipqgA1Xk5KElPRUZ8LAyhQSKN1MhwpEZFmGShTDcyHCkGg6AVWK9sz+yTyjrhteintDBJjEWmnxdS3A8j2f2QoBGi3I+KXZGppXPhi+kop95XpFVdhZriIpzOSEdWYgIyEuKuODLjY5EZGyWOpLAQJESbosox7bLSUpwrLsLZ/FwUpKWI+lJLg/eYTkZMFGhxk5qcJNp2SVEh6umIU1YqNpTNTUtFltFgqnvWv+XB9pCYgKyUZPE8tX4tyoJOPxXBvkif8LFpE9zGRT3SSGFfDMXxbZtx3MNDWMiwPxKMiQdKGbUEk+QzzQZk+aDyTNCUByueDZUHAZogRhCiVslRSR7UftmwCSDyHsHcEvSU72nra4728VFR2L1rl/CyI+1Cyw7y49wrz8/XtHW31IQIqCxna4Rv7hx1dWLwItArD4IGZWDvwYZFOfNgZyRAyu/W0pCDHcvDa/6XAMu6kAOQMl+W18wnByfKxNpHLX1Z3+wYbNCWafMef5P/k3lSlod1ItuL8r7ymnlk2mx/lIkcSC3zK+uEbVbKQbZPtlF5UMNmespBWZmWTIfypEJhWS5r35lX1h3lyYPvkPmXZWA51NKQcpAgo9U+ZV0o+6MsG8+UM/NtKx2WmXmkTJXy1rqWsmA+mTbLKXHCnjSkHJhvvkO2XTHI1NWJNLXerXZftltLOV2oqkS56z7THn1PXvbWi36zE4Kmfg7vnVuFQklFigMLy8U2Y5mOsk0097pNAFnrpWwA8pDCY2VoHfyP/L9Wmm1xn+/hAEE/8/mzm5rDkdsmpywX8TZu3CisKcg5EyTYGPh8aytBlrO1Z2vysCdtlkP+j42LdSOBS963drYlB7X0Zf3zfVppy7zY81+tNNTuW5MXf+Mzlu+WeeCZQMT/aH2U5VV7v7V7UpatSUMrX/K+fL9af1TWu/y/1lmm09Iz023ps3xOflqahpS1SKdxf8DyI87I/OQd056LNNt7+A+I7vUC/OdMFY5GxAvO5DlYc2BhW2iSjsxUK85XFZBbka+r9igFSDBmwB17HEbkohm98fbu3Sv4NVIO9mgRLSkE80fQl1oYv7d1pbckX/ozugT+FyXAfQjrTxeg7MBOpH3wKrjDh/DA5GJpn1fgv3oxPHftRNDhgzB4e+BUaAAqYiNQbYxFVUI0ziZEXXHUpieDURNJYZECaU4fvuEAmUDHhUOCsaVpmK3v1J65oSqdK8j7corH9DhKN0foWg2baRDoySOLhbeiIqGtUXPRQVlLavp9XQItkwA9R+n+XbpnK5IYQ/oe047RdEiJ6/c6AhfNwokVCxCwaCaS501GwZwvhWs5F395JA3pjoQBXa84cqaORNG6BSh3P4BzqQbUV51FvZ0RL284QKaVA+NqaMWmsAXK0mSPtteMMcyFOPJUBE1b01lbzYZp0OKD9sK0SKHVBC1BZPo6KNuSoP67LgH7JVBflCfiRxsZ3U25ke/jf4XhtQeR+OTtMN73G1Pg+Xt+iWR5tL8FybRbV5gONrm+5xYk3/srJD19B9I/64NSb1cU5l65W7ZaTm8oQI6Pi8Oc2bOFnS6pCHoD0s543coV2LRmNVYvXy4W9RhbgtHqpOOFGkhLzz06mMyeNQueR48gKzPDTGUoeS41wavdI1VB70S6RjNvNG/jqjftl7mwQd5P/+gS0CXQegmcS09G0bIZSHueu6qbNGOzQwu/3/ebK+9reBSan7P8nel0/CtS+r2GhJAgs0OKNWy4IQCZQMZV0YULF5qDGxGIGYbSxcUFJ7y9EBoYKGwkuaM1bXV5n+FDCY5qgCzvUWN+79138Rk9DOfPFx6GtFumZtucBUBqvwRdOqNwsJj+7TdwO3JYOLDQhI0r1NTA9Y8uAV0CrZNAXW6W2HIp7dV77fMUtATaZnwX7t8vtQcDUHFBkDQnZ8JanxsCkLlqzuk/3bwZ5pPATKcK2kbTkYX2ujS/42IfgY8HAZWWFY6OjoI+IEUhQVjrTNdvasw0naPrt5JntrUiS/Cmxw+dZshVz58zB96ensJhQNqFWhtZtSpYv69LQJdAUwkUH3ZCOuNyNwNYW/pfBiCK79IB7s67zRsv0FpH63PDADLjT0ydPBkrli8XFhYEYmqypAMIwGomWBQcQZrASi+3CRMmiLgddPnWAmXep+szwZ9eiIz7QYcYGWZRDZilBr9lyxbxLF2qly9fLmJ5cFDgqMr86RyyVjPW7+sSsEMCNPGsPYesKSNhfOIf1gH57psEd8x4I0a6d3f6uwi0xeD0cS+2h+HpO8R3Bt8Sv9FVm7yxBcgbHvsLoob1gtu+PWJDWuLADQ/I1CwJrKH0toqKFN5W1EYlN8sphJb2yfsEQxqB03WadsmfffaZCDpkjWNWAjZjSBBsSYfQAJ/UBN9JIGbadDigqzO1cFIgdC/funWr0OBphE5tnf/XAdmOTqf/RZeAhgRoVcEwsFnvXd6Q1AygjcH4GWApoePfEP/cfxHb9THEv9UR8R+8hrhR/RA3cRhipo5GyLxvETdpBBIbD8PY/jB81BmJb3U0AbUMm9ruZsS99gD81iyB26FDQrHjTJx9XutzQ2jIsvAEQJqpSU+w5lgvEAwJinyGLuHcdmnkyJFWNWUlKPOadAR3TKG7uPT0oYs2zeiUcYxJeTDuNC0u+C6+UwdjWYv6WZdAyyRAm+Byr6NI72KxCSw3G3jjISQM7IbwL4bCb+FMePy4XdCa7IOkNiW9yVm1PNg3ZVgDXkczDILjFsS/87SIlUzzucih78L16FERc4au1lTGtJQ/luqGAmSCmtRKOW1ortbJ5ylMgjppBGqvdLHmnn/kfS0B2PI7/8MFO2rCtOSgJQVN3BjiUxk+c+2aNXB3dxfR5ajFNzefLWuu+lO6BP63JXCxpgpFS6ch7bk7BbVgZEzq4e/Dd9k8+O7egaAjLgj39kRsSDAMcXFiTYf9j4GWOItlSAHOtOVh6cZeWnwa5THhyHjnKTDcZ+zAtxDkuFWsX4WHhYk0rGnHlP4NBcgssARVAmtLtU4J7PTD5xSEHDMtNrhYSK3ZcqNWS2BmUH8RYrNHjyZATlAmvbFj+3Z4e3kJwCfw69YV/9tAoZfu6kuAfbahogwZn76L5Ef/BMPzdyGKO744OsDb9QhCGsONcubKPkfQZewMOmrxoALHfmjtqKs8g+yVc5Hy/H+R8d6zMK6aLyINcg2JllL2mK7ecIDcllXPSmYFycU/mrXQXI6bto4aNUrEILZ3RxVqz6QtGIqUUxzyzaxENgprU5y2LI+eli6B/1UJXDzfgNrsdKS8/gCS7v0l4ga9jaCtG0SwIMY45/oQNWDOftmfqcmy38nDlvLGzVErvY6I/QHTu3dC+oKpiPN0E/2Ycd25DsQ0baWjA3IbtUBWHCuS/DRdnw8ePIilS5di/LhxGDx4sOYiIBcGSVnQXG7evHk4cviwoCrYQFiJTFP/6BLQJdA6CVxi4Kz0JGT2fAoZXTsgftF0BHl5Cm6Ym9NSI7YHMNVyQW66JjoUOZ/2RFKnvyNt2ueIdzPt1E4w5kK+jH2j9rzyng7ISmm0wTWBmRXL6Ql5p4CTJ8UC4Pz588XuJPQAJIf8Ub9+4kyKg4GLuCsJF/u4bRUXCDha0zaZ6ekfXQK6BFonAVpYnC8rQenmZSjetgbpvseFowaVp9ZaMTGIEHdtT3vtPqQNehMJri7mGO/Sh4AzaVvaMUuoA3Lr6lnzaQpfWmXQSoIjMLVebv3j5noUR/bugevhw8ImmiBMu2hSHly1pZatg7GmaPUfdAm0SgKkJajwUGEiGLfWiknMjouLUOZ5GJXBvsg2JorgYOzv7Pc0JLD3owOyvZJqwf8IyqwsHhwhJTAzrnJ2VpbpaFzF5eIgV23ZWKhhN6cSW5A1/RFdAjesBNgX5WId+1pbWDFRA79QU42qslIUFZo23yAYNzdtHZCvUbOU4MzGwEoi8NJKQx7UiPkbwZv/5aF/dAnoEmh7CbBvUeHh0ZZ9jWkR4GXf5nVz+7EOyG1f33alKDVn5dmuB/U/6RLQJXDdSkDZn5sLxiyUDsjXbdXqGdMloEvgRpOADsg3Wo3r5dUloEvgupWADsjXbdXoGdMloEvgRpOADsg3Wo3r5dUloEvgupWADsjXbdXoGdMloEvgRpPA/wML7LQiX+AQhgAAAABJRU5ErkJggg==;" parent="1" vertex="1">
          <mxGeometry x="626" y="637.07" width="64" height="14.92" as="geometry" />
        </mxCell>
        <mxCell id="rsaEBbKv7yQd2xddFUuZ-34" value="" style="shape=image;verticalLabelPosition=bottom;labelBackgroundColor=default;verticalAlign=top;aspect=fixed;imageAspect=0;image=https://www.python.org/static/img/python-logo@2x.png;" parent="1" vertex="1">
          <mxGeometry x="600" y="593.76" width="91.35" height="25.83" as="geometry" />
        </mxCell>
        <mxCell id="rsaEBbKv7yQd2xddFUuZ-35" value="" style="shape=image;verticalLabelPosition=bottom;labelBackgroundColor=default;verticalAlign=top;aspect=fixed;imageAspect=0;image=data:image/png,iVBORw0KGgoAAAANSUhEUgAAAQgAAACeCAYAAADOvpQVAAAWQ0lEQVR4Ae1dPc4tu3F8W/AOvANtwRvQHpw7du7IUCY4U2IocmAIXoBe4sCBDSiWIwGCodzAM2xIECR8Rt0PJfXjJbubHA7JOacIHHAOhz/NIqumm3O+e7/5UBICQkAINBD4plGuYiEgBITAhwRCm0AICIEmAhKIJjS6IQSEgARCe0AICIEmAhKIJjS6MROBv/v23z/+6ic/+/jmb3/88Zd//49fPn/9zz//+OkvfjlzGPU1GQEJxGRA1d3XCFAYIA61DwQDAvLr//7u68Yq2YqABGIr/K8/OIhfE4VamYTivP0ggThvTV7KIisE9BL+9Ve/+UB4Ye/ZawrFSwHx0MlIIB66cE8wG0JA4kMQyoSQAqIBQWA9m9falH3o+70ISCDuxfete4cAkPAR2XFYWRMKlEFo0JfOKNZvJwnEeszfZkQrECB6lFA/e2aB/iA6egsSoXrtvgTiGn5qHSAAEme9CHYFoah5E+ynlqO+xIIIzsslEPOwVE8VBEovAuFCJtGbAPF7xAJ14YUozUFAAjEHR/XiIGDDBhB4NEE0IDDwFPDxfl+BcbJiNGrPO7STQLzDKm+eI4htyRwdWPaYS0+jFnagTN5ED5pf15VAfI2JSm5AAES2ocJs4qJ/eBV2DIoGymaPdwNER3YpgThyWV7TKLj8lrR3hACeRyGR6N9XEoh+zNTiAgIgqRWJC125TVtCAW8C95RyCEggcjip1iQEQE57HpF9NYl2Ix6HFSQrTPImcgsqgcjhpFoTEQDZLVmjriEirD9CbIxXO5sY6Suy9dXuSyBebUUfMh9L+owXYX9wNUJsiATaUWiYj/T1EIinmCmBmAKjOulFwHoRCDmihPoMTeANjCZ7UEqR0LlEG00JRBsb3bkZARIeRM2cL9DruPo7ilrIIZGoL7YEoo6LShcgQMJDIDKuPr2IjJhE5rdEImr3bvclEO+24gfNFyS1bn7GNLSZlWoikQl3Zo3/hH4kEE9YpRe2sTfMmA1FTSSuhjCzbdzZnwRiJ/oa+8vZA72IXcSsiUQm5HmH5ZNAvMMqHzxHkJMCceXtxNUpWjtoj0TiQ//13tWNpfbXEdgdZnAG9tAUIgHBmnEgyv6fmMuDeOKqvZjN9rcJu8IMQgqvgR4ERYL33jGXQLzjqh84Z3oRO8MMwIJQg7ZQKHaL1s7lkkDsRF9j/wkB697vJmTt0PJdQw0JxJ+2qC52ImBJecKvGm3Y886hhgRiJys09vcQsF4E3PzdCZ4Mwwzkuz2bHXhIIHagrjGbCNj4f/drxtqrT4jYOyUJxDut9gPmWpJyt0hYr+YdQw0JxANI824mWlLuPo+AYFmvBiLxTgeWEoh3Y99D5mvj/92EfOcDSwnEQwjzbmZagcBTfHd6Vy9CArF752n8KgL27UG1wuLC0os44S3LCggkECtQ1hhdCNgziFNeLZZnEe/ydxoSiK6tq8orELDhxe7zBzvf8u80ThEva+PsawnEbETV32UEbLx/ubOJHZSvYHf/3cjEqTW7kkA0odGNXQjw/OHEJ7T1bmDnq/9wSgKxiwUat4qAfUqfSD5rHwTi1b0ICUR1m6pwFwL2gBJkPDHZEAgicdI5yWy8JBCzEVV/lxCwLvyljm5s/E6vPCUQN24kdd2PAJ/Op7vutJPnJa/qRUgg+vewWtyIAImH/OT0Ll6EBOLkXfiGtj1FILA0tPWVvQgJxBuS8OQpk3QZDwJP8Z2vQu2BKkQiY/PJ2Ndsk0DUUFHZNgRw9pAhG1837jyrgA2091W9CAnENipo4BoCJFxEfHoaIObO30u8uhchgajtUpVtQ4DE9wSiJKVX9+6J0JOhBwFbXumNhgTi7h2k/rsQsH8Q1fqhFEhIQjLfSUr72w3Ys/NcpAvsRGUJRAIkVVmHgH192CI9RcHmOw8ISy8CdrVsX4fknJEkEHNwVC+TELBkq/2DtWV4YUViJylLu+DltDygSVAt6UYCsQRmDZJFwApE7WyhdOdtSLLbi+D5CUUL9sPencKVxb1VTwLRQkbl2xCwRCvJZe+BiBAUW1bWXzkJK24UCeYQC3gZT0sSiKet2BvYC5KTWGWYAaLxHnIkWx9isTOVgmVtxTXsL+e0095obAlEhJDub0GAXgEIZZMlnH1bwPq4v9OLoK0QCgiBtcva/hShkEBwRZUfhYA99KMQlC48y2G49SJKUdk9MYoF7LIigevTvQkJxO7do/GrCIBUllAgkhUNkKuM6SEYJGB5rzrIhkIImbUT9mKeJ3g9NTgkEDVUVHYEAtYrIPFtDhGxyYoKSFfet3V3X1tbOacTvQkJxO6dovFdBEAaEsjmNrywHYB4rNeqY+vvvIat5fxOEzYJxM4dorFTCCBcsId9uPaSFYlTQw1rPzwlG07h+hS7JRB2pXT9MggwPDntidwCuPQmYPcJIYcEorViKn88AvQkIo/jpInCc7DexG6RkECctDtky3QEIBKnPI2zkyu9iZ1nKRKI7Kqp3mMRIOFOfZXYAtYeYO7yJCQQrdVR+UshAJGA+478tETbYB8+EAN8yt9L7BAJCcRpu0X23IYAibhbJDA+yG7fzPDVrJcjVFqdJBCrEdd4WxHYJRIUBU8Aavd4frLDe8BCSSC2blcN/i4IlOFCKQYQAtSBEOCsZLeXw3WRQBAJ5ULgRgT4uwwrDBSEU8SgNn0JRA0VlQmBGxAozxx2nCn0TksC0YuY6guBQQTgKVgPAte7zhayU5BAZJFSPSEwAQG8xixFAp7EqWGGBGLCoqsLIdCDALyGmkic6E1IIHpWVnWFwCQEcGgJz+F0oZBATFpwdSMEehFAWNF6/XmKNyGB6F1V1RcCkxGohRzwLE44m5BATF5sdScERhCAN1ETit0iIYEYWU21EQI3IVATip0iIYG4aaHVrRC4gkApFBCJHUkCsQN1jSkEkghAKPgLzB0isU0gMPHMJ4njcLWMDajzyun3//lPH7/7jx99/Pbbv/ny+b9/+eGXHGV/+M2/ffn88bv/Wg4BxoQNtA128UNbcQ/235Ewvve5Y8xWnzyfwFuPlWmLQHCy5Tvg2vc7yZm1A/VeLYFUINv//MNfdH3Q5k6xoFj12vW/P/3Bl/lAMGbYhz48G4DD6gQuwItY6UkcLxD4aepdCUDXRKksW63ad80X/cIjAJm8zZ+5B4Kgr1kJhJxhF2xHPxCKK+lEgcB8IBJ4YN3JC4vbFoFo/TikJCa+30VOAF0br1b2pH8V2S5ueQ23PEP+njpXhQJEvMMuCgX6H0mnCgTmgr370gLBQ5caGWtlAGR2yoYXsOcVBAJE7iF+T108sUcSSHinXRSJEU/nZIEYwXq0zRYPolcg7lDLbHhBwRoF+IR2d5Nw5JAwImCPQEV1IWC9IhHZB0zfIW0RCJIum88OM3rCC9p4hxezYoMhFo8IxPt8IwAygSDI8eHBIUhRnhOMeA8R+WgPcvRv7aI9CEt6hK9XJCIbJRA37l6SriefSdCe8II2zhz/Rmi/6tqSrXUNsvUkkBRtSN6etqibITbqgKRRQp2sCPaQWgLxifxyD2Lk6Q2SzgwzesMLjP+0/3QFy5shDuqsTPBGWkLF8hGbMnNF/9lwSAKxSSBq/3gnn9JePivMOEGgVhEyelL3eg5X7Y5IBwKPiAPtyohENiSKbO3xRmjfE/PlHgQ8AU8IvHsz3PyR8AI2zfRgVmyUaIODjKsTBIleQi2fQbpoDIyLEClKEX4zbI1sOOH+coHwCBq93ZhB0lZ4EY09y4NZtejRBs8+SWfaWxMFWwabr6Zo3hgvQ+6on0wfV+dyQvujBCLyLq6S1AsvotDn6tirFxtPSUu+8nr1Bo/OHmaGO5EXAXGMxEgC8bljlwsEiNYKI2BS6wnPNlfCjJb3Au8hEgjUaSXYhPatzxWbMWarX5bX7IoIuVogMF4pUvZ7RNjaHFtlEbkxbnTWEfWxGr/WXO8uXy4QniuPyXoCApEAKUZTS3wgHJ53gXHRtpVawkNRu+p9sJ9a3uo78iBAkpmkbGGD8owtXvuRe/ASrACV1xHBJRCfqB8jECQgBKBGBJa1CBFtIk8A2JZjtHLWK3Ovb/TFuZXtMt8jPCBOtZQhZfQUrfU7UhZ5MzPDC9oXeSzRGYwE4hPJ5QLRIp8lEa5b9VA+4rK3nvKzxvU8I9g86vlE5zKtg9tog/OJusKLiM4Esr9NIPkzeUYgvX4i/CIPxOv7SfeOEQgb498RZrRExz6BW3UoVp4wtQSIbe04PRsk6tezKXKzIRKZA7see2t1IzvuEKmI4Jg7RKSVovYSiBZyF8o9V9wKRORW94YZ3rh2Ole8AG8MiIT1VOyY0XUkll77zA+HVogEvZVW7s1h9F5EcNjihVhRewnE6Mo47TwSlaSPnubOMF/daj2FS9JGZGy58xzwisCwjzL3cCgxK9vie/T0tqQFYUCMmSk6f8D4d6Vo7hKIGPmlIYbnGZSbPSIrxCabWsQt3f5ozEggWkJ0JczwBCKyB/hkvQgKBUg180wgEog7n8Tom/Oq5RKImEFLBcIjUElWbH4Sq5aX9VtT9byWUmQ8+2BDNKYngGhvw6iWvWV5be4sK+0v2/J7r0iATCCXF6Oz7yiPBOKONxi0KRIIb2yFGJ8oHisQMM97epbhATdFmbdIX2sfiVLp5ZRj4TvJW8trY9b6YFlkD+tl8uhNQu0JizK0uxJ2ROLkkTQzL69ONGfPe5FAfCK7VCA8F772dPbqg4CZJ2g2vAAcESEzHkBkc8/rzpa4Ye4ZW0ryRGRtiQTK0XZEKCKSSiDKVTrr+1KBaJEVGx7kLFNE2Jqo2D56wgu0mxEizOiDc/DEBvdGEsKG6PCuJRQ8n+gRCgnEyCqd0+ZogQBMV8KM1hO45epH5G61s8vpiRKEMNMH+/PmXhNUtsvkOBsYFYqe84mdAhF5TAox4p1yjEC0XG/P64jCjFbblucRkRvjZVJrXLTHpzXXsm/Wr+WZ8Krsr/YdBB4VikzYceWgsGZvT1kkEF54ozOIT6SXCoT3RGyRpuUFkDQjZG+NBUjYbyvPbFD032qP8kx4EIVXGTuydUCG6EnfCjsgAF7IEfXrPcWz9rfqRWNLIFrI/bl8qUB4pGk9EaOnOp7WtdQSlsjF90QM9rfstDZENkc2oK87zh+sjbXr0fMJeCAtkYhIKoGorcQ5ZccLBKAaIW3LzW95HFySkbHY1uat8SmSnheDfjyBuHr+YO2sXY+cT8Cdr6XIzd8pEC2bMQ+FGJ+reYxA1DYXy1reAMlWkt57gkfEvEps2hyFGaXNbMecc6vlrHN3Hj39y7ADwlKmSCDgfdyVIvtr9tIWCcQnEssEwiMtSOCliGxlmNESlIxrP0sgovl6tnjnD5nzCw/L3ns9YUfNG9gpENHhqwQi3g2PEAhMo8f1b5E8empjnFZbPsl73Puor5Y3szO8qG0ZPE0jstGbKM8iIDC818rLNjUbRspa47HcGxf3WK+W18RwxMbT2zxGIFpeAYlL8ntP7gy5PXJirEwfXHTPE0BftJn1mXtiiPntSCBMRiTKNwMZgUCdO1KN2LbMG1MC8YnOMoHwwgTP3eYieu1BNjytkVpCkhkD7SOBaJGadtrcEytrs22Da9xrfcq6K79H4QLIVwpERDS08Q4LR+eH8MGKQXld2lmOE9ktD6JE7OJ3j+BZ8npPVhAKhGy59RSQaBqRQOB+T2rZA3tr8/a8jt6xe+zM1i2JVn6vEQdlZT37vdYma0+rXnRAGYmSBOIT2WUehLfxa0SpLXyGvK0nb/bJnxmjZlurzJs3bC3PIbzx0dfuFIUZuF+mSCBqbco+er9HdkZhjQTiE/FHCYTnhbSEgeXZDdYKUdhP71M8CjPK/jwvKTuHO+tFZK95A5nQJCJsz5wicmcEKeqjNs8eG59S9wiByLr/ANUjEElc5lkPBf1HAtFjKzdBNszwvI1SSNj36tyGBrXrWmwfkQ39zCRcFF54rzeJZ2TzTHs55on5MoHwiNdDOs8FL4WB37PhBRbIIyn667GVC+7NHX0yeXMrQxG2WZlHpAHRW7E9CFUTFFs2y4uwfdauMY8oRXOVQEQIdt73SNJDuojAFAWb95ga9d/jjXDcKMwg+VveUQ8+HPOO/EqoEL1VAJFnkC4SopqHU8NKAvGJyuM8CJjdIpIVBV73EvoOgYDNIDltKnOIpzcu7u1OeLrXnsa2zIvtI8Kxn5YHkpn/FQEr+4/snSFm5Zgnfl8mEJ773Btfe33VyNcDvEdU9N0rOBzb86AwH29O8EBGEjY5NjKIg+vRFJElS+4MgdHXiEhk+u7pN5qzBGJ0NzXaeQTAvZ4UkdiKRE+/qJt5U9LbJ+p7YQbm3/KKerGxtpWkwaaGJ9AjFtGBH8XB8x5oE8aFDWzj5egvcyaR7bOX0BKIz1Vb5kF4LvYICVqEsuIw8rS/SyAAt4eBtdte83yCJMvmmQ0O8kNEKBrIcVaAsqwwkOSZNwOwPbKL/TGHUMAW9I8PbIR9+OAe60V5Rmwsthk7Mf7op7QHAlb2BXswd5Tb+qxn7b3r+rECkSEb3PredKdAQAgt+TPXvfazPggUkWbW/aw47LANc7Tkog1RnhGIK/iVNmE8jmnvUTggFEjAGgKBsVekxwpEJswYid29UICEHukXi5kRH46B/MrhZO8TdnSzY5yRtErALNl67CRZR3GJ2tXs4pjImSAQXEuU4Tu9O9a5M18mEF5IMPKkByiWTOX1SHiBPu8UiEzfnMeo/XazYKNxM0UbduR+bZPb8aNrPA1Hxu1pg6dtr4cDu0nWnrF66taw45ilQMB+CAPxQluMtSItEwhu/Fo+KhB3iE6GxKMeBBbUs9lic8V7KDcONhRj2Z5N3KqLvuwmLsfr+Y5+VngTvUJBsrYwuFreKxAUB2AvgUjuMO/V4ejhHoa2RK1dXxGIzNkJ6tyVQEbGtb2bfKYwlPOjUMC2Xrt66meF4jSBoD0Qh5cUCJDK+5QbJvu91We2fa1eq0+W19pkyzIHlVfELWsH6mGjQTBAfBCTH3zHB/fw5MLmXJkwHsalHbQL5MYH32kf5oD6sBX3smKREQr0e9enhifHsvdQxsTrWj3WmZ0vCzFmG/7U/qIQ407v4amYZe0GcSAUWZFAPQiNUhsBCUQbm+l34IHUQhZbtsp7mD65gzqEUMDLyAgFn8oHmX+UKRKIhcsRnT+M/GBsofmPGwphihd2wNtQ8hGQQPj4TLsb/QZCocU0qL/XkRd2fK+ivlQRkEBUYZlbmAktUEfpPgRKocDhplKMgAQixmi4BkjvvYrl2YPOHYYh7m4IodDBZB42CUQeq2pNkBsigB824YNrfKLzBorDzB9EVQ1UoRC4gIAE4gJ4aJrxECgGZS5xuAi+mt+OgATiIsSjAqGw4iLwar4EAQnERZh7BQI/lJI4XARdzZchIIG4CDXChDJ0qH2HMEBMlITAkxCQQExYLb6twMEkf0qNHN8hChKGCSCriy0ISCC2wK5BhcAzEJBAPGOdZKUQ2IKABGIL7BpUCDwDAQnEM9ZJVgqBLQhIILbArkGFwDMQkEA8Y51kpRDYgoAEYgvsGlQIPAMBCcQz1klWCoEtCPw/y781MPEpIqsAAAAASUVORK5CYII=;" parent="1" vertex="1">
          <mxGeometry x="1070" y="570" width="64" height="38.3" as="geometry" />
        </mxCell>
        <mxCell id="rsaEBbKv7yQd2xddFUuZ-37" value="" style="shape=image;verticalLabelPosition=bottom;labelBackgroundColor=default;verticalAlign=top;aspect=fixed;imageAspect=0;image=data:image/png,iVBORw0KGgoAAAANSUhEUgAAAMgAAABUCAYAAADH/HimAAAIa0lEQVR4Ae1dv6sdRRR+xTOtgYhNilSmFBIs1cpWsXhVwEZsFEESA5aClZaCiIIQhCD4B1ikEBFsDBHhkUpBYiVYJ5Bu5RPO5dzvnTk7u3dn7+6738AwszszZ86P75uzd+99ydGlCyedqnwgDMQYOJJjYsfIL/ILMCCCKIPqCSLBgAiSOEdZRFlEBBFBlEESDIggiXOUQZRBRBARRBkkwYAIkjhHGUQZRAQRQZRBEgyIIIlzlEGUQUQQEUQZJMGACJI4RxlEGUQEEUGUQRIMiCCJc5RBlEFEEBFEGSTBgAiSOEcZRBlEBBFBlEESDIggiXOUQZRBVkeQjz74pnvy+OlWffDrHzoFRfQmGFglQToqIohO+lbZfnaCXHvh3S6qtQYig3ARQUSQWvwMnTc7QU5//4vx3d1876vq9CiCiAxDQb7LfBFEz+7Vh9MuQFvrWhFEBBFBEgyIIIlz1nrqSe/pHkNFEBGkOoPg5cobr328Vc87GUUQEaSaIL/8/HDrBQuuRZCJAaS3WNOl/7nBKYJMTIYogCKICBLhYqn3Jn3EeuX6re7Vl26fqZefvbFJxX0EefnarS6q5kB9D7I/gimD7JhBQJCoDCHI3Ts/nhFx5+t7G4KJICKIHZZztJNnkDPo7rrOEwSnEFf/TfoSCWI/jcEbnF2DYm+C0O4qK1pv8qOxmnvZ+rEZxGROabO9TZtSZuSf2QkSKeHvzU2Q99/5Youwn33y/Qa46P/96N8tzuP6u29/+v9Vp9c76yOYDC4IhSzezx8e0M3L9WPoGzjQQg4Xlu9l+b6t9zpirdlqc/049sK1jXELmTx/jM0mtyTP9ID9mGPzp2oPniAMLIAfjgY4slILPpYfyYQs7Im9fcFaH2g/hj7WgHx9heV4mTXrTT8GfIkgU9oMXXFQ1BbY4+3btT87Qa4+/3oXVTNk7gzCwUTQGQhZcABq051bBnwmByDkfRnYvJ5153F/zdkIutaQw2RAPy4RQaa2GYdAVKBPpBPHYNfr2Qlyevdi190/2qo3T65vQLZvgvhgAIAAkZ3UESARpOjUKoGvRqbpgLk+wHbfWg8QzEW1R0abYy3melno+/U2D6CHDNiMCpmlwgRpYTPvHx1I2Be6sD5s75hrEaQAgAj0cHB0okWBwT0uJZkZsHxQWR6uI4JCx779GXiQFYHPbC6RyevXt6efG/kROkAvP49lYp0f9/1szM8b0hdBAoKUgGKOjR4jPPij4I+RyWCJCOL3Nf3QRqTzcxnwuPbruR/JA3htXiub2dfQswURzA5uRZCAIH0BiMDgwRd9qBwjs48gGekiHf3nECabH2OQ2DWf5p4grWyOMh10x97Ys8+vpvvYVgQJCFLjTAaYB3MU1F1lYj0Xv2ckvzQ/ygae4JEs3MsI0spm7MvZju2CXjX6l+zK7s9OkCsX3+yiakriQ/q9Hx5s1ZbfpHNg/aloOkUtB82f5vxYMFYmE4CBweOsZ2l+RJCakzjzVSubYRN0Y3+zbbju8wf7p+Z6doLUKJXNmfqnJhx0BCLb38Y4YD44Y2Vy0L1M7MuFx003a0vzI4LUnMAZCcbanPnR7LAWe3AWK9loa3ZtRZDgEavmNOXA+Gf4CIBjZDIBeE8eZzCU5kMXLl5/lmPXDGafGVvZbHv7FnsZWVgn2OXn7tqfnSC/3f+z4+p/i/XiMze6qJqhrTMIHOwfl2xf3yI4XDwBIgD2yeTTGfKZALwnj3sd0efi5zOwcM3r/XVEAE+QMTZHfvQ6+v1LfejFtvhYlNbV3p+dIH0/d//y+Hb3z/GnW/Xz4w83wZuDIHB46USNgOCBYo7nR4FMZgS+1gSBfVxK4ITNbA/Wst08J7M58mNkM3zTB3je12IwRSuCBNkAgUJwARgECI5GkKITD3Ntjg9IBIAhMiOw4J4vJUCbHn4u+n4+9IM+XAA2syezGeuYIC1sNvAjw0ZkwT1fYJPZP0UrggQEiYDjg+D72aNTiVB+vfWxp4HB7nlAI9hceJwB0Tc/yiK8xl/zYyATBPsPtZl97W2KCAd9sC8qr8WYkZt9MfZaBAkIgsAwGDxQrO+DGQWg7wQ2OQg0Ast7snybby2Psw42z9poPvaNgGZrrAWZmFARQaa0GbJqdDMds8OKfVN7LYIEBIHzLNAAgS8IGO4NOakwl+VAJmR50KKPe1b9GHSy+9byOAfd5llbmg9bmZxeP4xDtpHJ5GWAxJoam0E6k4c20tH8h/GoDI0H+ym7XhxBnrtw0kXVjJjjQ7rtZS2CjTqEFLaWW5ODlseWcG36TWGr2WMyp7DZZIFY6E8h0/SM2sURJFLS39sHQfz+6u/vb+L34XsRpPCItY9gaM/lkW9xBMFvsR6ePtqqc/4WC8+4AurygLqvmCySIPxBTAQRYA+GIFcvv91F1RzQ9ye30T9Mh3u2fmiLtyZchsrQ/PNL4NkzSB+Y+gjSt37ouAhyfsE9FAvR/IMnCF5n2pdg1kaO0r3DJNLBE0TAP0zg18ZdBNnx3yOudbTmrZOIIogIMvoFxyGQXgQRQUSQBAMiSOKcQzghZWP+6CeCiCDKIAkGFkeQK5fe6qKqky4/6eSfNv5ZHEEU6DaBll/H+XVygjx5/LTj6v+HKQVqXKDkt/34bVKCKIj7CaL83s7vIkjyAU3Aawe8tfhWBBFB9BYrwYAIkjhnLaec9GyX6UQQEUQZJMGACJI4Rydzu5N5Lb4VQUQQZZAEAyJI4py1nHLSs12mE0FEEGWQBAMiSOIcncztTua1+FYEEUGUQRIMiCCJc9ZyyknPdplOBBFBlEESDIggiXN0Mrc7mdfiWxFEBFEGSTAggiTOWcspJz3bZToRRARRBkkwIIIkztHJ3O5kXotv/wMMHfDu4pi0HgAAAABJRU5ErkJggg==;" parent="1" vertex="1">
          <mxGeometry x="887.3499999999999" y="372.23" width="47.62" height="20" as="geometry" />
        </mxCell>
        <mxCell id="rsaEBbKv7yQd2xddFUuZ-39" value="" style="shape=image;verticalLabelPosition=bottom;labelBackgroundColor=default;verticalAlign=top;aspect=fixed;imageAspect=0;image=data:image/png,iVBORw0KGgoAAAANSUhEUgAAAWQAAABTCAYAAACoE32BAAAgAElEQVR4Ae19B3hUxfr+/am3eYu3e6/XexXsigr23igqiIIgShNEQIogohSVXqT3Ji2UCAk1lCQkJCEJ6b3upjdSSSUkIYXy/v/vbGY5Wc7Z3RQQL2ef5zzn7Nk9c2a+mXnnm3e+75tfQP/oEtAloEtAl8B1IYFfXBe50DOhS0CXgC4BXQLQAVlvBLoEdAnoErhOJKAD8nVSEXo2dAnoEtAloAOy3gZ0CegS0CVwnUhAB+TrpCL0bOgS0CWgS0AHZL0N6BLQJaBL4DqRgA7I10lF6NnQJaBLQJeADsh6G9AloEtAl8B1IgEdkK+TitCzoUtAl4AuAR2Q9TagS0CXgC6B60QCOiBfJxWhZ6ONJXDpIi7V1+PiuRpcOn8ely5dEkcbv6VVyV26cAEXz1XjwplyXGpouC7z2KoC6g83WwI6IDdbZPoDPwcJXKipQk1iDMqOH0Fdfg4u1NXi/PnzuHDhwnWT/fqiPFS47UPR95NQl5GC8+dqRB4vXrx43eRRz8i1lYAOyNdW3vrbrqIECGQ1aUkoct6K9IlDkdH5IaS9fA+Kt69FaYoR5eXlOHfu3E8OyrUZyShw/AHpI99H+kvtkPZSO5Qd3YOSrAycOXMGtbW10EH5KjaU6zhpHZCv48rRs2afBDj1r81MQdHmFcge0w9pb3eE8dk7YXipPWI+H4T4/buQGheL3NxcAcrUlK/1h9REjTEW+dvXImfsh0jt9iiMT/wDiczj1NFI8HSFMS4Wp06dQmVl5U8+aFxr+ejvM0lAB2S9JfxsJUAgPl9WjKoALxRMH4vUzg8j6YFbkdT+FiS+2A5R341DoLMjQk/6w2g0Ij8/X2ig1xKQz1eUoiYxGhX7dyD3y49h7PYYjA/eCuO9v0JCl0cQMW08Ag7uQ1BAABITE5GXl4eqqipdQ/7ZtsrWZfxnA8jX46JM60SvP91SCVysq0VDcRFq4iNR6rQFp0b2RvJ9v0bSXb8QR2LHvyHyk14IOOICXx8fxMaatGNqnnV1dVcf7C5exPnyUlQlxqB0rwPyvx2FzJ5PmfPHfMa/1B7h34zFSdcj8PPzQ3R0tNDgmcf6+vqWikZ/7mcugZ8FIHMhhtwaGyu5tasFzkyX2lPtuXOoqqxERUUFSktLxcFrai7s0MwP/6t/rqEEaCVx/jzqCvNRExuGUqfNyB4/UFATEojlOabb4/BfOg/e3t4ICQlBdnb2tdE6L13CxdpzqM3JQPmhXUj9fIBq/pLa3YSwzz7ECecfceLECURERKCwsFC074aGhmsoVP1V15sEfhaATFDct28fDh06hOrqagGaBM62BkVqJqdPn0ZkRASO7N2DbVu2YPHixeLYtm0b3N3ckJSUJABaX3i5tk350oXzqC/Mg3H8ICS+dA+M9/+micYpwZjn6F4vws9howA7WV/XQuu82FCPszGhSBj0FpLu/ZVm/gwdboP/tAlwd3dHQEAAMjIyxEDf1u352taQ/ra2kMBVB2SCaXx8PI57esLZ2Rnr16/HzJkzsWjRImzduhVubm5ITk7G2bNnQe1AbXU5Li4O06dPx+jRo0UaxcXFQuPR+r+9gmEHqKmpQVRkJHbv3o0ZM2Zg8ODB+Oijj9C3z/vo3asX3n33XXH07t0bH/TtiwEDBuCLL77AmjVrhAaWmZkp0rBngOAKPxeWOD1t7cFpeEpKipjeUmNXk5u9cmjt/xpKilAVE9bkqDtdIGYSbZavS5dAU7aineuR9tr9SLr7/zQBL/TDLnDb6ywAOScnRwzi18Lc7eKFC6hJTkDOuP5ItjJgSEBmn4iMjERBQYGoRx2QW9sSf/7PtzkgswNyah8THY3t27dj1qxZGD9uHIYPHy7A7sMPPzQDXP/+/TFs2DB8+eWXWLJkCby8vMSiBrUZpiOPLVu2CCD89NNPsXPnTqGlsqMRTFvS4allp6WlCQ1l1apVmDBhAgYPGiTy9cYbb8DW8fbbb6Nfv34YMWIEpk2bhr179yIrK8vqoMKmQvCmTD7//PNWH1JmXAQqKysT5lwtkUVrmzC50nKnzcjq+3KTo2T7GlRmZwjah7OJtgAbask0Gcvs96pYFFNqxfKamnPwkJ5wPXgAQUFBYgDkQHgtZMMyNlSU4oz7PiQ/eyeS2t+sOmhIQPbx9hYLeaTDrsWA0dq61p+/+hJoU0Amz0vNb8eOHQKoqE2+9dZbNgGuc+fOAgzHjx+P1atXw9PTE2mpqYJXI7/G+7169cLUqVMFiPIetcPmrkZToyYokvqYO3eu0Ljff/99dO3a1WYetUCa4MzBZt26dQgPDxd5VgMAAgL5TIKxVlrNuc/3jho1SvCPnPISlH8K/rEmIhB54/pfATwZw3oi/eBuMfAxb23Cu5Ojra9D5uThMHb6+xXvJCgbH/o9gob1htvBgwgNDb2mgMzuSp67NicTyd2f0KRVJCCTPyalwnbcFgPW1YcL/Q1XWwJtAsjUVAl05MRmz54NghxBtjkAI//7zjvvYOzYsVi1cqXQJklVEIyHDBmCtWvXCs6NwJeeni6movZoPvxPQX6+AERSJtTK5fva4syysszLli0zT5MtQVkCMgeVoUOHgrMDewYry/zxGdInlMc333wjZhU0lyoqKhI85NVuMMr0ae1Q6rAS6V0evgIcDS+2Q+R34xB20r/NQTFz0Xdg+lIrVp5/ckC+dAn15aVI7vsKjA/+TjWPhk7/gP/Mr80ctw7IylZ1Y1+3CpA5qtPyISwsTGi2BAlLAGmr7wQyUgM0ESInTd7N1sIa80dgJJ3guHOn0Ih79Ohx1fLYp08fzJo5Ex4eHsLmVZk/MSgUFMDf3x979uwRXDoHHoKrvRo68/7JJ5/gu+++A6mWH3/8Eb6+vsLGlrz6tVi4UnaXuqxU5H41BMYHfnsF8PBe5IedEfSjg1gjaEsNPmfZTCS9fM8V77weNGTK5/yZcuuA/GJ7+M/7VgdkZWPSr4UEWgzIBBhysW6uroIb1gJeao+Wh9Z/te536dIF8+fNM69KUzsmPWKNd5NgzAVBapJvvvnmFUDMfDFtHgRF5SHv88z/aeVN7f6UKVPM9IWl3SvzzEGMGq3BYMDKlSvxwQcf2Eyf+fhq4kRsc3DAsWPHBBBzSk7q5qdxJriEsj1br7CvVWqrhhfuRuw3YxEaEiK05JZy/pZ9tWTjEmSoaOU6IFtKSv/+c5NAiwCZYMxFNZqEEUysaXikGwYOHNjkaO5UnZrk5k2bhKWGXJW2BDpLwVODpkY9cuRIkG+1BFXmgRYVkydPFtz0/PnzsXz5cnGQevj222/F/c8++0xQJmrAq3WPmvK8efOQkJAgOGVLTZlcL7VZDioxMTFYsGCBVUDu1q0bvv76a2zftk3IQHLo0hWYs4Br6X0Gcrk11cgZ0w9Jj/xRVVM1gePvENf3VYQedUFqcnKb8dzZS6bD+FJ71ff+1JQF26GuIVv2Rv27vRJoNiBTKw4MDBSLdmpccc+ePYXVAk3bVixfjs2bN4upNcHx4MGD4nBwcBBWFTQf45RdC9jk/cXz58PlwH7xXlpH2NKO+R/yzYMGDbqCp6UZGxfDaHZHiw0u8JH7JpVAjZP8NE3KeKaNKC0/aK43b+5c9O3bV2jTMl9aZw5QI4YPh5ebq6BXLKfr1N55UFumO++GDRusyqB79+7YumULXI8eFfQQ+XoZKEea/jG9a/VhWMsz/h7I6N4JdHJQasVNrtvdBMPz/0XMjAmICAwQcRrYfjigt+ZTtG4B0t54UPW9OiC3RrL6sz+1BJoFyOxM5CypPVpysfxODpmLcARcAh1XkanRcmqempoqOiSDp5ByIJXg4+MjQPH7778XZmTUBJUgR62WGvam9etx3MNDWHBQ86V2rAZABDhaHJAGoC2xMi1eE6BppkZw47SfVg+McUCOmcBIpxACHW2iefCadtTURKOiorB//36hNRPULdO2/P5hv37YuH4dggIDrS5qkfvdtGmTZnqUyYD+/bFv714hL2rdki9uLbC1pPFdoltwWQlyvhuNlCdvVwXFJqB8/2+R0O1xeO91hjExUciztdYgeavmIuXV+1TfrQNy82uVDi0Xz59v9UDZ/Ddf30+wrTcUF6LuVCbOV1YI+VztPmc3ILMTnTx5UoAxLSGUAEQNbuyYMQIICVoEbWqZBGG6hBLYyJsSSJUHAZ4gSMAmiE+cOLGJxkwwor3t7l27hAZLEyHabKoJhRQAXWRpNkdNVpk/8q+0aiDwU1NnOTggUNOk9kpuk/mS2ibTVx6kA/g7V8Np2zpn1kz07dOnyTuU7+M1QZvctcexY2JRizJQoxVsATLplhEjhmOfkxP8fH2FGRkHCzUZXIvmfaH6LM6G+CKZgXwU8SOagHBjTAl5z/Dg7+A3Zyqi/E60iZact3IOkq8yIF+oqUZ9QS7OGeNQHX4SNfERwlOwocbkKWpN/q2hLKhoXKyvFwBQX5SPhrISXGi0y1dTQlpa5zQfZJzo8gBvlO3fgdIDO3HGz0OELxVcP9/ZghABlBtt08+fPWPuQ1r5bigvQW12OmozUlBfVGD+P2Wr9Yy5vJcuglY+dbnZoo7OJcWjjvJqdC6zKw1zYpcvKBfWe1VEIMoOO6F45WwULvkOZSF+ov9broPI/59LTkD96ULzwGYz/5df2eTKLkCm5kmwI8BYasYEH5qR0ZyM9sMELGqdBFoCGIGSz6s1YN7jbzzIgxIo6UhCjzi+h04kGzduFJQCKQTy1uRjLT98npozrQ4s80cwJjgu+P57oWWSmqCWSY2YwrXHw075Pr4rNiICs6ZPv+JdSlDmIiJnDPucnREdFSUGJoK65ccuQB4+HHsdHeHv5yfqQS0dy3Svxnc2stpTmcibPwnJD95q0lDb3QwjgdmKZ1rSPb9E4vsvIWzXNiQ1aslqg5O9eS7dtPTqLOo12jk35Oegys8DxZuWIW/aWJwa/h7yvh6Kki0rBICdzc0WAzTbglrHaykgMzLcuTQjKoN8UHFoF0q2rUb5nq2oDPbFuVOZaKiuEn1F7Z32yo520ufLS1ATHYLTPyyG8aPOMDz9bxievgPpfV9G7sKpyAvwQW1+DmqrztrXP0i/na3Euaw0VJ5wQ/leB5w5fhi1JadxrqZGgKTMMyP08b816UkoO7ATRStnoWDxdyh23ICzKQZUVZriQWvJluXkLjB1ORk4G+SDovULkT9tDPJnjEPRjnUoj49CfUUZ6psTc4b1fq4a9XnZYvAt2boC2Z+9D+MLd4u2nfD6g0jZvl70PeIaMY3lEZH8okPA/xfMHI8Sx/WojI9CVWmJ+E9LBgWbgMwXU5MlF0zvNCXoyGsuiJEfJrcswZgjlawEa42F/2HGJTjTppacqvREO3z4sABqWhNoeTRRY6RWTkcUArDMF8/U3rkwt3/fPhw/flzQHhKMWekt+TCvNG0bM2ZMk3cp38vrHt27Y5fDVhFakVSN2mBiFyCPGIH9e/cKioX0yU8FyBfON6Ay7CQMr95v9kIzPvJHJL5yHxJef0iVQhBa8t3/B8Ojf0b44pmICzxptrhoiez5zFUBZLbBczWoTU1E0eJvkf76A6rlyXzvGeQ5rEJhdpZoj+ycbA/KT3MB+SzjH1dXofywEzI+6wPjk/9s8m7j83chb+FUVMSEobKiwqwF2tO/lPm6dL4BDfmnULF/O3IGd2vyDjmbSeJA+85TKDu8GwXJBpyx5kVILbW+Hg3lpThzwg2pXw+D4fm7RLppXR5GkfsB5GVniRky2yw9LRtKT+OMrweMI/rA+NhfzHngdeLIPkgJOoniwgKhLF3RP7n2UleL6uhQ5M37ukk7ZP6Nj/0Z6UN7oMLXHRVFhSJI2BVpNBEIA1Y14EJlBaoig1C0YDLS6NBD+3G65t/7KyQ+9x9ELpiGEHdXsQBPpbC6qgoXztWg/IgTMgZ1u2xvzv9/1BnJR/ajIMcU0Kq5iodNQGaD4yIZwdgS7CQArVu7Fsfc3QVfzBHEXjCmbJg+TcB4UEtmxRF4CWC0N5YcNKkParRqAuYgsHDhQtX8cdFwzpw5cDl4EMHBwaIspA/U0lHWla1rgjpnBVIGamfSDYx5wYVBOaBYdl67AHn4cOzZuQMhjXz0TwXI1I6L1n5vBmN2AkOXRxD8zTh4z5xk7lzmzq2kLu7+P4SN+ADBTo7CXZjcfEvr4GoAMkGl9LATUt/qiOQOtzUpo7I8yff8EkmdH0bc3MmibbKtWoJycwCZCkhhVoaYFqe/dp+JBrJcKG13M5I6/R0Jo/oh0f2wmH1SCbF8r602ezYyGDkThyL5qX8iWSv4USMQJT1/F6LWLEZabIxYRLdst3yXcJs/4Y6k0f2QQs9JzpIa857wQjuErl6EmMaZLWfLNakGFK6cjaQX70bS/b9tGo+E733wdzD0fAbxh/cJOpGL98r3MpLemSNOyBn8pmmGZuma3piGseujiHDeiexU6968Ypuv6BARSzul80Omer/nFlO+HrwVid2fRNjmNfA9ehjBQUHCq5L9tf5sJUp2rEVG1w6mIFJ8L9t6o+yM3R5F9PplQjmVXqq26kb+bhOQ2eBoa2zJGysBaN3KFfDy8BC8bElJiSpXKl8ozwRFAiQdHBg0iAcXBMkBM+AQF/7YaSkAnqmlq9ELbJQMs6jlfceBhMBJSwry2gRSAn9ztQuZb3nmoEOtnPEslLJQXhOQWR5q5gygpKbh2wXII0Zg3x5nhAQHC+3ypwLkiqATSB76ThPgjRrUHX5b1sN36w9IfPdZkJ5QApjyOv75uxAxdwpiFVpyS+qhrQG5Ns2I06vmIJ1BiwgqsoMpBxTl9f2/geG5/yJu0FuIc3VBflaWUBYkeNgLyByoI9yPIPm7z5H64t3aIMl3t7sZhsf+goQB3ZDgdgiFeXl2heukfM9XV6Fsxxpkf/Q6Ujr+TaSlrBfV63tuQULnRxA9ZzKSA/2Flst+w0GUR3VUMAoXTkVaz6eFZmops/hn7kTgnCnwO+4p1ojy3fYjb+IQpD73HyQR9JTylNeU+wO3IuGzD5Dgskcs0Is+Q5qlrBj5y2ci/Z2nkNJB29SS+aBTUnz3JxGzbQOyjAaxQC/rRvbfmqQ4FK2Zh4zeLyD1yX80AVZuHhDd9TF4rlkGH9ejCGkEY9Ki5SkGnF45C+lvPKAdQOr+3yDhjYcQO+NLGIMDBX6pYZfMi/JsE5CpuZKu4NRfCTbK68ULFojQlORm7QFk8tGOjo4iaprSKYLv4HeapTHYEL3yqBlzpFTa8ioLwPwxapxW/mhtweBEpBgIilqLa8o07b02JCTg+zlzNOXSloBMyoVWIT8VZcGIbqc3LmkynTZ2/BuCpoyF95FDCDrugdiNK2DgdJsanexkijMbevyAboje/oPopBxo7W2oyjppK0BmJ62JCUXR/K+bUBQsF6fQghtX5L9JmdrdBOPDf0Ts4LcRv+9H5KanmV35qW1bdZ1u9NTz3bQWsaM/hIEgZakVa7yXbtdxE4chPizUvA5iCTZSViIY06lMnNqwRJgoSt7feM8vYej0dxi6PgojZwPW6uvlexE3bZygEqjMUDGiMlLhuhdZA7tqBnmKf/rfCJg+Ed5urojZsgapw3sh1R6rHFIPT96O8FlfITowAPnZWTiXnoz8ZTOQ2uURJN2nHXbVXD8E5ft+LQbMxP27xNqTciG8yt8TBd+OQtrrD6jm3/jIbYjs3w1HXVzEQrqkYWuqzgrKjluEaQ4qst7u+SUSXr0fsTMmmGeEVB5tKSA2AZnUAekAa84cjJa2a9cuwc8SQLV4E46s2VlZAiA//vhjTSAj2HMhju7SR48eFdoyQZkNwbLxkdZgoCDlAKG8VgIyqRdlxciG29JzTlYWNv+gbUPMQYK/+3h7tVpD/qkBuTo8ALmff9QEaGPffxl+a5YK80YGlcqMj0X6wK5ItuIsQo4x/LvxYnbEtmW5am1PXbQFILMdlYcFIHfaGLHRKDuzsf0tiOncAaGjByD0y2GI7t8VxqfvaFJmc6dnx2PHf/BWxHz1KRI8jpotSOpKi20CctiETxA+uj+Mj/8VSXffZBoAOBA8/AcQMJu8R3ZynslTvnIfgndsgjEmWihAav2CHb8mKw35GxbD8PqDYlsrUcZ7fomY1x5E8PghCF0wDWEThiL+7U4gCGm9M7FLB8QsnysWwzmjq6upRlXYSeRN/Fhz0CIgB343ARx0Yga+CePjjXwxBzI7ZiFRA7ohdOcWJPh6IZ+u8nQEkjTL/b8xDSRKuahcU7bRMyciNshkAy947EuXULBmHlI5G1J5RsjokT8KQCYzIJUgzg5oGlibFIds9oNH/2RzEGU9xr/ZEcHOjkhJMgpN2RYo2wRkktgMGGQNkMnTrli+TCxe0aZX7aVsNOyAtLnVWhxUAimvafZGLz2a0kmTN6ajHGVIB/A/ls/K75Ky4P9Ig7QlIJMvZ1wK+S7Lc48e3eG8Ywf8Tpz4WQMyF7vKtq68bNlAIGJUtW/HwWefswBX2n9Xl5WixGGVKV6xhsbHzhg2uAd8D+4XHBu1ZMs6tQXKrQVkWhqcSzUg/cshlzX+9jcjkUF/Zk2Gxx4nnPDxQeTeXUj5ahjSnrnDaudL7P0iwjatFpSYWAspLrIKyFy0M3R73BQg6d5fwfDMvxE5tCeiRvZF7MA3hWZlTQOjDMO/GIII96OCa2WbtuTj64vyUOiwCobOjzQBnoSn70DAF5/A1eWgoNxIGyZtWoG0AV2R8tifm/xXAhaBLXb4+2JxnfVcVV6GhooylPy4QeRd/k95TnjidoSN7o+woe8hkYMO5fvYXxD3+kOI7vks4l5oB6MVbdfwyr2I/HIYQuZMhvG5/5q0eFIRz92F6PdfRszg7oh75T6b4B4xpCeCnXYKLVU6lOU5rEbKm4+pllUAMimL7k/Bc48TwkNDhQWXBHPyzlwAzB7V1xRi1drgedcvkNDx7wj7fDDC/HwF/qjRlsr2bhOQqfHS6kGLEpAgNG3qFLgfOSw6mSXoUWMmsFujFmQ6amcCLgPIKwPZS1BmqE96DKo9x3scLGh/TCeVtgZkCtfV1VX13XRqoZa/d88eQb1IDtlSwyfFQ0pIK/8mO+QRwkpEjtbXmkOmjWfuyN6XGzD5xTc7wuuHNcLUke7fgn5oaBCG9DQZsuZSHfvaQwia961YKJFasiWgKBup5XVrAPnSxQsg/ZL/zUikPvEPc5k4wMT3fgnue5zgdfy4eUW9KDYSBTM+R/LDv9fklhP6vILADSuEpyfpuMq8U0jq8/Ll1XcNTYw0BcE46sthcD+wXyz+Bh1zQ+zcyUgmjaH1XPubYXjtAYQ4bhX5JLepnJVywKlw3qIaZySi3xvwWbMMnh4ewhuVNAR9BEoP7Ub2h69d+U5ayDx5OyJG9BW0JBfZpelXmf9xGPt3ufIZ5vuBW0FQFTGh774JiU/8Qww6/muXwnvHFgR/Pw2Jrz0AsUiqUk7OPCgbAcb8ndpmt8cROHsSvA7ug5+7K0I3rBCbxiapBLeSsovq/TKC1q8QC7CUE5VFbiJwilqu1LhV3p/w7H9EHgNP+FyBG2KX84wUZH87Gimv3NtkP0f5XvOZfeX5u+B9cL9YYyOeWuu/NgGZowrti+kSrQUavE9nDPK+nLpSS1BqyWykmzZuFBqvtTS0fqN1BwP2cGGOwC7DFbITM+C7LUCmWR6fJcfNVU9LULTs8PZ+twbIBFLGSSbVQC6cgMyGb/nhPQ4qWmW/HgC5dOsKZHTrYO54hvt/i+AvPsExx+1Ca+JAR+pBfC7ZDjpkfOBWRPZ5RVjmtGSLpdYAMh0tSvbvQAqn0IrFO2PHvyJ2VD+479srFk9Jb3G9oaG2FoxqR0cULSoh7JNe8N22SQDyqexs4XCRbAcgk6eO+vgduB1yEQu/jJoo4oBHh6NgyTSzvM2dWwLH3TfB8Phf4b16iXkLKE6p5Yc2unnjB6hq9cGj+8Nrr5OoN5aRbZhgXp0QhdxJw654J03AqNGeXDBDLJ4rAflcZioKls244hlzfu82udXTNJIUiZfTjzjh7WWyWDAk4tSyGcjobN1cUtSRGIAehPeaZfBwc0XAyZMmX4KMdJzevQlpGk5CzEdit8cRtnC6WU4EQzq8FOxcD0OXy23anOdGGcsB2ufIIXXc4PrDmTMo3r0JWb2f05YB89DhNrjv/tEcZKtVgExg5TSF4GKNthDxG0aMEOBCDzhqyZyKphgSsW7lSjDgjgQdXnPhjgFzxo0bJxxAtEzq5DP0tKPFAj3syGMxbTYkW4BMRxEGhacmS75Zju6y8bbmzIHHycnJXC6ZV56VQMppIQcSZaeR772eAVm4SZeexqkhb19eUX7A5Art6bAJnq6uIkC+pYZmLSynaPh334S4F9vBf9EshAYECNlwscjegbKlgMz0uRN0Sr/Xr9COEp66Q5jvHT96RFAPLBPr69Kli7hQdRZFGxYh7UWTjS0XwkgFJHzUGSHfjofvzq3CmoBtk+2rrsQ6ZUEZiPCkH7wO7/UrhRUT46jIQaC+uhqVAV4mSkNtwU0A8l9wfMlcnPQ9IfqneUAEkLt5OZJVwIYgc3LqWHgdcxf1ln8qB2diI5CzbiHSBnRBSqe/mYCFFh0vtkMELWjmfgOvHVvh53ZUaJmkJKkQURnizt+ljhu0wYja9SO3IWjicPg4OuCE13GhlVNB44yKHHfepGGq4VvNANn+FpBmYVk9Dx0UwCpMBQtNdsZ1JaeROeoDTU7Z0O0xhC2YJp6TM2TmvTIiENkqGyuY38vZy+N/Q+DiWYjy9xULqJaGBWxP9WXFqHDfj5xP39WUQ+IjBGRHMQjSe5nYqPWxqSGTGqCWzEho1jRRghDBj84S9JgjCDEYzvy5c9H/ww+FdkzPO2q6BFZqhdy41MXFRVwz0JA10zoOBoyhQW81uVsIBUuHFGtxmAn0HADoms0pPwin9a4AACAASURBVKdo1kYoLUGp3c/JzMSm9etUAVm6Th85cgRhjTtXqL33egZk2n2WO21C+qv3mhtb4pP/ROjkUXA7sM+sZbEMrAv5oUtrmdMmZPR8yvycuaE3aiCGh/+AqD6vwOvQQbPFBQdZez4tBWRur1R20NG0gKXQjpk3pVUAB26ltZDknIuWzUDB7AlIWzEHEZtWIdxxK8KPuSE6PEyUgfQLZWFrUY/vi+nSAf4zvoLHIRcRFkCCMWXAPlebnICsod3Vp8ONgOy1YgF8fXwETcg+Cg4eZ8qRNaKX4PivkPkz/4b/7Ck4fmAfwnZsRuqyWcge0h3Jr90v/s9dWBL6voLor0cgaPl8BDk6INDzmGi/lAnBmGBCJY1gxNlGmdMWzTqmVU1E/27w+mE1vD2OCUAnGHPwFWk0NKB0+2rVDQ5k3snrh34xFK7O5PW9hVLFab9YZGt0KCtcOg2pL6tH/7MEZMqJitz5ijIUb1kBY6fLtJV8pzxzRhT7ztMI2rVd1K+aTTHrinIoPeIs1gWS2l9p0icB2dpMWbZ7m4DMP7KRMPIZg6MrtUC1a3LN1KYJnrQtZnAggin3rFs4b57ggrnARsAmhcBK5sjFe/y/NS38yy/Gw8PVVQT6oSbCfNE7kJq2Wl7kPboxKy02OMLbq41JQamdE2nhMWum6rtJ4TDIEYMYkcbRGgiuW0BmEKHSYmR/2hMpj15egU98+g6ETx2DgMWzEOrwAzJcnFHueQiVPq44e+LyUUiNsu/Lmp2VplaJnf4On2XzEeFvcgm3t15aCsi16UkoXPSNap4sAbkJtdXoUl2TkoizxjjkpxhFB6U5FGeDjEdNjU+ahNkye6NJVvCnfeC5bbMIGCU1ayXNV5eRjLwvB1+emUi6gmcJyKsWi+cZC4btiF5n1fGRyOzxhGoZDU/9CxHDeiFkwieI7vcGDI1ATK9Ew0edET15FCI2rkLIURcEBpjivXCgYPk4QMmBl31HApE1QGYME/85U+C5b48IqcC0CIjKvnfm8G5k9XlRNb/khmPeeQZe2zbhmKuriHTIQU+CseyT1tqDFiDzWcaryGYIWaVsldfCpvlWBM37BhF+J8wmp8r8Mx3KoiY9GRlfDlENIdDmgMwXUpCME6ykHiTgWTsTDD8ePBgL5s6Fm8tBYddHHoqqO6kHTrUoYB7btm2zGux+3JgxOLRvn3mvNE4hCObMl7U8cIGN+abXHKeGHGH5LMvV0g81Qg5SpF4s303rEG7T9KOjo+Dd2HHZoNU0wOsVkBlEqIqOIFxcUnhE0Swrsecz4oj6qAuSBr6J7IFdrzhS+rxkdqPVavBCgxr0Nk7Se6/Rhl1NRpZ1ZK0DCusPjT31aqKCkUtuVdnpGq8TnvwXQqeMEXaz1AabAHJjBtgROcthnfF3HrLtMt+yo9p0DHnuP/Cb8RXcjx4Rigm1RkkDyLJaBWROp5++A15rlgpA5vqEMB/kllqHdiNdKzTpg7cKG19h5dHp74jr/AiiBryJpLmTELPLAWEnvIWyI3c0JyWn1Ihl+WQerWrIXMh7/K/w3LAK3sfcNRe0rAEy7ZEjP+snZtrULqWllWU+Ctd9j1QNV3drgCw8DQ/tEjKxZgce1b8rQnduFjMRyblLGchzfW4WChdMRrLltl2kXJ65E+5Ou6yuJcl07NKQ5Z85wnHhjtSFtaD0EqD4n0EDB2LR/Hlwo5G1n5/g5+jcQIC35GTYMOnmrJU2g82TDiGoMg12BnYOxismZyvfq3WmBs7nJZfMTtRSUOa7GWLUMrIc381ZAakZ2jEy2JLk3SwbEuV6rQCZAwg7PWXOa6vlvnQJdZkpyJs6EslWVrDVgK1Z98gxdrgNJxbPRpiCS7aat1bEsqgOPoGcYU09DWV+6QwSN/oj+LgeEe2DGq+ShpF9gHXI+/KQ95VnW4BMMzm/VYuEVQUtVOSaiLLcVgG5/S0wvPEQvDasEtZDpPAEIJ+rxun1C5D2gonrlmVTng0P3Ir4V+4XJnaB61fAt3G2ygVF9guudTA/bCvKQUZZPnltDZCFDe4Ld+Poti1NzD4t+4A1QBY8Numx/+8pTCVOLuhbpmFtj0VrgMxyULNNHj9IVbOVcqMSEvLN5whtnMlxUFbWFdOpP5WJgrkTLwfdahzohfPQB6/Dfa8zTvr7C0W0VRyyFL48s7JogkY+WAv45H3+Z/nChU3AmNMfgpmlUJk+G7m1RTo1QGY6bEx0TpHvtXaeNGmSWOCTWklLQZly0IpjzLjLy5YuNTckawuJ1wqQS0tKzPmRPJpaHbAeGB/37MnjMAhLBCsB6FU0TdmIm3MOG9Zb8HT2enq2VENuDiBTO1Tj/GU/sHa2F5Ct7TptLyDT4oCL7gKQq8+icO5EpD79L9VZAOskss+r8Fm5SFBppA0Z55uaJ8GOszjSLkoTOmvltAnIL7azqRk2B5C1+lFrAJlBnc4G+2raYMt2TLmFblkn7JktrcgoI636klSY64H9ZicTa+2qWRoyX0wA4wo0OV/GL+b03BIAuZBGD7mVSxbj0P594EIceTIJxmqaB9PmqMNFsE8//fSKNPkOAjJ3+aCmLTVkggorypqDhjJ/5Li/+uor8R6CMkcrW5qAWqNkOFBuNqpMW14zvgUXERljg3QFtS3yg2qfawHILB+1Hy64MiIeNwaQ9qdqoHwuKQ4Fs75o4lJLu9foIT0RMmYgQsYOQsiU0QiZOtbmET5hKBL7vHyFVYNs6DwLC4cF08QKPDlCgoKlBqKU3VUB5If/ANoT08yJW2SxrVrrOMr8WF7bA8iB65YJukLOnizLW52cCCPjhqjFnFZoyM0F5IhP3hNWIQxDS6qDQMw2yJmT7AeWebEsn/zOeM10BFLWpbymHXF8j6eEXTf7K7l2vsPyYwuQo6aOETMJpbmdZRqtAWRwcbKkCEnDe8P4qLpjDMuU2PFvCJ/4qZjxsixKLflSQwOqGCP8+UYHFqkdd/gTovp3E9ox7b5JBWnNvGSZmg3IrCyOoLTRZMOlxkmzMu5Nx+Prr74SWvGWzZvh7noUgQEBZjAWo7hFqEKZEXlmYCECrwQ3eaYd9NRJk+Cyd68QihKQ2ZAI+KQktOgOmQ7PtIAYP368AHcuiLAscuVY5sPamdM5uopzTz5lurwm4NERhXQGFxxlh9MahK4FILMRMIwprVhIsdAdnaZDlKEl6FA7rji8G6kK+1B2ruCR/eC9aS389+xChOshxPt6I8HPx+aR6OOJZOftMD7z7yZctOy4PHN6Gz6sF0L37hIgIS0ctIDhagAyefKEZ/4Nd8ftrQ7iZA8gB61fLqg3OVOzLGt1UgISBr2lPpDRfbrvq/Dasl7Y5Jo15JpqnF49F2kEBo3ZS1yvFxC8amETMzD2Zw7Mlnmw1gf4W31hLoq3LFd9F+2X4999TgAyaTsOtJZtjWnYAuTIKaNEHBo5e1JTbFoFyJwR1tWh9NhBpL3zlGpsCyHL9rcgqteLCNq2UfQdzpDlImxdRgqKlk1v8iy9KSN6vwyvtcvEPpi08JLKhpoSJGXdbECWDzJRdhwGradGS/dqaoXcasjPx1toOxQiF924iEatx1pGZLpagEzwW7JoURMrCykQPkvQOXDggNgZRE1rtwRO6bhBSwg2GGqMWlSKzBsbLBsVF/NotaHmvfj1xC+xy3Gn0EKplSorTqajPF8LQOaUlHsIUi4cPAnI1DhkR1bmp77glAgFqQysE/NWJ/gsnAUPNzcx7eJaAuXFsrEN2DqKszORPW4AUjr+VbXzssHHvXwvwuZMFoO8rYbbYkCOCETu2A8180CrAJ/50xHs5Slkw4HXnjarlB+vrwUgE6xP7NgqBn1ZjzRTLHHcgLRX7tEu47N3InLSSIT4eIm+aW+/tCwjv9sLyNY8TG0D8mgxG7fmQNRaQBZacmkx8r8bjVS6yWsMZpzJRY4bjEhfH2RmZIiZBTcNOOO6F+nvPmN+jmAc2+NpsUsOF25ZfvL8kiq0NvC1GJC5E0BMZKSwAWZHZ/hL7kK9x9kZQQEnzUBMwCGI2dOw+T9qnnQCsQTQCePHY9vWrcKtlVqt5WonR3kCPy0p1BbaLNPjd1pfcIGSgwnBnFo2gV1O3ZSNkPdIjXCqN2PGDFVrE+Z75dKlYtAgry21Hy3tmOnbB8imLZxaEn6T00R6WtLqgxYvpFmoLTN/siPLcrKhVHi7InPI26bGRbOf+36NgAnD4Om4TcQ+oGZNAObgJTUr1q214wLj2HoeQjqjZKk5OlBLvu/XiO7fDSF7fhQmZXwHZa7WeFsKyDUJUcj75jNzx7HseNJuNmDHZiTGxohyMg9qH7pg0xKlLv8UWD5Zfub3WgGy706TbT3bmZh91tehwvsoMro2jV+hLCflHN/7RURvWmVTznSIodcfgVeWj2f5sQeQPfbvNS/Ct0RDJmUhuXb2zauhIcvyVB47gKyPXteM5Ga895dI6NIBkRuWIz4qEiWnclAR6CM8HOl9KuUc16UDAmdMFB6RpGtJDcm8q7Vn+X6eWwTITDT3VA7WLF3SxLqBjiGjP/sMDhs2mN1PlRmxlhk2fI6Carws06XZ3NGDJrM5cjjkfi2Bjt/J/XEbKNISaiCsdY/OJbQgoYZO3pfcGsl7aoHkzKnt05GFwGZpK01gJ6XCAYmBkAjackQnaFkrty1A5ruYN+48EnjypMgXwdBamrKC+W6OzEuXLhWykIDMPHLUphzZkeWn4ewZ5C2YAjoIiMZFj63n/oPjy74XLqvkzam98hl73i/ThdgipwanJgxCskYAG77P8OydiJn4qdD6KH9qb5Z1zDRbCsi1GclC+5cd54qzwrMs6uhB5GRmCGsDy7KK/ejysoXt9enNy1FtiEVt5RmheFDmdDqwFn6TVhatpSyoIXtv2yxmomzzok4uXEBddgayaP+t4qAgy0tPQ4ZBDXc7giwGC2qcCchycrChSdjZAC9BgZQ6bUZtcZHggAmIEpStAvLDf0B831cFJ8/BX40eY13a0pCvJSBfOFMm7NQZwF/KyvJMnjl+aE8EHz6IPM/DyP7yY0V/uQkMqsSgW167HcVAQiWPGKKlXJj7SONFiwCZWhen7VrgxkW9gQMHYsGCBWK6ITuxXDgQjZYNt/HgyMn/UPO0jJlBsOPi4TYHB6Edq8XKsCwUp9OMX0HNnc9r5VPtPqkMgi4HhhUrVojg9syXVoQ6ps9nGFzfafduUQk0ZWIDZPlsfTiNsRbLgnlk+swLFwaSk5IE560GVPJd7Fj8nQPK2rVrzR6WBGTuuk1A5uq6XGSVz50J9EHWIMXWPtSmhvQQhvnUUjgocYC19m6Zltq5wuVHZPZ+vkkMCWWD51Qv6r0XcOzIETEoUktW04hsAXKwsEM+YNbMJBUl7E73OGhq6TIvjL0QNWkkEn29UVJYgPON2w8xvvClhnqx80XBitkiYDy5Z24nVBARLDoeBxFbnnptBcj+u7ab61E5sGZPGQGa8cnyqJ0ZwY07kMT4ncDpvFyxf94FzmS5cSjjfThtRuo7T4poapnvPYuC3ZuFYsL2KkHZKiA//lfEjfoQPkePiNlYiwH5m7HXTENmmz3r72nVDZrrHYnP3IngGRMR1/fVy9tQNZpwBs2ZAo89l3FAKhZysFPrF8p7LQJkAo6aJqsEOC6uUbNltDUCHDlXggoPmrYdPrBfHLymZsrFMHKySgAlsJMG+OGHH4SpGs10pHYsR2llYeQ1AYMaKsHIXvpC5p3vJ5ATBLkIxgGC+WJe5H+UZ9ocE4xpC81trLjQyUqgBm8PIHO6yV1TlGlaXjNPzMvGNasR3uj+TZBR+7CzcEDycXfD7Jkzm8QJkcBOSxYCMikemUfKLGf650hSmEwZHvo9fJfPh9dhk+WB5HbtbVyW+TtfVoK87yfD+MTt6mDBRv3UvxDz1XCE+vmaF0Qt69oWIIcN6QnvPbuvAGTG5qiKj0TiB6+pL5ZJ7pCecE/cLhbO0mZPROnh3Sj3cUPZ0b3IWT4LKf07I4XxcBnonbGJN61BeEiwsDHlgPVTA3L50T3IfP8FdRnLMjIuMfdDfP8lnPp2NE6vnY/Ta79H/vSxSP3wDaQwmPx9v4bxod8h7pN3EXnURQzIMsYH68QqIDdGzzu219mquZc1DTm2cwcELJh+TQGZ++sVb1oq4lKrDWSmYEe3wPDIH02hP+WWVc/ciaBZk8QiJt3ZiZHEATn7sOwLWt+bDcisEHrUvffee1ZBRAkqBGcCCr3leBBk6b3Hg9fkcZVAzGepzdGpZM3yZTjs4iLiJhBkyR0TdGyBArVxcqSkGRi+kyCrzFNbXHN3E2qctMumizTBmABLGsLeKQrpDW7oak9+GBPkq4kTsW7dOngcM8UYYJyMkJP+8Dl+XMT1YKhUxgUZNnQoer33XhOrEwIy44gQkLngSE8zAjG1ogq3fUiny62M7yqCuvwb7pvXi6Aw5O0JNlqcqlYDU95n2MICh9WmgOkSGCzPtCB44W5hCZAUGSF4XMs1iNyZ45GsGDiadJz2NyP6nWdwcs3SKwCZeWkoLUaxswNSrATRF+m1v9nUKZ/9N9K7PoKMtzsivVsHpLxwl+k+Tc+e/KfYANP3kGm/RnKFxXm5wn05ucsjmsHb6dQRvGyeyJ9cZ1C2Z4Ld2ahgGF5sr26Zcu+vhAWGlobMjUTzls8yBSeylK/ye2Nc69Sn/om0l9qJg9f0dhTB95/8J2JGfYjgLetw0sdbmG3JWRXzeM4YJ3ZbbiL/xvQFV/3qA3Dd4SC2QNLSkE87b0Vyd3VX78RX7kX49Ak2ATnr29Gag7wtxxBl++Q1B+3q8ADkWFn8tSxv3Kv3C5qCmrHvCRMYU3mROGD5DmvfmwXInI5x8YuxKuwBkNb8h5o1dwI5uGcP/H19BYBQo5PTJWuFkr8RPLgQx73v5s+aJeJpEJRaky8+S36atsY0b6NmzOm81Iw5peN7LbU65ongR82WFcUjLSkJK5YtNVMK9uSL+ecgxkGGJoY8vprwBcaNHSvqxZrDDjV9Dqa0IScgn87MQI0xDpUeLsge0LkpSNE9t8OfEDxmoIj1m3rcDeXx0eBGpxfOnhEhDFlGJZBIufPM32h031CUj4bCPNRlp6PK1x054wfank7fcwtiuj+FxPlTkHd0HyrTklDHhTO6cwefQAY5Uu46oQQXxXXCk/9ExLDeCN62EUkJCWIQl3VCm1HyrLljPjCF4FQ8p5We5X1OWxnjlkHi/Rmb94SPCayys1AWF4mcpTOQxKDsWkH6O9yG6OHvI/RHB7GQLAdGKcu6vGwUc7ssrZ01yO2/cDeCvp+GCB8voQSQslC2ucqwAGSPbbrDi2U5NL9Te37idoSMHwr/bZtw0ttLtG8qONJSgANbmfMWpL/zpHo9KNuPyz4Ryc6sLXL36Po61MSEIefrYZrtgbRKDF3rHR0Q3+jRKAdnyupCXS2qgn2ttgdSN5HDegnHI64NUaFjW5CyVrZZeS2CBR3YaQJ5jTqk7IQ1RdfHEDRljAgt6nvihNCMCcbWcEC+R+1sNyCzstNTUrBq5UpBQbDjU+u11GztARVr/+EiFtOmfTPBThpUcxreEhMdCp4gzlVR8tB0adbig63li1o+ZwU08SNdQy89LgCSRqHlgXJEVHYMpdAryssRGREhLEloTbJ04UIMHjiw1QOEtXzL35j/fh98YDJL9PODMSoC+YedhalPNnfxVXNAYMd86l+I7vsaUscPQv70z1G8YRGqE2NQdabCbGmh1ripdVeFB6Bo1VycXjoNhfO+Qs7Q7la9yCwBwvDyPUj/9F3kbFyKXH9vlDhtwanRHyDVFj9KwHzqX4gc+BZit6zFqSRT8B0zKNfXodLPAzlDe9j00LLMU9KDt4pdL0LGD4GvkyNO+vmJ4FFZMZE47XEI+Qunip24rS2qic787J2IHvouItYtRUZUOCorKnAuJxOVEUE4vWkpsmxRDnf9AtHvPY+YWRORdGSf2LmaYMVBn/VBS4/y/TuQoQWYWgPR/b8RW0RxlwuvH7cL800qGwRjAWa151BriEHZjrXI/vgt66EzG9sPt6uKc9qOXGOC2FWmJikeZYedkDf5U6RxB2qNvIiB75k7Efnp+4hdsxCFgb6oLipAbWkxquMiRFzrU2Nstwd6y0WN6It4h3U4lZlhphPV2i37K+/XpBqROfYjjeBOJuuj2HeeEdYU3k6OwlnNXhxQYoLltd2AzIqOi4wUtqicopP3pA0yLQDolUetkdobqQYJAs09k6+l9k3Nk553nM7TXpbTHUsNwLIgtr4z/1zkorMGbY9ppkdg1uKHOTAQgKmp838EYkawI+fNDVNppcAVVNpZcyrPwUJ2eK28ZGVmYsP69S2Wj1Ke5LSltQdlTsBV/m55zbqhVs+A+SdPnkR2WCAK53yp2Rm0Ogk3msw95oLsjHSz+ZvaAMQwkMU/LBIcpFZa9tynRUD0R11EyE8jYzRomM2ppcVpc+wn7yHR0808YCo5czrAnBr+rokvtWKVINMm5xrX42kETZ8A7/2m9smZBpWFYl8P5HwxqFnlFZu+vt1JaMqZaanIdXZA2vhB4EAk32nrTE02ZtxgxHp7CgpKCcr1hXmghURGl4dNO7hYkx217g63Ie7Njgj/dhw8Dx8SgcC4iE7nJoLxBS7CV5aj6PtJVoHUMs/koRllLvagM3Jjo1D0w2IkMV7z/b+1r5wMUP/yvchcNhMFUWEoDPZDzszxaE57oKNKYq8XEO7rIxaz2V+JCVqf82cqRBTDFFJjSrm1u1lw7zFvdUTgopnw2r/XDMa0prAHB7Teyft2A7JMhJ2PUw82QppUcbsbanszZ84Ukc8YopOLeT26dxcATdAgYMiDQMKDnK68R7DgM/T0k4BH0GBjVy4iyDy09My8k1um4Lioxa2TGCCfvLbIM/Pdo4cYXDgw0LqCgwO14eOengKECcQk7Lm4SCDmQGGtYpV5JV+4edMmIReWWevgIEH5iaMxT8r88Zq8OwcJDoRcNJUzFs5a5CGe6d4d3d9+Wwwu9GQ8eMBkfZCfGIfTy2eKYCjcjdh4/29h4Pb2TY7fgsFouEOIvB//VieEHNqPqEa+nIuXqoBcWYGS9QttpG/5vqbfCaicmlO7Cf1qBGjrKXZOfuh3gufkoiMPcp5ic1B5zfsP3orER/+M4EmjEHT0kBg8Jf8p64T5PhsVgtzpn4v90ZLv/7XJXIzTVHZC8shcuGP5uUjVvyv81i4TAzLbJ61OZPus9PfEKe6z9qApj8yrkJ21MzdI7fY4vHftQGR4OBLnTUZS1w5Ifuj34qCjSpM0uK2R5b0nbkf0mAGI8HQXtIDSCoLlPF95Bmf8PJAy6E0Icy7SIFwnYAS/xoNyTuj0D0QOeht+G1aKxWnO/LhmQ8pPWqmQX204nY+cgV0EvZXMDVmFrH9nyhfzpjwUZSeFFOLsKCxXuMsId6BOeeQPSHrYVH9NnlOmweuHfo/EZ/+D8JULEOHni7gft8I4sBtSOtwm8mFZ96I9KNqCyGOnfyC+3+s4cfSwwBUqZxy8tD4XGxpwLjcLyb1eAGdFYpAh5/7onxDb51Xhtert7iqszbi+IsFYS+vWeo/l/RYBMjVBAhsrn/wXNVhOaViBtDk8fOgQnHdsx4Z164T5Gaf4PKhRc7dpBt+h6zLv0SmD1hDOTk7Cg4x8LLVieoOxsUvOyDLjLf0upnPnzwsgpRCZb5rw0VmC+99Rgzxy5IiIQ0HumRo1tQSWjQMQqQklEDenAuiizYbOhTVrx84tm+G0zQF7HB1FnpgvHodcXEQ+mVfmkbugkA9mzAweXl5e4uA9/s6yMI1tmzYKhxlaqzCuAKdWRQUFKAv0QeGCKcibP0kAXtCXw9HkmDgCQTO/RhBBrfG3gLnfwMfLC1GRkYK71AJkQVkE2Ujf8n0W32OH9ULEmAHwX7kQJ2g1MXuSsJOOX7VATPWD1i2D37rliFi/DKHbNyH8h5XifuiqhQic/x2CJ49GiKMDgk74CEDmGoTl4Hmhvg61p7JQccQZueP6iz3auFjHgYCLb3HvPoegrz+Dz+ol8KFWzM1PG70c2f5l+zxfehqVxw+Z5Llgishr0OxJsHrM/w7+G1bC2+u4SPN0VCjKXHahaPMyZG1YjMAlcxA0Z/LlNOZ/J7QyZZoha5eKATI0OFgAjVz0loMkQbS+phqVBXkoPrAT6VNGILH3S6JsLB+PsBEfwGvJXBxz3g0/b2/R3mkhIMOLmmVGKqShAWfDTqL00C5k7NiAsDWLEbh07pXHopmX8z17Evy2b4afjw8iwsKQHheD0wccUbxnG5Id1kLUl1oavLdoJoLnTEH4uqXwO+yC4OAgZERFoDLEDxUeB1GybzviHLcgfNNqUfekgCwPph+0ejFCnXYiyN9fOMRYA2SGD6hNjkf+t6PAQUdu9WV87M8iNsXRHdtw/Jg7QkNDhGUN5cSZV3OwQAu/mg3IfCkPVjgrigcbJUdRaotspPl5eeDeYgQxBtSgQwHdkwluDGyjBBCCHjkqGYOVAElNhg2LoC8bllYBWnJf5p9C5Dto78r4zHGxsaLjErCYD2rBnAnwd4IpZwYsp6QmmlsBfB8X8+QARk2bspEH5UCtK9loRAoHgORkkS/mjQcHKVIkyoN5lAcHC+aX3/kfPsM0kowGAcKyXHLRob6yQizSlacYkRUVjqSgkzAE+DU9ggNhCPQ330sMCRRpcRpLubDu1eRAIODiHxcBraZv+T7F9yRfLxj9fJAYFgJDfByyYqNQEBeNnMR4pMZGIzk2GumGRGTxSE5ClpHXCchKjEdmXAwyIsNgjIlGemqqGNzVnIlEW6ivR23JaZQnxAiuOs3NBQkuexB7wBkxh/Yh4rgHwk76IzYmWgzKsn0qF5i5qwh525rsdJSlGJAUGgxDSKD1IzQYiZERZnmWFyshiQAADDNJREFUFxWipqgA1Xk5KElPRUZ8LAyhQSKN1MhwpEZFmGShTDcyHCkGg6AVWK9sz+yTyjrhteintDBJjEWmnxdS3A8j2f2QoBGi3I+KXZGppXPhi+kop95XpFVdhZriIpzOSEdWYgIyEuKuODLjY5EZGyWOpLAQJESbosox7bLSUpwrLsLZ/FwUpKWI+lJLg/eYTkZMFGhxk5qcJNp2SVEh6umIU1YqNpTNTUtFltFgqnvWv+XB9pCYgKyUZPE8tX4tyoJOPxXBvkif8LFpE9zGRT3SSGFfDMXxbZtx3MNDWMiwPxKMiQdKGbUEk+QzzQZk+aDyTNCUByueDZUHAZogRhCiVslRSR7UftmwCSDyHsHcEvSU72nra4728VFR2L1rl/CyI+1Cyw7y49wrz8/XtHW31IQIqCxna4Rv7hx1dWLwItArD4IGZWDvwYZFOfNgZyRAyu/W0pCDHcvDa/6XAMu6kAOQMl+W18wnByfKxNpHLX1Z3+wYbNCWafMef5P/k3lSlod1ItuL8r7ymnlk2mx/lIkcSC3zK+uEbVbKQbZPtlF5UMNmespBWZmWTIfypEJhWS5r35lX1h3lyYPvkPmXZWA51NKQcpAgo9U+ZV0o+6MsG8+UM/NtKx2WmXmkTJXy1rqWsmA+mTbLKXHCnjSkHJhvvkO2XTHI1NWJNLXerXZftltLOV2oqkS56z7THn1PXvbWi36zE4Kmfg7vnVuFQklFigMLy8U2Y5mOsk0097pNAFnrpWwA8pDCY2VoHfyP/L9Wmm1xn+/hAEE/8/mzm5rDkdsmpywX8TZu3CisKcg5EyTYGPh8aytBlrO1Z2vysCdtlkP+j42LdSOBS963drYlB7X0Zf3zfVppy7zY81+tNNTuW5MXf+Mzlu+WeeCZQMT/aH2U5VV7v7V7UpatSUMrX/K+fL9af1TWu/y/1lmm09Iz023ps3xOflqahpS1SKdxf8DyI87I/OQd056LNNt7+A+I7vUC/OdMFY5GxAvO5DlYc2BhW2iSjsxUK85XFZBbka+r9igFSDBmwB17HEbkohm98fbu3Sv4NVIO9mgRLSkE80fQl1oYv7d1pbckX/ozugT+FyXAfQjrTxeg7MBOpH3wKrjDh/DA5GJpn1fgv3oxPHftRNDhgzB4e+BUaAAqYiNQbYxFVUI0ziZEXXHUpieDURNJYZECaU4fvuEAmUDHhUOCsaVpmK3v1J65oSqdK8j7corH9DhKN0foWg2baRDoySOLhbeiIqGtUXPRQVlLavp9XQItkwA9R+n+XbpnK5IYQ/oe047RdEiJ6/c6AhfNwokVCxCwaCaS501GwZwvhWs5F395JA3pjoQBXa84cqaORNG6BSh3P4BzqQbUV51FvZ0RL284QKaVA+NqaMWmsAXK0mSPtteMMcyFOPJUBE1b01lbzYZp0OKD9sK0SKHVBC1BZPo6KNuSoP67LgH7JVBflCfiRxsZ3U25ke/jf4XhtQeR+OTtMN73G1Pg+Xt+iWR5tL8FybRbV5gONrm+5xYk3/srJD19B9I/64NSb1cU5l65W7ZaTm8oQI6Pi8Oc2bOFnS6pCHoD0s543coV2LRmNVYvXy4W9RhbgtHqpOOFGkhLzz06mMyeNQueR48gKzPDTGUoeS41wavdI1VB70S6RjNvNG/jqjftl7mwQd5P/+gS0CXQegmcS09G0bIZSHueu6qbNGOzQwu/3/ebK+9reBSan7P8nel0/CtS+r2GhJAgs0OKNWy4IQCZQMZV0YULF5qDGxGIGYbSxcUFJ7y9EBoYKGwkuaM1bXV5n+FDCY5qgCzvUWN+79138Rk9DOfPFx6GtFumZtucBUBqvwRdOqNwsJj+7TdwO3JYOLDQhI0r1NTA9Y8uAV0CrZNAXW6W2HIp7dV77fMUtATaZnwX7t8vtQcDUHFBkDQnZ8JanxsCkLlqzuk/3bwZ5pPATKcK2kbTkYX2ujS/42IfgY8HAZWWFY6OjoI+IEUhQVjrTNdvasw0naPrt5JntrUiS/Cmxw+dZshVz58zB96ensJhQNqFWhtZtSpYv69LQJdAUwkUH3ZCOuNyNwNYW/pfBiCK79IB7s67zRsv0FpH63PDADLjT0ydPBkrli8XFhYEYmqypAMIwGomWBQcQZrASi+3CRMmiLgddPnWAmXep+szwZ9eiIz7QYcYGWZRDZilBr9lyxbxLF2qly9fLmJ5cFDgqMr86RyyVjPW7+sSsEMCNPGsPYesKSNhfOIf1gH57psEd8x4I0a6d3f6uwi0xeD0cS+2h+HpO8R3Bt8Sv9FVm7yxBcgbHvsLoob1gtu+PWJDWuLADQ/I1CwJrKH0toqKFN5W1EYlN8sphJb2yfsEQxqB03WadsmfffaZCDpkjWNWAjZjSBBsSYfQAJ/UBN9JIGbadDigqzO1cFIgdC/funWr0OBphE5tnf/XAdmOTqf/RZeAhgRoVcEwsFnvXd6Q1AygjcH4GWApoePfEP/cfxHb9THEv9UR8R+8hrhR/RA3cRhipo5GyLxvETdpBBIbD8PY/jB81BmJb3U0AbUMm9ruZsS99gD81iyB26FDQrHjTJx9XutzQ2jIsvAEQJqpSU+w5lgvEAwJinyGLuHcdmnkyJFWNWUlKPOadAR3TKG7uPT0oYs2zeiUcYxJeTDuNC0u+C6+UwdjWYv6WZdAyyRAm+Byr6NI72KxCSw3G3jjISQM7IbwL4bCb+FMePy4XdCa7IOkNiW9yVm1PNg3ZVgDXkczDILjFsS/87SIlUzzucih78L16FERc4au1lTGtJQ/luqGAmSCmtRKOW1ortbJ5ylMgjppBGqvdLHmnn/kfS0B2PI7/8MFO2rCtOSgJQVN3BjiUxk+c+2aNXB3dxfR5ajFNzefLWuu+lO6BP63JXCxpgpFS6ch7bk7BbVgZEzq4e/Dd9k8+O7egaAjLgj39kRsSDAMcXFiTYf9j4GWOItlSAHOtOVh6cZeWnwa5THhyHjnKTDcZ+zAtxDkuFWsX4WHhYk0rGnHlP4NBcgssARVAmtLtU4J7PTD5xSEHDMtNrhYSK3ZcqNWS2BmUH8RYrNHjyZATlAmvbFj+3Z4e3kJwCfw69YV/9tAoZfu6kuAfbahogwZn76L5Ef/BMPzdyGKO744OsDb9QhCGsONcubKPkfQZewMOmrxoALHfmjtqKs8g+yVc5Hy/H+R8d6zMK6aLyINcg2JllL2mK7ecIDcllXPSmYFycU/mrXQXI6bto4aNUrEILZ3RxVqz6QtGIqUUxzyzaxENgprU5y2LI+eli6B/1UJXDzfgNrsdKS8/gCS7v0l4ga9jaCtG0SwIMY45/oQNWDOftmfqcmy38nDlvLGzVErvY6I/QHTu3dC+oKpiPN0E/2Ycd25DsQ0baWjA3IbtUBWHCuS/DRdnw8ePIilS5di/LhxGDx4sOYiIBcGSVnQXG7evHk4cviwoCrYQFiJTFP/6BLQJdA6CVxi4Kz0JGT2fAoZXTsgftF0BHl5Cm6Ym9NSI7YHMNVyQW66JjoUOZ/2RFKnvyNt2ueIdzPt1E4w5kK+jH2j9rzyng7ISmm0wTWBmRXL6Ql5p4CTJ8UC4Pz588XuJPQAJIf8Ub9+4kyKg4GLuCsJF/u4bRUXCDha0zaZ6ekfXQK6BFonAVpYnC8rQenmZSjetgbpvseFowaVp9ZaMTGIEHdtT3vtPqQNehMJri7mGO/Sh4AzaVvaMUuoA3Lr6lnzaQpfWmXQSoIjMLVebv3j5noUR/bugevhw8ImmiBMu2hSHly1pZatg7GmaPUfdAm0SgKkJajwUGEiGLfWiknMjouLUOZ5GJXBvsg2JorgYOzv7Pc0JLD3owOyvZJqwf8IyqwsHhwhJTAzrnJ2VpbpaFzF5eIgV23ZWKhhN6cSW5A1/RFdAjesBNgX5WId+1pbWDFRA79QU42qslIUFZo23yAYNzdtHZCvUbOU4MzGwEoi8NJKQx7UiPkbwZv/5aF/dAnoEmh7CbBvUeHh0ZZ9jWkR4GXf5nVz+7EOyG1f33alKDVn5dmuB/U/6RLQJXDdSkDZn5sLxiyUDsjXbdXqGdMloEvgRpOADsg3Wo3r5dUloEvgupWADsjXbdXoGdMloEvgRpOADsg3Wo3r5dUloEvgupWADsjXbdXoGdMloEvgRpPA/wML7LQiX+AQhgAAAABJRU5ErkJggg==;" parent="1" vertex="1">
          <mxGeometry x="887.3499999999999" y="414.6" width="64" height="14.92" as="geometry" />
        </mxCell>
        <mxCell id="rsaEBbKv7yQd2xddFUuZ-40" value="" style="shape=image;verticalLabelPosition=bottom;labelBackgroundColor=default;verticalAlign=top;aspect=fixed;imageAspect=0;image=https://www.python.org/static/img/python-logo@2x.png;" parent="1" vertex="1">
          <mxGeometry x="860" y="346.4" width="91.35" height="25.83" as="geometry" />
        </mxCell>
        <mxCell id="rsaEBbKv7yQd2xddFUuZ-41" value="" style="shape=image;verticalLabelPosition=bottom;labelBackgroundColor=default;verticalAlign=top;aspect=fixed;imageAspect=0;image=data:image/png,iVBORw0KGgoAAAANSUhEUgAAAZkAAACRCAYAAAARgcUXAAAYuklEQVR4Ae2dz8odRRrGvQURRETin4yBWSQwjJiNED/cOIEZUDeSBGZEd0IWWWhuwI0rx6Vbl04uwYUrzQ24l8neGxDO8DjzjvWV3dX1/qnqqtNPw6HP6X9V71tPPb/qrvOd76lrV6+d+GIOqAFqgBqgBlpo4KkWF+U1KVZqgBqgBqgBaICQ4Z0c72SpAWqAGmimAUKG4momLo5kOZKlBqgBQoaQIWSoAWqAGmimAUKG4momLo5iOYqlBqgBQoaQIWSoAWqAGmimAUKG4momLo5iOYqlBqgBQoaQIWSoAWqAGmimAUKG4momLo5iOYqlBqgBQoaQIWSoAWqAGmimAUKG4momLo5iOYqlBqgBQoaQIWSoAWqAGmimAUKG4momLo5iOYqlBqgBQoaQIWSoAWqAGmimAUKG4momLo5iOYqlBqgBQoaQIWSoAWqAGmimAUKG4momLo5iOYqlBqgBQoaQIWSoAWqAGmimAUKG4momLo5iOYqlBqgBQoaQIWSoAWqAGmimAUImE9c7b/3h9I+//vf12o1XmyWeIzyO8KgBauAIGiBk/geZh3+/enry6MXT6bsrl15fPniFoMlAfISOwRgJAGogRgOHh8y921dPj7966RJYCJoYcbGTMo/UADVwaMg8+uzlIlxS2Fzc5KMzGgYNgxqgBrQaOCRk8AgsBUjNezxO0yaXx7NDUgPUwNE1cCjI4NHY0rxLDWQ4NzO3Wdy7c+/06F+Pql9f/vPL08WtCw4sDj4fBw1AN49/eFz9evjJQ+om0c0hIFMz77IFGkJmbsicDAtAc/RR6NHjhwYsCwcov/nF2UNGM+9SAg0h85toZjQei1FgBDtjrKxznFYJGX8uzxYymEMpQUO7j5Dxi21P8yNk5m6/vbRDyPh1c3aQiXg0tgQgQsYvtr2MAuVaFt7JzN3mEXojZPwaOBvI4CvGW3/vsgSP2m2EjF9sEZ3eeg1CZu72s7a79zxCxq+bs4BM1LxLCTiEjF9s3g7vOZ+Qmbv9PG3vOZeQ8etmashEz7u0gMzF9RunT2+9efriL2+f7r5+kxPJyVcbPZ1fey4h4zcLbc7P4XhCxq+bKSHTat4lEjKAy/d375x+uf/xpRe2Yd85dMCZYiBk/GYxU3tH1ZWQ8etmKsi0nneJggzuWnK4pJ9/+uhDgqbzHQ0h4zeLKOOe6TqEjF8300AGcyIlCLTeVzMng8diAEgKlLX3OHamzjZ7XQkZv1nMrgFL/QkZv26Gh8zaT/C3hkp6fXyxoCRQzLUsPRpbAwy2f/PuO8VrlsrjPr3wCRl9zqizaydCxq+bYSGzx7xLCha8x1eiUY+1zrY271KCi+wDlNauy+1+Yec5JGTic5rn+Bw/EzJ+3QwHmT3nXQQy+BHNElzQmbbmXQQma2s8VjvHTjlqTISM3yxGbduW9SJk/LoZCjJ7z7sAMltzL5p5lzXAYDsh4xevxlwImb751rTNyMcSMn7dDAGZUeZdSv+YzDLvQsj4BRplQITMOG0R1aY9rkPI+HWzK2RmmHeBkDFJXwKGZR/vZPzi1ZgMIdM335q2GflYQsavm90g0+OnYGSOZWndY96lBB9Cxi9ejTkRMn3zrWmbkY8lZPy66Q6ZI827EDJ+gUYZECEzTltEtWmP6xAyft10gwwejVn/9fHSnYhlG+6ees67EDJ+gUYZCSEzTltEtWmP6xAyft10gUzPH7Jcgs/W37tArC3mXVpC5sELb5y+ffa9089Pf3D68Zk7v76/9fJ1fi165edqCBm/WfQw9dHKIGT8umkOmb0Bg/JLwsVXkkswaLXPOicDuAAqgEv+wnaCZrlTEDLLeSn1De7jX/xHaKA5ZPaag9n6exd8JRlG3woiW9fVQub9K6/9/84lh0v6GaCJEMZe13j4ycMTXhhB4j9TPv7h8a8vvMc2vO7duXe6uHWhinMmyCA2iTXNAXLx5N9PLuUE+/FCzrQ52auNUS7qinbM21lizONEfJZ298aI+lmWmdrCm6Ot85tDZunxVcttW/Munp+C2QKHZr8GMl8/d/t3dy0pWPL3s93NwEBgLtoF59Qaj/baOB7mvdWBIvYLVCw5yOMSc4Y5RtQt8hoyeMjrrP2MGAWskfVbutZokEEOZWBRu8Y5e0LvbCAz4rxLCTo1P5D5+fNvqeAisMEjtaUOM9q2CFMVg0KHK3UkOU6zxjVb5UzAAsNstYgZA8St4ti6rsTZMkaAoNT2W3Us7R8JMp7+sqcGzgIyo867rEEGv3tWEnZp3kVAUloDTqXr773P2nG3jAqmumY2W+cu7W8FmVbxL8Ug21Bm73bvGSfaHuWttb81dmsM0fXwAAa5scYfcd7UkKmZd9H+BP8aGCK24+6l9F8xa+ddSoDBvlEhg47n6SximFvrJbPZOmdpfzRkEP+eixhxhHGUrtGrnZdyGR3jCJCx1gH5QT6igVdq+6V9U0IGj8ZKf+8yyryLgAmgwxcNlhpAtmnnXUqgGREyvY0HMEs715IhbW2LhAyei4+ywLREd9FrPJYZYYmK0WrwqfY8Ofbmc8/HZBL3dJBp/RP8AoaINSb3t+CCR2MlYFj2jQYZdLg9FhiEdHZL+VGQsRqVpc6150SZsBgJ1l5DrK177XER7WdtO9Fdmh/te2+/GQEwiHkayODXAkp3L1E/wR8BF1xja94Fj8bW/t7FApb0nNEg0+MR2ZrxiJmu7S9tjzCp0YxX4o1+rDRqnN423AsyXsCI7rVga3H8NJBZu4OJ/gl+L2S25l3w9WL5S/0UDJHvR4KMtZOKGUasrXXwGtSoxis5jXpe7zVEqU+rtacdrdrx3sl4BmaeeA8LmaUJ/qPPu5SgNApkRjfZLVPzdlaPUWzVLWq/N0aY0gxxQosWA90DMmgT64K2sMTZ8pzh72TwmCxPAADjveOIPB+P6vI6pp9bzLvMABmMlGdePAY80kR/qQ3QRlYDhsZbDCRa6AbXTPtk7fvekPHoxhpjbS6sxw0PmaW7mEhAeK5VM+/S+tHYEmxGuJNpYT4ls2yxzwOZCKPENWByMB7kE49g8MJ7bEP9Iu4iPKNfb/kSo8SXGpnEi1itZp/qAtdIr1/z3lqu5XGZp8+MChjkeHjI5H9oiTkYDxgizsVXkkt/79Jj3mUJLrJtBMhEmKwYBMwURiNmi86YGm1kWVIm1lbIoJ6eBcamMSkc68mBx6CscQJOyFON0csxiBO5scZqibMXZBCbZ0F/kDyNth4eMvmEP+4eIkBhuUbvv3cRaGjXe0PG22Gks8Hkca2aToNO5h1VS7mytkIG51kXrfFKbsSAreVaTMoKU8+dE+JFrFbQaOPsBRmPdrUxiWZ6raeDTO//+yIwGm3epQSevSFj7ZhikDAQa8fBeVYDkvJlbYWMtXwrYMQsYL5Ws0KbyXVq1xaYegEjdbPGqi3fqmXUT+q6tba2GXTq1cxW3SL2EzL3Py7eGW39kGXUT8GUoKHdtzdkrCaLToNzvcL2jHQFMFhbIWMxDa35reUIsVsWS94t7RxpipZYtW3aGjLW66ONLQODNd203E7IrEBm69HY3vMuJfDsCRlLx09N0XoHk3eSCNBoDUnqgLJhphrYRJqvplzJfS/IIDeSp4g18lazID6LKVshUBMntG5dogYlEW2wdQ1CJoNMzU/BwMRLJr/3vj0hU9vplzqXxQRKArcahNTNCpm0TjAbmAnqsmb+FoNPy8jfW+POr7P1WfKkWW9dU7sf+V27oxKweAYu1lxuQQb7rctMgEF7EjIJZGrmXVr9FEwkmPaEjLVTosNpDabm+DUDqungEZDJ65hDB4bhMcH8+vhsHSFvGWNaltUkNWWk5ZXepwMbAUvUnaFVz6U4sW9twLGlS8RXysWI+wiZ+x//+m+YSz9kOeK8SwlKe0LG2nnQmVt0EKvhorO3gEyLGPNrWgGghd2WIS7tb9XOgEoUWNJ8toCMtY8AMNo2SmPZ6/3hIVP6N8gjz7ucG2Radh7r3Qwhc60IfkteZzPKaMhYrwdgt+wjLQF0eMis3cGMPu8yKmQsxoMO1FLkgIVlIWTKkPGMyFvd0UTryAqFpcdlgIR1mRUwaI9DQ2bpLgZ3LzPMu4wKGUsnApiizSG9XvrMXlM/QqYMGasBSxug3Vs84krb3vveGmMOGesjTORqFiCv5frQkMkn+gGYknnPsm/PORkxEM0aI+I1gUZst44gCZkyZKx5zbUB2MBIRxytR0DGA5hZNZj220NDJk0E3s/8iCwFICFz2RytnXzWDm6NV2vy1nJyyKSfRwNOBGSsjxVbD75y/2v1+bCQWXpUNvtjMgHNbJDpYeapkdW+71GvFh3bav5ayKDu1keRNW0A4KANLPWKyqsXMqi/dUH8aMuoWPa6DiFz9bdRr5j07GtC5rc2lY5l6eh7QAamgheMFQaHF+qx9MJId+kFc7IsFjNHXa3laeoowOk9h+OBTASAUb5oeNb1YSGDn43JG212uEj9CZl5IAOTFphoTLfFsRbIoA/hvJ4LgAO49gCOFTIRgEFOESs0knvVTJ8JGd7JhArYYjY97hhGqpeAxVKnludYIQPDizJVbXwwYYCglRFbIaONo3Q86jATVPK6EjKETKiAS51lbd9RIAMjxgh81MUDGRjLnobcCjZ7xpTqpBVEcyC0+EzIEDKETNqbk/dR8INBjAwXCdkLGRhU70dnUndZC2yizHIUyMx8N0PIEDKEjDhUto6AzCgmlYW2+DECMjD3EaAaNZcxUvvNejdDyBAyhMyi5fp/IBOQmmmJgozcReDxIMx+rwVlow5SH8t6JMhEDHosOfCeQ8gQMq5OmAvQYig9Ok/ves0GGOQnGjLQBkbfe85FATSeuEaCDNpoxrsZQuYMIfPghTdCwZGDpPS5t5mX6pLu61mvvY3JevfgMeM012vvYZB7wBf5sJrz3m2Z6xZze2v5HXU7IUPIhIo27xQ1n8/pTgZmFrHAGGEoMDncCQAAuLa8SoZirUNryEidUT/E1BM4yKeUr1m3gowndu8jQE38EccSMoSMqfOtic9isOcEGe+3yHA+THgtvzXbR4dMGkMKHOsdWK3mAIy07Jr3LSADSCBua7w4z6uRmtijjiFkCBl1xyuJr7bDp8edC2RwJ2BdkIMo48B1LEuvO5mSflB3GLsX1kvxW+5moiGTgs5z7fQ6pXyOsI+QIWTOHjJW09XCD8dbFhhqpBlY4x0BMmkeBDjWEf9SW2jN2QOCvPyldvbEhvyk+Rr1PSFDyIQKNe9YNZ+XOl9kh7GarhYyFsNoEbs13tEgk2oAdbNCPNWgNt9RkFkr13N9LTDTfPZ8T8gQMqGQGcVo004Eg7IsWshYymgxGj1HyEh7IjaLxqRtcK5cq2btgUBtmZ54WuinJi+aYwgZQkbV6bbEZe0wW9f17LcahQYymMy1LJ641s49Z8ggZsRnbVO0keaOzVOO6GGrPKt2cH3Ub00Ho2wnZAiZUJFaIdNyRIZHFZalNWQ019cYhvXObcsMNXXocSzyZ1k0cXohU1uWtd8g/pZ9J6IdCRlCJhQyVkNv+d1/ixHhHA0ELGbUKuYe5rtmPmkeWo+yrXdsmryn8Wh1pCnHOjBAndbme9baqPd2QoaQCYWM1eBadRSPSWggY4m7hQlbjRdmVTvqXjKppTxjdO655lI5+TbLoEaT96W4amCjKUNismhI6qIBmpTXa03IEDKhkLF2SnSW6Nt+j+GiPhrIWOJuAVaPUVmAsBV3ixhTc7RARmPIW/GJyedri5ZxjvWxGc6zlJnmstV7QoaQCYXMSLf9FgNKzaI1ZGAMkR3bk3vErYGMxnw119Xmw2LKmvpo4ky1YzV8a3koG+dq89fjeEKGkAkXpqXjSweN6iiezip10UAGo2PtEjn69AIGda81Xy28W97NaHOO4zUAsOpIU0Zq9DjP2n8i9ZTWyfuekCFkwiGjNaHcKLyg8ZYv9dFAxmryMAZvJ7aWLXHKuhYyFhOMiDPPkxUA+XVKn61lWCGDuljLRDt6+04pF9Z9hAwh4za5XHyeTiKGB4PXdlTcTUQBBvXQQAZ1tS4eY4jItdS7FjLIi2WJHGlb7hxRZ02begxfq928D1lALm3iLTuvi/czIUPIhEMGIvd0EuksWAMaML+1jgOziYaLlK81JA/gUNZajEudHHCJyrHEWwsZ1NO6oM4eqCIXHrBCK0v5XNtmLUvTlktlW8tFu3jzu1QfzzZChpBRdbpasVlHu1vmBZOS19ax3v1ayHiMAXUVA4YR5oYP08I2lIHjWix5maW29gBVYkV+a8tE/N78olyt+VvL1JazlGtPO0eUv1QnyzZChpBpAhmYx+yLFjLo2NGLx2i0dak1fBhNdPsiToALOZcXPkfGr21PxLknZDDYsC6WWC0AqTlneMhc3Hz1kgl+8+47p1/uf+x+fX/3zqXrIlk/P/3BWbz2/PfLqegg9JkXS0f1jvCj8mWphwYyaGerAUfFqL1Oqs3a99YYo+4kPJCNqkNtrtaOGxoyjz57+XcgIGS2QTgKZCA6TyfRmkjpeIvpWiDT4m6mFNfSPhijxRy1kEGslrwu1bn1Nm1sYpiWPCKWKIP33DGibSSOPdfNIfPk0Yun03dXVK/HX710unf76mKCCJm5IINOsjdo8NjBcldlgQw6s9WYIoxWjMVSB4sRw0z3bt+tvElOLEZryWMkZFBni3YlJ9ovOlhytHVOc8gAGLWQAZDW4CKBEDJzQQbtZu2o0lE8a5SNOlg6qhUye43wYfbSTyw5t0AG5Y0MGg9gPNqNupPx5heaiKyL6Euzbg6ZLx+8UgUZHFdTcUJmGzI1eex9jMX0PHDBuanB9IQMctvbeGEmKSQs+U7P1+qjd7w12kjbXxuPHG/JI+oWbezWeqAuOFfi2WPdHDIICnMra3cz2JdP7pcSQciUIfPts+/tKqhS20HsvR6t5B2rN2SQh17Gu2SmFlPyQEbitZRbAwztMXn7l3RZ2meNJxoyXi1F16eUs3xfF8igUMAknZ/B561HY3ll8ZmQWYfMyICRtoSRtQRNPqKXcveADMpG57YaVY2xrpmppUwvZCTXiBng22NB+0caqiWPiDuyDpJXa11QnzWdyLVbrrtBRoLQ3LXIOemakFmGzNfP3R72DiZtP3mPCclo2JTmUCyQieyY0fGuwVTyazGkKMhIHWC0lrxb4IR8RLaXxGDJI+ov50evPX0mui611+sOmdqKrR1HyFyGDO5e3r/yWjNRr7VD1HZ0Ys+oF+fCwLdGjtiPY9FJa14wx61ranOA66Gu1njFSGvqpY0XddLGU3u8N+416GjyUVvX/DjUvUYv6TGlwU5+fe1nbbtKvVoAuLbuhMykf/H/4zN3pobLkkAxkobZpTDIDQb70IlbQGCpTq22ifEiDok3jVXMAftgEHuaRGQOJG7AVmJP4157L/k4p1xE5nXkaxEyE0Lm8+ffajbqHFGsMKYR69WiTkeKNc8fYpcXBhxHzkWem5k/HxYyeOyWN9zoPyuDeZdbL1//Xb3zOPj5GnOUDJ6oB+phTw0cEjJLgEEjjAqZ2edd9hQ4y6bBUgP7auBQkMGPYt59/ebqKHc0yJzjvAs7/L4dnvln/ntr4DCQ+fTWm6twkaSPBJmjzbtIG3BNE6QGzksD00EGsND81P8Xf3l7Ey4i6hEgw3mX8+pgoi2u2a5H1cB0kLm4fuP000cfboIGj8ZwrKZh94QM511oQhqt8ljqZRYNTAcZJBZ3J2t3M1vzLqWG2QMynHehWZQ0yX3Ux+wamBIySDoem6V3NHhfM+9SarDekOG8Cw2kpEfuoz7OQQPTQqZF8ntBhvMuNI8W+uU1qasRNUDIJH+01hoynHehCYxoAqwTddlSA4RMJ8g8eOEN1ZcQWjY6r01ToQaogV4aIGQaQ4bzLuzMvTozy6HWRtQAIdMIMng0xt8ZY6cfsdOzTtRlTw0QMsGQ4bwLO3DPDsyyqLfRNUDIBEKG8y7s8KN3eNaPGu2tAUImADKz/evj3iJjeTQ2auC4GiBkEsjgr+81X2Pmo7HjdhyaJtueGqjTACGTQAbQqIEMfwqmTlzshMwTNUANEDIJZPBtsK27Gc67sNPQOKkBaqBeA4RMAhkI5/0rry2ChvMu9aJiB2SuqAFqQDRAyGSQkcRcvHTjdO/K66e/vfin059f+SP/Wn8lT5Ivrmkq1AA1sKQBQobmSYBSA9QANdBMA4QMxdVMXEujGm7jaJcaOJYGCBlChpChBqgBaqCZBggZiquZuDhiPdaIle3N9l7SACFDyBAy1AA1QA000wAhQ3E1E9fSqIbbONqlBo6lAUKGkCFkqAFqgBpopgFChuJqJi6OWI81YmV7s72XNEDIEDKEDDVADVADzTRAyFBczcS1NKrhNo52qYFjaYCQIWQIGWqAGqAGmmmAkKG4momLI9ZjjVjZ3mzvJQ38Bz1sL+t79RWnAAAAAElFTkSuQmCC;" parent="1" vertex="1">
          <mxGeometry x="887.3499999999999" y="396.23" width="49" height="17.37" as="geometry" />
        </mxCell>
        <mxCell id="rsaEBbKv7yQd2xddFUuZ-46" value="data write" style="edgeStyle=orthogonalEdgeStyle;rounded=0;orthogonalLoop=1;jettySize=auto;html=1;entryX=0;entryY=0.5;entryDx=0;entryDy=0;" parent="1" source="rsaEBbKv7yQd2xddFUuZ-42" target="rsaEBbKv7yQd2xddFUuZ-5" edge="1">
          <mxGeometry relative="1" as="geometry">
            <Array as="points">
              <mxPoint x="790" y="711" />
            </Array>
          </mxGeometry>
        </mxCell>
        <mxCell id="rsaEBbKv7yQd2xddFUuZ-42" value="Service" style="rounded=0;whiteSpace=wrap;html=1;" parent="1" vertex="1">
          <mxGeometry x="730" y="460" width="120" height="30" as="geometry" />
        </mxCell>
        <mxCell id="rsaEBbKv7yQd2xddFUuZ-45" style="edgeStyle=orthogonalEdgeStyle;rounded=0;orthogonalLoop=1;jettySize=auto;html=1;entryX=0.5;entryY=0;entryDx=0;entryDy=0;" parent="1" source="rsaEBbKv7yQd2xddFUuZ-43" target="rsaEBbKv7yQd2xddFUuZ-42" edge="1">
          <mxGeometry relative="1" as="geometry" />
        </mxCell>
        <mxCell id="rsaEBbKv7yQd2xddFUuZ-51" value="pickup" style="edgeStyle=orthogonalEdgeStyle;rounded=0;orthogonalLoop=1;jettySize=auto;html=1;" parent="1" source="rsaEBbKv7yQd2xddFUuZ-43" target="rsaEBbKv7yQd2xddFUuZ-15" edge="1">
          <mxGeometry relative="1" as="geometry" />
        </mxCell>
        <mxCell id="rsaEBbKv7yQd2xddFUuZ-43" value="Polling Listener" style="rounded=0;whiteSpace=wrap;html=1;" parent="1" vertex="1">
          <mxGeometry x="730" y="405.08" width="120" height="34.92" as="geometry" />
        </mxCell>
        <mxCell id="rsaEBbKv7yQd2xddFUuZ-44" value="" style="points=[[0.145,0.145,0],[0.5,0,0],[0.855,0.145,0],[1,0.5,0],[0.855,0.855,0],[0.5,1,0],[0.145,0.855,0],[0,0.5,0]];shape=mxgraph.bpmn.event;html=1;verticalLabelPosition=bottom;labelBackgroundColor=#ffffff;verticalAlign=top;align=center;perimeter=ellipsePerimeter;outlineConnect=0;aspect=fixed;outline=standard;symbol=timer;" parent="1" vertex="1">
          <mxGeometry x="720" y="390" width="30" height="30" as="geometry" />
        </mxCell>
        <mxCell id="rsaEBbKv7yQd2xddFUuZ-48" value="" style="endArrow=none;dashed=1;html=1;rounded=0;" parent="1" edge="1">
          <mxGeometry width="50" height="50" relative="1" as="geometry">
            <mxPoint x="440" y="810" as="sourcePoint" />
            <mxPoint x="440" y="320" as="targetPoint" />
          </mxGeometry>
        </mxCell>
        <mxCell id="rsaEBbKv7yQd2xddFUuZ-30" value="REST over HTTP" style="rounded=0;orthogonalLoop=1;jettySize=auto;html=1;entryX=0;entryY=0.75;entryDx=0;entryDy=0;" parent="1" edge="1">
          <mxGeometry x="-0.0297" y="-9" relative="1" as="geometry">
            <mxPoint x="380" y="660" as="sourcePoint" />
            <mxPoint x="495" y="660.35" as="targetPoint" />
            <mxPoint as="offset" />
          </mxGeometry>
        </mxCell>
        <mxCell id="rsaEBbKv7yQd2xddFUuZ-49" value="Firewall / Gateway" style="text;html=1;align=center;verticalAlign=middle;whiteSpace=wrap;rounded=0;" parent="1" vertex="1">
          <mxGeometry x="386" y="280" width="114" height="30" as="geometry" />
        </mxCell>
        <mxCell id="rsaEBbKv7yQd2xddFUuZ-52" value="" style="sketch=0;outlineConnect=0;fontColor=#232F3E;gradientColor=none;fillColor=#01A88D;strokeColor=none;dashed=0;verticalLabelPosition=bottom;verticalAlign=top;align=center;html=1;fontSize=12;fontStyle=0;aspect=fixed;shape=mxgraph.aws4.transfer_for_ftps_resource;" parent="1" vertex="1">
          <mxGeometry x="577" y="335.71" width="46" height="47.21" as="geometry" />
        </mxCell>
        <mxCell id="rsaEBbKv7yQd2xddFUuZ-53" style="edgeStyle=orthogonalEdgeStyle;rounded=0;orthogonalLoop=1;jettySize=auto;html=1;endArrow=none;endFill=0;dashed=1;" parent="1" source="rsaEBbKv7yQd2xddFUuZ-15" target="rsaEBbKv7yQd2xddFUuZ-52" edge="1">
          <mxGeometry relative="1" as="geometry" />
        </mxCell>
        <mxCell id="rsaEBbKv7yQd2xddFUuZ-15" value="Fresh Delta" style="shape=image;html=1;verticalAlign=top;verticalLabelPosition=bottom;labelBackgroundColor=#ffffff;imageAspect=0;aspect=fixed;image=https://cdn1.iconfinder.com/data/icons/bootstrap-vol-3/16/filetype-csv-128.png" parent="1" vertex="1">
          <mxGeometry x="580" y="402.54" width="40" height="40" as="geometry" />
        </mxCell>
      </root>
    </mxGraphModel>
  </diagram>
</mxfile>
